SplineFontDB: 3.0
FontName: Maestro
FullName: Maestro
FamilyName: Maestro
Weight: Book
Copyright: Copyright \\(c\\) 1999 Coda Music Technology
Version: 001.000
ItalicAngle: 0
UnderlinePosition: -116
UnderlineWidth: 9
Ascent: 819
Descent: 205
InvalidEm: 0
sfntRevision: 0x00010000
LayerCount: 2
Layer: 0 1 "Back" 1
Layer: 1 1 "Fore" 0
XUID: [1021 248 1163638809 7031]
StyleMap: 0x0000
FSType: 0
OS2Version: 3
OS2_WeightWidthSlopeOnly: 0
OS2_UseTypoMetrics: 0
CreationTime: 1162150152
ModificationTime: 1445262549
PfmFamily: 17
TTFWeight: 400
TTFWidth: 5
LineGap: 46
VLineGap: 0
Panose: 2 0 5 6 5 0 0 2 0 4
OS2TypoAscent: 1492
OS2TypoAOffset: 0
OS2TypoDescent: -1004
OS2TypoDOffset: 0
OS2TypoLinegap: 46
OS2WinAscent: 1492
OS2WinAOffset: 0
OS2WinDescent: 1002
OS2WinDOffset: 0
HheadAscent: 1492
HheadAOffset: 0
HheadDescent: -1004
HheadDOffset: 0
OS2SubXSize: 717
OS2SubYSize: 666
OS2SubXOff: 0
OS2SubYOff: 143
OS2SupXSize: 717
OS2SupYSize: 666
OS2SupXOff: 0
OS2SupYOff: 488
OS2StrikeYSize: 51
OS2StrikeYPos: 256
OS2CapHeight: 700
OS2XHeight: 500
OS2Vendor: 'pyrs'
OS2CodePages: 80000000.00000000
OS2UnicodeRanges: 00000000.00000000.00000000.00000000
MarkAttachClasses: 1
DEI: 91125
TtTable: prep
PUSHW_1
 0
CALL
SVTCA[y-axis]
PUSHW_3
 1
 2
 2
CALL
SVTCA[x-axis]
PUSHW_3
 3
 2
 2
CALL
SVTCA[x-axis]
PUSHW_8
 3
 212
 162
 126
 91
 54
 0
 8
CALL
PUSHW_8
 4
 95
 78
 61
 44
 26
 0
 8
CALL
SVTCA[y-axis]
PUSHW_8
 1
 290
 237
 185
 132
 79
 0
 8
CALL
PUSHW_8
 2
 184
 162
 126
 91
 54
 0
 8
CALL
SVTCA[y-axis]
PUSHW_3
 5
 2
 7
CALL
PUSHW_1
 0
DUP
RCVT
RDTG
ROUND[Black]
RTG
WCVTP
EndTTInstrs
TtTable: fpgm
PUSHW_1
 0
FDEF
MPPEM
PUSHW_1
 9
LT
IF
PUSHB_2
 1
 1
INSTCTRL
EIF
PUSHW_1
 511
SCANCTRL
PUSHW_1
 68
SCVTCI
PUSHW_2
 9
 3
SDS
SDB
ENDF
PUSHW_1
 1
FDEF
DUP
DUP
RCVT
ROUND[Black]
WCVTP
PUSHB_1
 1
ADD
ENDF
PUSHW_1
 2
FDEF
PUSHW_1
 1
LOOPCALL
POP
ENDF
PUSHW_1
 3
FDEF
DUP
GC[cur]
PUSHB_1
 3
CINDEX
GC[cur]
GT
IF
SWAP
EIF
DUP
ROLL
DUP
ROLL
MD[grid]
ABS
ROLL
DUP
GC[cur]
DUP
ROUND[Grey]
SUB
ABS
PUSHB_1
 4

StartChar: exclam
Encoding: 33 33 4
Width: 307
GlyphClass: 2
Flags: W
LayerCount: 2
Fore
SplineSet
308 139 m 1,0,-1
 308 -136 l 1,1,-1
 -1 -136 l 1,2,-1
 -1 139 l 1,3,-1
 308 139 l 1,0,-1
EndSplineSet
Validated: 1
EndChar

StartChar: quotedbl
Encoding: 34 34 5
Width: 307
GlyphClass: 2
Flags: W
LayerCount: 2
Fore
SplineSet
219 305 m 1,0,-1
 218 -301 l 1,1,-1
 -1 -302 l 1,2,-1
 0 304 l 1,3,-1
 219 305 l 1,0,-1
EndSplineSet
Validated: 1
EndChar

StartChar: numbersign
Encoding: 35 35 6
Width: 307
GlyphClass: 2
Flags: W
LayerCount: 2
Fore
SplineSet
219 305 m 1,0,-1
 219 1 l 1,1,-1
 0 0 l 1,2,-1
 0 304 l 1,3,-1
 219 305 l 1,0,-1
EndSplineSet
Validated: 1
EndChar

StartChar: dollar
Encoding: 36 36 7
Width: 326
GlyphClass: 2
Flags: W
LayerCount: 2
Fore
SplineSet
327 257 m 1,0,-1
 327 110 l 1,1,-1
 1 110 l 1,2,-1
 1 257 l 1,3,-1
 327 257 l 1,0,-1
EndSplineSet
Validated: 1
EndChar

StartChar: percent
Encoding: 37 37 8
Width: 325
GlyphClass: 2
Flags: W
LayerCount: 2
Fore
SplineSet
326 131 m 1,0,-1
 326 0 l 1,1,-1
 0 0 l 1,2,-1
 0 131 l 1,3,-1
 326 131 l 1,0,-1
EndSplineSet
Validated: 1
EndChar

StartChar: ampersand
Encoding: 38 38 9
Width: 287
GlyphClass: 2
Flags: W
LayerCount: 2
Fore
SplineSet
257 -217 m 1,0,1
 231 -206 231 -206 211 -201.5 c 128,-1,2
 191 -197 191 -197 175 -197 c 0,3,4
 143 -197 143 -197 120.5 -216 c 128,-1,5
 98 -235 98 -235 98 -270 c 0,6,7
 98 -281 98 -281 105.5 -295 c 128,-1,8
 113 -309 113 -309 123 -321 c 0,9,10
 134 -335 134 -335 149 -349 c 1,11,-1
 137 -359 l 1,12,13
 104 -339 104 -339 77 -315 c 0,14,15
 54 -295 54 -295 33.5 -269.5 c 128,-1,16
 13 -244 13 -244 9 -216 c 0,17,18
 6 -199 6 -199 10.5 -182 c 128,-1,19
 15 -165 15 -165 25.5 -151.5 c 128,-1,20
 36 -138 36 -138 52.5 -129.5 c 128,-1,21
 69 -121 69 -121 90 -119 c 0,22,23
 98 -119 98 -119 109 -119.5 c 128,-1,24
 120 -120 120 -120 130.5 -121.5 c 128,-1,25
 141 -123 141 -123 150.5 -124.5 c 128,-1,26
 160 -126 160 -126 166 -127 c 1,27,28
 94 -57 94 -57 57.5 -11 c 128,-1,29
 21 35 21 35 27 49 c 0,30,31
 34 58 34 58 48.5 76.5 c 128,-1,32
 63 95 63 95 77 120 c 128,-1,33
 91 145 91 145 102 173 c 128,-1,34
 113 201 113 201 113 228 c 0,35,36
 113 245 113 245 102 270.5 c 128,-1,37
 91 296 91 296 78 320 c 0,38,39
 62 347 62 347 43 377 c 1,40,-1
 57 387 l 1,41,-1
 239 158 l 1,42,43
 214 128 214 128 196 97 c 0,44,45
 179 71 179 71 166 40.5 c 128,-1,46
 153 10 153 10 153 -17 c 0,47,48
 153 -36 153 -36 158.5 -53.5 c 128,-1,49
 164 -71 164 -71 172 -86.5 c 128,-1,50
 180 -102 180 -102 190 -115.5 c 128,-1,51
 200 -129 200 -129 208 -139 c 0,52,53
 212 -145 212 -145 221 -154.5 c 128,-1,54
 230 -164 230 -164 238 -173.5 c 128,-1,55
 246 -183 246 -183 252.5 -191 c 128,-1,56
 259 -199 259 -199 259 -201 c 2,57,-1
 257 -217 l 1,58,-1
 257 -217 l 1,0,1
EndSplineSet
Validated: 37
EndChar

StartChar: quotesingle
Encoding: 39 39 10
Width: 311
GlyphClass: 2
Flags: W
LayerCount: 2
Fore
SplineSet
74 218 m 0,0,1
 102 225 102 225 120 215 c 128,-1,2
 138 205 138 205 148 186.5 c 128,-1,3
 158 168 158 168 160 146 c 128,-1,4
 162 124 162 124 157 109 c 1,5,6
 173 111 173 111 186.5 115 c 128,-1,7
 200 119 200 119 214 133 c 0,8,9
 227 146 227 146 236 157.5 c 128,-1,10
 245 169 245 169 257 183 c 1,11,-1
 271 175 l 1,12,-1
 158 -254 l 1,13,-1
 117 -254 l 1,14,15
 127 -220 127 -220 138 -187 c 0,16,17
 147 -160 147 -160 156.5 -131 c 128,-1,18
 166 -102 166 -102 173 -85 c 0,19,20
 189 -40 189 -40 200 -4.5 c 128,-1,21
 211 31 211 31 217 55 c 0,22,23
 224 84 224 84 228 105 c 1,24,25
 219 98 219 98 203 87.5 c 128,-1,26
 187 77 187 77 169 66.5 c 128,-1,27
 151 56 151 56 131.5 48.5 c 128,-1,28
 112 41 112 41 93 40 c 0,29,30
 53 38 53 38 29 61.5 c 128,-1,31
 5 85 5 85 1 116 c 128,-1,32
 -3 147 -3 147 14.5 177.5 c 128,-1,33
 32 208 32 208 74 218 c 0,0,1
EndSplineSet
Validated: 33
EndChar

StartChar: parenleft
Encoding: 40 40 11
Width: 351
GlyphClass: 2
Flags: W
LayerCount: 2
Fore
SplineSet
138 216 m 256,0,1
 166 223 166 223 184.5 213 c 128,-1,2
 203 203 203 203 213 184.5 c 128,-1,3
 223 166 223 166 224.5 144 c 128,-1,4
 226 122 226 122 222 106 c 1,5,6
 238 108 238 108 251.5 114 c 128,-1,7
 265 120 265 120 280 131 c 0,8,9
 294 142 294 142 302 154.5 c 128,-1,10
 310 167 310 167 322 181 c 1,11,-1
 337 173 l 1,12,13
 313 81 313 81 285 -29 c 0,14,15
 260 -123 260 -123 227 -249.5 c 128,-1,16
 194 -376 194 -376 155 -522 c 1,17,-1
 115 -522 l 1,18,19
 128 -486 128 -486 139 -453 c 0,20,21
 149 -424 149 -424 158.5 -396 c 128,-1,22
 168 -368 168 -368 173 -351 c 0,23,24
 186 -305 186 -305 195.5 -269.5 c 128,-1,25
 205 -234 205 -234 212 -211 c 0,26,27
 219 -183 219 -183 225 -163 c 1,28,29
 216 -170 216 -170 200.5 -180.5 c 128,-1,30
 185 -191 185 -191 166.5 -201 c 128,-1,31
 148 -211 148 -211 128.5 -218.5 c 128,-1,32
 109 -226 109 -226 90 -227 c 0,33,34
 63 -228 63 -228 43.5 -218 c 128,-1,35
 24 -208 24 -208 12.5 -190.5 c 128,-1,36
 1 -173 1 -173 -1.5 -151.5 c 128,-1,37
 -4 -130 -4 -130 2.5 -109.5 c 128,-1,38
 9 -89 9 -89 26 -73 c 128,-1,39
 43 -57 43 -57 71 -50 c 256,40,41
 99 -43 99 -43 117 -53 c 128,-1,42
 135 -63 135 -63 145.5 -81.5 c 128,-1,43
 156 -100 156 -100 157.5 -121.5 c 128,-1,44
 159 -143 159 -143 155 -159 c 1,45,46
 170 -157 170 -157 183.5 -152.5 c 128,-1,47
 197 -148 197 -148 211 -135 c 0,48,49
 220 -127 220 -127 225 -120.5 c 128,-1,50
 230 -114 230 -114 234 -106.5 c 128,-1,51
 238 -99 238 -99 241.5 -90.5 c 128,-1,52
 245 -82 245 -82 250 -71 c 0,53,54
 250 -70 250 -70 253.5 -56.5 c 128,-1,55
 257 -43 257 -43 261.5 -23.5 c 128,-1,56
 266 -4 266 -4 272 18 c 128,-1,57
 278 40 278 40 282.5 59 c 128,-1,58
 287 78 287 78 290 90 c 2,59,-1
 293 102 l 1,60,61
 284 95 284 95 268.5 85 c 128,-1,62
 253 75 253 75 234.5 64.5 c 128,-1,63
 216 54 216 54 196 47 c 128,-1,64
 176 40 176 40 158 39 c 0,65,66
 131 37 131 37 111.5 47.5 c 128,-1,67
 92 58 92 58 81 75.5 c 128,-1,68
 70 93 70 93 66.5 114.5 c 128,-1,69
 63 136 63 136 70 156.5 c 128,-1,70
 77 177 77 177 93.5 193 c 128,-1,71
 110 209 110 209 138 216 c 256,0,1
EndSplineSet
Validated: 33
EndChar

StartChar: parenright
Encoding: 41 41 12
Width: 483
GlyphClass: 2
Flags: W
LayerCount: 2
Fore
SplineSet
209 475 m 256,0,1
 237 482 237 482 255 472 c 128,-1,2
 273 462 273 462 283.5 443.5 c 128,-1,3
 294 425 294 425 295.5 403.5 c 128,-1,4
 297 382 297 382 293 367 c 1,5,6
 309 369 309 369 324.5 373.5 c 128,-1,7
 340 378 340 378 354 392 c 0,8,9
 367 405 367 405 374.5 413.5 c 128,-1,10
 382 422 382 422 392 440 c 1,11,-1
 408 432 l 1,12,-1
 157 -518 l 1,13,-1
 116 -518 l 1,14,15
 128 -483 128 -483 139 -452 c 0,16,17
 149 -425 149 -425 159 -396.5 c 128,-1,18
 169 -368 169 -368 175 -350 c 0,19,20
 189 -304 189 -304 199.5 -268 c 128,-1,21
 210 -232 210 -232 217 -207 c 0,22,23
 225 -177 225 -177 230 -154 c 1,24,25
 221 -161 221 -161 204.5 -172 c 128,-1,26
 188 -183 188 -183 169.5 -194.5 c 128,-1,27
 151 -206 151 -206 131 -214 c 128,-1,28
 111 -222 111 -222 92 -223 c 0,29,30
 65 -224 65 -224 45.5 -214 c 128,-1,31
 26 -204 26 -204 14.5 -186.5 c 128,-1,32
 3 -169 3 -169 0.5 -147.5 c 128,-1,33
 -2 -126 -2 -126 4.5 -105.5 c 128,-1,34
 11 -85 11 -85 28 -69 c 128,-1,35
 45 -53 45 -53 73 -46 c 256,36,37
 101 -39 101 -39 119 -49 c 128,-1,38
 137 -59 137 -59 147 -77.5 c 128,-1,39
 157 -96 157 -96 159 -117.5 c 128,-1,40
 161 -139 161 -139 156 -156 c 1,41,42
 172 -154 172 -154 185 -150.5 c 128,-1,43
 198 -147 198 -147 214 -136 c 0,44,45
 224 -129 224 -129 235 -113 c 128,-1,46
 246 -97 246 -97 253 -74 c 0,47,48
 265 -32 265 -32 274.5 2.5 c 128,-1,49
 284 37 284 37 290 61 c 0,50,51
 297 90 297 90 302 114 c 1,52,53
 293 107 293 107 276.5 95 c 128,-1,54
 260 83 260 83 240.5 71 c 128,-1,55
 221 59 221 59 200 50.5 c 128,-1,56
 179 42 179 42 161 41 c 0,57,58
 134 39 134 39 114.5 49.5 c 128,-1,59
 95 60 95 60 84 77.5 c 128,-1,60
 73 95 73 95 70 116.5 c 128,-1,61
 67 138 67 138 73.5 158.5 c 128,-1,62
 80 179 80 179 97 195 c 128,-1,63
 114 211 114 211 141 218 c 0,64,65
 169 225 169 225 187.5 215 c 128,-1,66
 206 205 206 205 216 186.5 c 128,-1,67
 226 168 226 168 227.5 146.5 c 128,-1,68
 229 125 229 125 225 110 c 1,69,70
 241 112 241 112 254.5 115.5 c 128,-1,71
 268 119 268 119 283 133 c 0,72,73
 296 146 296 146 307 160.5 c 128,-1,74
 318 175 318 175 327 208 c 0,75,76
 336 244 336 244 344 274 c 128,-1,77
 352 304 352 304 357 325 c 0,78,79
 363 350 363 350 369 369 c 1,80,81
 360 362 360 362 343.5 350 c 128,-1,82
 327 338 327 338 307.5 327 c 128,-1,83
 288 316 288 316 267.5 307.5 c 128,-1,84
 247 299 247 299 228 298 c 0,85,86
 201 297 201 297 182 307 c 128,-1,87
 163 317 163 317 151.5 334.5 c 128,-1,88
 140 352 140 352 137 373.5 c 128,-1,89
 134 395 134 395 140.5 415.5 c 128,-1,90
 147 436 147 436 164 452 c 128,-1,91
 181 468 181 468 209 475 c 256,0,1
EndSplineSet
Validated: 33
EndChar

StartChar: asterisk
Encoding: 42 42 13
Width: 519
GlyphClass: 2
Flags: W
LayerCount: 2
Fore
SplineSet
279 729 m 256,0,1
 307 736 307 736 325 726 c 128,-1,2
 343 716 343 716 353.5 697.5 c 128,-1,3
 364 679 364 679 365.5 657.5 c 128,-1,4
 367 636 367 636 362 620 c 1,5,6
 377 622 377 622 393 626.5 c 128,-1,7
 409 631 409 631 423 645 c 0,8,9
 436 658 436 658 443.5 669 c 128,-1,10
 451 680 451 680 462 694 c 1,11,-1
 477 686 l 1,12,-1
 158 -521 l 1,13,-1
 117 -521 l 1,14,15
 128 -489 128 -489 139 -461 c 0,16,17
 148 -436 148 -436 157.5 -410 c 128,-1,18
 167 -384 167 -384 172 -367 c 0,19,20
 183 -321 183 -321 194 -281.5 c 128,-1,21
 205 -242 205 -242 213 -212 c 0,22,23
 222 -178 222 -178 230 -148 c 1,24,25
 221 -155 221 -155 204.5 -166.5 c 128,-1,26
 188 -178 188 -178 169.5 -189.5 c 128,-1,27
 151 -201 151 -201 131 -209 c 128,-1,28
 111 -217 111 -217 92 -218 c 0,29,30
 65 -220 65 -220 45.5 -209.5 c 128,-1,31
 26 -199 26 -199 14.5 -181.5 c 128,-1,32
 3 -164 3 -164 0.5 -142.5 c 128,-1,33
 -2 -121 -2 -121 4.5 -100.5 c 128,-1,34
 11 -80 11 -80 28 -64 c 128,-1,35
 45 -48 45 -48 73 -41 c 256,36,37
 101 -34 101 -34 119 -44 c 128,-1,38
 137 -54 137 -54 147 -72.5 c 128,-1,39
 157 -91 157 -91 159 -113 c 128,-1,40
 161 -135 161 -135 156 -151 c 1,41,42
 172 -149 172 -149 184.5 -144.5 c 128,-1,43
 197 -140 197 -140 213 -128 c 0,44,45
 223 -121 223 -121 233.5 -109.5 c 128,-1,46
 244 -98 244 -98 252 -69 c 0,47,48
 263 -27 263 -27 272.5 6 c 128,-1,49
 282 39 282 39 289 62 c 0,50,51
 297 89 297 89 303 111 c 1,52,53
 293 104 293 104 276.5 92 c 128,-1,54
 260 80 260 80 240.5 68 c 128,-1,55
 221 56 221 56 200.5 47.5 c 128,-1,56
 180 39 180 39 162 38 c 0,57,58
 135 36 135 36 115 46.5 c 128,-1,59
 95 57 95 57 84 74.5 c 128,-1,60
 73 92 73 92 70.5 113.5 c 128,-1,61
 68 135 68 135 74.5 155 c 128,-1,62
 81 175 81 175 98 191.5 c 128,-1,63
 115 208 115 208 142 215 c 0,64,65
 170 222 170 222 188.5 212 c 128,-1,66
 207 202 207 202 216.5 183.5 c 128,-1,67
 226 165 226 165 228 143.5 c 128,-1,68
 230 122 230 122 225 106 c 1,69,70
 241 107 241 107 254.5 112 c 128,-1,71
 268 117 268 117 286 128 c 0,72,73
 299 136 299 136 309 153.5 c 128,-1,74
 319 171 319 171 328 204 c 0,75,76
 337 240 337 240 344 270 c 128,-1,77
 351 300 351 300 356 322 c 0,78,79
 362 348 362 348 368 366 c 1,80,81
 359 359 359 359 342.5 347 c 128,-1,82
 326 335 326 335 307 324 c 128,-1,83
 288 313 288 313 268 304.5 c 128,-1,84
 248 296 248 296 229 295 c 0,85,86
 202 293 202 293 182.5 303.5 c 128,-1,87
 163 314 163 314 151.5 331.5 c 128,-1,88
 140 349 140 349 137.5 370.5 c 128,-1,89
 135 392 135 392 141.5 412.5 c 128,-1,90
 148 433 148 433 165 449 c 128,-1,91
 182 465 182 465 210 472 c 256,92,93
 238 479 238 479 256 469 c 128,-1,94
 274 459 274 459 284 440.5 c 128,-1,95
 294 422 294 422 296 400.5 c 128,-1,96
 298 379 298 379 293 364 c 1,97,98
 309 366 309 366 322 369.5 c 128,-1,99
 335 373 335 373 351 384 c 0,100,101
 365 393 365 393 373.5 406 c 128,-1,102
 382 419 382 419 391 452 c 0,103,104
 399 484 399 484 407 513 c 128,-1,105
 415 542 415 542 421 565 c 0,106,107
 428 592 428 592 434 616 c 1,108,109
 425 609 425 609 409 598.5 c 128,-1,110
 393 588 393 588 374.5 578 c 128,-1,111
 356 568 356 568 336 560.5 c 128,-1,112
 316 553 316 553 298 552 c 0,113,114
 271 550 271 550 251.5 560.5 c 128,-1,115
 232 571 232 571 221 588.5 c 128,-1,116
 210 606 210 606 207 627.5 c 128,-1,117
 204 649 204 649 210.5 669.5 c 128,-1,118
 217 690 217 690 234 706 c 128,-1,119
 251 722 251 722 279 729 c 256,0,1
EndSplineSet
Validated: 33
EndChar

StartChar: plus
Encoding: 43 43 14
Width: 615
GlyphClass: 2
Flags: W
LayerCount: 2
Fore
SplineSet
348 990 m 256,0,1
 376 997 376 997 394.5 987 c 128,-1,2
 413 977 413 977 423 958.5 c 128,-1,3
 433 940 433 940 434.5 918.5 c 128,-1,4
 436 897 436 897 432 882 c 1,5,6
 447 883 447 883 458 885.5 c 128,-1,7
 469 888 469 888 483 899 c 256,8,9
 497 910 497 910 509 924.5 c 128,-1,10
 521 939 521 939 531 955 c 1,11,-1
 546 946 l 1,12,-1
 158 -521 l 1,13,-1
 117 -521 l 1,14,15
 129 -489 129 -489 140 -461 c 0,16,17
 149 -436 149 -436 158.5 -410.5 c 128,-1,18
 168 -385 168 -385 173 -368 c 0,19,20
 185 -322 185 -322 195.5 -283.5 c 128,-1,21
 206 -245 206 -245 214 -216 c 0,22,23
 223 -183 223 -183 231 -157 c 1,24,25
 222 -164 222 -164 205.5 -175.5 c 128,-1,26
 189 -187 189 -187 170.5 -198 c 128,-1,27
 152 -209 152 -209 132 -217.5 c 128,-1,28
 112 -226 112 -226 93 -227 c 0,29,30
 53 -229 53 -229 29 -206 c 128,-1,31
 5 -183 5 -183 1 -152 c 128,-1,32
 -3 -121 -3 -121 14.5 -91 c 128,-1,33
 32 -61 32 -61 74 -50 c 0,34,35
 102 -43 102 -43 120 -53 c 128,-1,36
 138 -63 138 -63 148 -81.5 c 128,-1,37
 158 -100 158 -100 160 -121.5 c 128,-1,38
 162 -143 162 -143 157 -159 c 1,39,40
 173 -157 173 -157 185.5 -152.5 c 128,-1,41
 198 -148 198 -148 214 -137 c 0,42,43
 224 -129 224 -129 235 -117.5 c 128,-1,44
 246 -106 246 -106 254 -77 c 0,45,46
 265 -35 265 -35 274.5 -0.5 c 128,-1,47
 284 34 284 34 290 58 c 0,48,49
 297 87 297 87 303 111 c 1,50,51
 294 104 294 104 277.5 91.5 c 128,-1,52
 261 79 261 79 241.5 67.5 c 128,-1,53
 222 56 222 56 201 47 c 128,-1,54
 180 38 180 38 162 37 c 0,55,56
 122 35 122 35 98.5 58.5 c 128,-1,57
 75 82 75 82 71 113 c 128,-1,58
 67 144 67 144 83.5 174.5 c 128,-1,59
 100 205 100 205 142 215 c 0,60,61
 170 222 170 222 188.5 212 c 128,-1,62
 207 202 207 202 217 183.5 c 128,-1,63
 227 165 227 165 228.5 143 c 128,-1,64
 230 121 230 121 226 105 c 1,65,66
 241 107 241 107 254.5 112 c 128,-1,67
 268 117 268 117 286 128 c 0,68,69
 299 136 299 136 309 153.5 c 128,-1,70
 319 171 319 171 328 204 c 0,71,72
 337 240 337 240 344.5 270 c 128,-1,73
 352 300 352 300 357 322 c 0,74,75
 363 348 363 348 369 366 c 1,76,77
 359 359 359 359 343 347 c 128,-1,78
 327 335 327 335 308 323.5 c 128,-1,79
 289 312 289 312 268.5 303.5 c 128,-1,80
 248 295 248 295 229 294 c 0,81,82
 189 292 189 292 165.5 315.5 c 128,-1,83
 142 339 142 339 138 370 c 128,-1,84
 134 401 134 401 151 431.5 c 128,-1,85
 168 462 168 462 210 472 c 0,86,87
 238 479 238 479 256 469 c 128,-1,88
 274 459 274 459 284.5 440.5 c 128,-1,89
 295 422 295 422 296.5 400 c 128,-1,90
 298 378 298 378 294 362 c 1,91,92
 309 364 309 364 322 368.5 c 128,-1,93
 335 373 335 373 352 384 c 0,94,95
 365 393 365 393 374 406 c 128,-1,96
 383 419 383 419 392 452 c 0,97,98
 400 484 400 484 408 513.5 c 128,-1,99
 416 543 416 543 421.5 566 c 128,-1,100
 427 589 427 589 431 602 c 2,101,-1
 435 616 l 1,102,103
 426 609 426 609 410 598.5 c 128,-1,104
 394 588 394 588 375 577.5 c 128,-1,105
 356 567 356 567 336 559.5 c 128,-1,106
 316 552 316 552 298 551 c 0,107,108
 258 549 258 549 234.5 572.5 c 128,-1,109
 211 596 211 596 207 627 c 128,-1,110
 203 658 203 658 220.5 688 c 128,-1,111
 238 718 238 718 280 729 c 0,112,113
 308 736 308 736 325.5 726 c 128,-1,114
 343 716 343 716 353.5 697.5 c 128,-1,115
 364 679 364 679 365.5 657 c 128,-1,116
 367 635 367 635 362 620 c 1,117,118
 378 622 378 622 394 625.5 c 128,-1,119
 410 629 410 629 423 640 c 0,120,121
 434 649 434 649 445.5 666 c 128,-1,122
 457 683 457 683 462 706 c 0,123,124
 473 753 473 753 481 785.5 c 128,-1,125
 489 818 489 818 495 839 c 0,126,127
 500 864 500 864 503 878 c 1,128,129
 494 871 494 871 478.5 860 c 128,-1,130
 463 849 463 849 444.5 839 c 128,-1,131
 426 829 426 829 406 821.5 c 128,-1,132
 386 814 386 814 368 813 c 0,133,134
 341 811 341 811 321.5 822 c 128,-1,135
 302 833 302 833 291 850 c 128,-1,136
 280 867 280 867 276.5 888.5 c 128,-1,137
 273 910 273 910 280 930 c 128,-1,138
 287 950 287 950 303.5 966.5 c 128,-1,139
 320 983 320 983 348 990 c 256,0,1
EndSplineSet
Validated: 33
EndChar

StartChar: comma
Encoding: 44 44 15
Width: 233
GlyphClass: 2
Flags: W
LayerCount: 2
Fore
SplineSet
152 26 m 1,0,1
 138 15 138 15 120.5 8.5 c 128,-1,2
 103 2 103 2 82 2 c 0,3,4
 68 2 68 2 49.5 2 c 128,-1,5
 31 2 31 2 23 13 c 1,6,7
 23 -74 23 -74 22.5 -162.5 c 128,-1,8
 22 -251 22 -251 22 -338 c 1,9,10
 37 -339 37 -339 55 -334.5 c 128,-1,11
 73 -330 73 -330 89.5 -319.5 c 128,-1,12
 106 -309 106 -309 121.5 -294 c 128,-1,13
 137 -279 137 -279 148 -259 c 0,14,15
 155 -246 155 -246 162.5 -226.5 c 128,-1,16
 170 -207 170 -207 175 -186 c 128,-1,17
 180 -165 180 -165 182.5 -144.5 c 128,-1,18
 185 -124 185 -124 184 -108 c 0,19,20
 181 -67 181 -67 174.5 -37 c 128,-1,21
 168 -7 168 -7 152 26 c 1,0,1
1 68 m 2,22,23
 2 67 2 67 3 75.5 c 128,-1,24
 4 84 4 84 4 86 c 0,25,26
 13 124 13 124 46.5 149.5 c 128,-1,27
 80 175 80 175 126 180 c 0,28,29
 130 180 130 180 138.5 179.5 c 128,-1,30
 147 179 147 179 156.5 177 c 128,-1,31
 166 175 166 175 174.5 170 c 128,-1,32
 183 165 183 165 189 158 c 0,33,34
 193 153 193 153 196 143.5 c 128,-1,35
 199 134 199 134 200.5 124.5 c 128,-1,36
 202 115 202 115 202 105 c 128,-1,37
 202 95 202 95 200 91 c 0,38,39
 194 77 194 77 184 61.5 c 128,-1,40
 174 46 174 46 160 33 c 1,41,42
 164 26 164 26 170 13 c 128,-1,43
 176 0 176 0 178 -8 c 0,44,45
 193 -42 193 -42 197.5 -68 c 128,-1,46
 202 -94 202 -94 203 -115 c 0,47,48
 204 -135 204 -135 200.5 -157 c 128,-1,49
 197 -179 197 -179 190.5 -201.5 c 128,-1,50
 184 -224 184 -224 176.5 -245 c 128,-1,51
 169 -266 169 -266 161 -284 c 0,52,53
 153 -301 153 -301 139.5 -319 c 128,-1,54
 126 -337 126 -337 110.5 -355.5 c 128,-1,55
 95 -374 95 -374 79 -392.5 c 128,-1,56
 63 -411 63 -411 50 -427 c 0,57,58
 32 -451 32 -451 24.5 -463 c 128,-1,59
 17 -475 17 -475 16 -482.5 c 128,-1,60
 15 -490 15 -490 16 -496 c 128,-1,61
 17 -502 17 -502 15 -512 c 1,62,-1
 1 -514 l 1,63,64
 1 -466 1 -466 1 -404 c 128,-1,65
 1 -342 1 -342 1 -277.5 c 128,-1,66
 1 -213 1 -213 1 -151 c 128,-1,67
 1 -89 1 -89 1 -40.5 c 128,-1,68
 1 8 1 8 1 23 c 2,69,-1
 1 68 l 2,22,23
EndSplineSet
Validated: 33
EndChar

StartChar: hyphen
Encoding: 45 45 16
Width: 385
GlyphClass: 2
Flags: W
LayerCount: 2
Fore
SplineSet
367 289 m 0,0,1
 367 305 367 305 364 324 c 128,-1,2
 361 343 361 343 356.5 361.5 c 128,-1,3
 352 380 352 380 346 397.5 c 128,-1,4
 340 415 340 415 333 429 c 0,5,6
 313 470 313 470 279 489.5 c 128,-1,7
 245 509 245 509 206 506 c 1,8,-1
 206 113 l 2,9,10
 206 114 206 114 205 105 c 128,-1,11
 204 96 204 96 204 94 c 0,12,13
 195 56 195 56 161.5 30.5 c 128,-1,14
 128 5 128 5 82 0 c 0,15,16
 77 0 77 0 68.5 0.5 c 128,-1,17
 60 1 60 1 51 3 c 128,-1,18
 42 5 42 5 33.5 9.5 c 128,-1,19
 25 14 25 14 18 22 c 0,20,21
 14 26 14 26 11 36 c 128,-1,22
 8 46 8 46 7 55.5 c 128,-1,23
 6 65 6 65 6 74.5 c 128,-1,24
 6 84 6 84 8 89 c 0,25,26
 14 102 14 102 23.5 117.5 c 128,-1,27
 33 133 33 133 47 146.5 c 128,-1,28
 61 160 61 160 80.5 169 c 128,-1,29
 100 178 100 178 126 178 c 0,30,31
 140 178 140 178 158.5 178 c 128,-1,32
 177 178 177 178 185 167 c 1,33,-1
 185 687 l 1,34,-1
 201 686 l 1,35,36
 201 678 201 678 201.5 669.5 c 128,-1,37
 202 661 202 661 207 649.5 c 128,-1,38
 212 638 212 638 222.5 622 c 128,-1,39
 233 606 233 606 254 584 c 0,40,41
 282 552 282 552 310 516 c 128,-1,42
 338 480 338 480 355 440 c 0,43,44
 369 404 369 404 376.5 370.5 c 128,-1,45
 384 337 384 337 385 297 c 0,46,47
 386 277 386 277 381.5 251.5 c 128,-1,48
 377 226 377 226 367 190 c 0,49,50
 366 184 366 184 363 178 c 128,-1,51
 360 172 360 172 358 167 c 0,52,53
 354 161 354 161 351 154 c 1,54,-1
 340 156 l 1,55,56
 349 174 349 174 353.5 189 c 128,-1,57
 358 204 358 204 361 218.5 c 128,-1,58
 364 233 364 233 365 250 c 128,-1,59
 366 267 366 267 367 289 c 0,0,1
EndSplineSet
Validated: 33
EndChar

StartChar: period
Encoding: 46 46 17
Width: 158
GlyphClass: 2
Flags: W
LayerCount: 2
Fore
SplineSet
32 20 m 256,0,1
 32 42 32 42 47 57 c 128,-1,2
 62 72 62 72 85 72 c 256,3,4
 108 72 108 72 123 57 c 128,-1,5
 138 42 138 42 138 20 c 256,6,7
 138 -2 138 -2 123 -17 c 128,-1,8
 108 -32 108 -32 85 -32 c 256,9,10
 62 -32 62 -32 47 -17 c 128,-1,11
 32 -2 32 -2 32 20 c 256,0,1
EndSplineSet
Validated: 1
EndChar

StartChar: one
Encoding: 49 49 18
Width: 864
GlyphClass: 2
Flags: W
LayerCount: 2
Fore
SplineSet
567 -258 m 1,0,1
 538 -263 538 -263 506 -264 c 128,-1,2
 474 -265 474 -265 443.5 -262.5 c 128,-1,3
 413 -260 413 -260 386.5 -255.5 c 128,-1,4
 360 -251 360 -251 344 -243 c 0,5,6
 265 -205 265 -205 216.5 -162.5 c 128,-1,7
 168 -120 168 -120 141.5 -74 c 128,-1,8
 115 -28 115 -28 104 21 c 128,-1,9
 93 70 93 70 90 119 c 0,10,11
 86 172 86 172 100 225.5 c 128,-1,12
 114 279 114 279 138 327.5 c 128,-1,13
 162 376 162 376 193 417 c 128,-1,14
 224 458 224 458 256 488 c 0,15,16
 293 523 293 523 333.5 557.5 c 128,-1,17
 374 592 374 592 422 628 c 1,18,19
 421 641 421 641 419.5 651.5 c 128,-1,20
 418 662 418 662 416 672.5 c 128,-1,21
 414 683 414 683 411 696.5 c 128,-1,22
 408 710 408 710 407 729 c 0,23,24
 407 737 407 737 405 759 c 128,-1,25
 403 781 403 781 402.5 812.5 c 128,-1,26
 402 844 402 844 404 884 c 128,-1,27
 406 924 406 924 415 967 c 0,28,29
 420 993 420 993 437 1032 c 128,-1,30
 454 1071 454 1071 477 1108 c 128,-1,31
 500 1145 500 1145 525.5 1171.5 c 128,-1,32
 551 1198 551 1198 573 1198 c 0,33,34
 584 1198 584 1198 597.5 1184 c 128,-1,35
 611 1170 611 1170 624 1147 c 128,-1,36
 637 1124 637 1124 649 1095 c 128,-1,37
 661 1066 661 1066 670.5 1035.5 c 128,-1,38
 680 1005 680 1005 685.5 975 c 128,-1,39
 691 945 691 945 692 923 c 0,40,41
 693 870 693 870 688 829 c 128,-1,42
 683 788 683 788 672.5 756 c 128,-1,43
 662 724 662 724 648.5 697 c 128,-1,44
 635 670 635 670 619 642 c 128,-1,45
 603 614 603 614 586 593 c 128,-1,46
 569 572 569 572 552 551 c 0,47,48
 534 528 534 528 513.5 513.5 c 128,-1,49
 493 499 493 499 474 481 c 1,50,51
 483 429 483 429 490 387 c 0,52,53
 493 369 493 369 496.5 351.5 c 128,-1,54
 500 334 500 334 502 319 c 128,-1,55
 504 304 504 304 506 294.5 c 128,-1,56
 508 285 508 285 508 283 c 1,57,58
 533 286 533 286 559 283.5 c 128,-1,59
 585 281 585 281 609 275.5 c 128,-1,60
 633 270 633 270 652 262 c 128,-1,61
 671 254 671 254 682 247 c 0,62,63
 737 206 737 206 760 153 c 128,-1,64
 783 100 783 100 787 45 c 0,65,66
 790 2 790 2 780 -41.5 c 128,-1,67
 770 -85 770 -85 746 -124.5 c 128,-1,68
 722 -164 722 -164 683.5 -196.5 c 128,-1,69
 645 -229 645 -229 593 -251 c 1,70,71
 599 -293 599 -293 604 -329 c 0,72,73
 609 -360 609 -360 613 -389 c 128,-1,74
 617 -418 617 -418 619 -429 c 0,75,76
 628 -490 628 -490 626.5 -529.5 c 128,-1,77
 625 -569 625 -569 611 -594 c 0,78,79
 600 -614 600 -614 585 -633.5 c 128,-1,80
 570 -653 570 -653 549.5 -668.5 c 128,-1,81
 529 -684 529 -684 502 -694.5 c 128,-1,82
 475 -705 475 -705 440 -707 c 0,83,84
 413 -709 413 -709 376.5 -702 c 128,-1,85
 340 -695 340 -695 306 -678.5 c 128,-1,86
 272 -662 272 -662 247.5 -633 c 128,-1,87
 223 -604 223 -604 220 -562 c 0,88,89
 218 -537 218 -537 223 -512 c 128,-1,90
 228 -487 228 -487 241 -467 c 128,-1,91
 254 -447 254 -447 275 -434 c 128,-1,92
 296 -421 296 -421 327 -419 c 0,93,94
 345 -418 345 -418 364 -424.5 c 128,-1,95
 383 -431 383 -431 399.5 -443.5 c 128,-1,96
 416 -456 416 -456 426 -474.5 c 128,-1,97
 436 -493 436 -493 438 -514 c 0,98,99
 441 -552 441 -552 414.5 -587.5 c 128,-1,100
 388 -623 388 -623 324 -640 c 1,101,102
 334 -654 334 -654 363 -667 c 128,-1,103
 392 -680 392 -680 435 -680 c 0,104,105
 480 -680 480 -680 521.5 -653.5 c 128,-1,106
 563 -627 563 -627 586 -587 c 0,107,108
 600 -560 600 -560 600 -517.5 c 128,-1,109
 600 -475 600 -475 595 -432 c 0,110,111
 593 -425 593 -425 589 -397 c 128,-1,112
 585 -369 585 -369 579 -338 c 0,113,114
 574 -302 574 -302 567 -258 c 1,0,1
589 1039 m 0,115,116
 549 1039 549 1039 518.5 1002 c 128,-1,117
 488 965 488 965 469 907.5 c 128,-1,118
 450 850 450 850 444 781.5 c 128,-1,119
 438 713 438 713 447 649 c 1,120,121
 481 675 481 675 518 711.5 c 128,-1,122
 555 748 555 748 585 788.5 c 128,-1,123
 615 829 615 829 634 871 c 128,-1,124
 653 913 653 913 650 951 c 0,125,126
 649 963 649 963 646 978.5 c 128,-1,127
 643 994 643 994 636 1007.5 c 128,-1,128
 629 1021 629 1021 617.5 1030 c 128,-1,129
 606 1039 606 1039 589 1039 c 0,115,116
587 -216 m 1,130,131
 631 -201 631 -201 655.5 -176.5 c 128,-1,132
 680 -152 680 -152 691.5 -123 c 128,-1,133
 703 -94 703 -94 704.5 -65.5 c 128,-1,134
 706 -37 706 -37 705 -14 c 0,135,136
 703 4 703 4 696.5 31.5 c 128,-1,137
 690 59 690 59 671.5 85 c 128,-1,138
 653 111 653 111 619.5 127.5 c 128,-1,139
 586 144 586 144 529 141 c 1,140,-1
 587 -216 l 1,130,131
503 139 m 1,141,142
 461 137 461 137 433.5 122.5 c 128,-1,143
 406 108 406 108 390.5 87 c 128,-1,144
 375 66 375 66 369 42 c 128,-1,145
 363 18 363 18 364 0 c 256,146,147
 365 -18 365 -18 372.5 -37.5 c 128,-1,148
 380 -57 380 -57 391.5 -74 c 128,-1,149
 403 -91 403 -91 417 -105 c 128,-1,150
 431 -119 431 -119 445 -126 c 1,151,152
 443 -128 443 -128 441.5 -129.5 c 128,-1,153
 440 -131 440 -131 438 -133 c 256,154,155
 436 -135 436 -135 435 -137 c 0,156,157
 403 -122 403 -122 379 -101 c 128,-1,158
 355 -80 355 -80 348 -71 c 0,159,160
 337 -56 337 -56 328.5 -43.5 c 128,-1,161
 320 -31 320 -31 315 -17 c 128,-1,162
 310 -3 310 -3 306.5 13.5 c 128,-1,163
 303 30 303 30 302 52 c 0,164,165
 300 74 300 74 305 98 c 128,-1,166
 310 122 310 122 322 146.5 c 128,-1,167
 334 171 334 171 353 194 c 128,-1,168
 372 217 372 217 397 238 c 0,169,170
 410 248 410 248 421 254 c 128,-1,171
 432 260 432 260 441 264.5 c 128,-1,172
 450 269 450 269 460 271.5 c 128,-1,173
 470 274 470 274 481 278 c 1,174,-1
 450 463 l 1,175,176
 438 456 438 456 410.5 434.5 c 128,-1,177
 383 413 383 413 350 383 c 128,-1,178
 317 353 317 353 285 319 c 128,-1,179
 253 285 253 285 232 253 c 0,180,181
 195 195 195 195 175 145.5 c 128,-1,182
 155 96 155 96 160 39 c 0,183,184
 164 -26 164 -26 199 -81.5 c 128,-1,185
 234 -137 234 -137 289.5 -175 c 128,-1,186
 345 -213 345 -213 415.5 -228 c 128,-1,187
 486 -243 486 -243 562 -224 c 1,188,189
 546 -123 546 -123 532 -43 c 0,190,191
 526 -9 526 -9 521 23.5 c 128,-1,192
 516 56 516 56 511.5 82 c 128,-1,193
 507 108 507 108 506 116 c 2,194,195
 506 116 506 116 503 139 c 1,141,142
EndSplineSet
Validated: 33
EndChar

StartChar: two
Encoding: 50 50 19
Width: 779
GlyphClass: 2
Flags: W
LayerCount: 2
Fore
SplineSet
244 517 m 1,0,-1
 285 517 l 1,1,-1
 285 -518 l 1,2,-1
 244 -518 l 1,3,-1
 244 517 l 1,0,-1
61 -518 m 1,4,-1
 61 517 l 1,5,-1
 184 517 l 1,6,-1
 184 -518 l 1,7,-1
 61 -518 l 1,4,-1
386 227 m 1,8,9
 391 215 391 215 395.5 193.5 c 128,-1,10
 400 172 400 172 411 152 c 128,-1,11
 422 132 422 132 446 117 c 128,-1,12
 470 102 470 102 513 103 c 0,13,14
 538 103 538 103 554.5 115 c 128,-1,15
 571 127 571 127 581.5 144.5 c 128,-1,16
 592 162 592 162 598 183 c 128,-1,17
 604 204 604 204 606.5 224 c 128,-1,18
 609 244 609 244 609 259 c 128,-1,19
 609 274 609 274 609 282 c 0,20,21
 609 311 609 311 604 348 c 128,-1,22
 599 385 599 385 586.5 418 c 128,-1,23
 574 451 574 451 554 474 c 128,-1,24
 534 497 534 497 504 497 c 0,25,26
 464 497 464 497 435.5 486.5 c 128,-1,27
 407 476 407 476 391.5 464.5 c 128,-1,28
 376 453 376 453 374.5 444 c 128,-1,29
 373 435 373 435 388 438 c 0,30,31
 441 448 441 448 461 429 c 128,-1,32
 481 410 481 410 481 369 c 0,33,34
 481 353 481 353 473.5 340.5 c 128,-1,35
 466 328 466 328 454.5 319.5 c 128,-1,36
 443 311 443 311 430.5 307 c 128,-1,37
 418 303 418 303 410 303 c 0,38,39
 390 303 390 303 374 313.5 c 128,-1,40
 358 324 358 324 348 339 c 128,-1,41
 338 354 338 354 333 371.5 c 128,-1,42
 328 389 328 389 330 402 c 0,43,44
 336 446 336 446 362.5 471 c 128,-1,45
 389 496 389 496 423 507.5 c 128,-1,46
 457 519 457 519 493.5 521 c 128,-1,47
 530 523 530 523 557 522 c 0,48,49
 591 520 591 520 622 501.5 c 128,-1,50
 653 483 653 483 677.5 452 c 128,-1,51
 702 421 702 421 716.5 379 c 128,-1,52
 731 337 731 337 731 289 c 0,53,54
 731 244 731 244 719.5 201.5 c 128,-1,55
 708 159 708 159 684.5 125 c 128,-1,56
 661 91 661 91 625 71 c 128,-1,57
 589 51 589 51 541 51 c 0,58,59
 516 51 516 51 497 57 c 128,-1,60
 478 63 478 63 463.5 71.5 c 128,-1,61
 449 80 449 80 440 87 c 128,-1,62
 431 94 431 94 428 96 c 0,63,64
 423 90 423 90 416.5 75 c 128,-1,65
 410 60 410 60 405.5 44 c 128,-1,66
 401 28 401 28 398 15 c 128,-1,67
 395 2 395 2 395 0 c 256,68,69
 395 -2 395 -2 398 -15 c 128,-1,70
 401 -28 401 -28 405.5 -44 c 128,-1,71
 410 -60 410 -60 416 -75 c 128,-1,72
 422 -90 422 -90 428 -96 c 0,73,74
 431 -94 431 -94 440 -87 c 128,-1,75
 449 -80 449 -80 463.5 -71.5 c 128,-1,76
 478 -63 478 -63 497.5 -56.5 c 128,-1,77
 517 -50 517 -50 541 -50 c 0,78,79
 589 -50 589 -50 625 -70.5 c 128,-1,80
 661 -91 661 -91 684.5 -125 c 128,-1,81
 708 -159 708 -159 719.5 -202 c 128,-1,82
 731 -245 731 -245 731 -289 c 0,83,84
 731 -337 731 -337 716.5 -379 c 128,-1,85
 702 -421 702 -421 677.5 -452 c 128,-1,86
 653 -483 653 -483 621.5 -501.5 c 128,-1,87
 590 -520 590 -520 557 -522 c 0,88,89
 530 -523 530 -523 493.5 -521 c 128,-1,90
 457 -519 457 -519 423 -507 c 128,-1,91
 389 -495 389 -495 362.5 -470 c 128,-1,92
 336 -445 336 -445 330 -402 c 0,93,94
 328 -389 328 -389 333 -371.5 c 128,-1,95
 338 -354 338 -354 348 -339 c 128,-1,96
 358 -324 358 -324 374 -313 c 128,-1,97
 390 -302 390 -302 410 -302 c 0,98,99
 418 -302 418 -302 430.5 -306.5 c 128,-1,100
 443 -311 443 -311 454.5 -319.5 c 128,-1,101
 466 -328 466 -328 473.5 -340 c 128,-1,102
 481 -352 481 -352 481 -369 c 0,103,104
 481 -410 481 -410 458 -430 c 128,-1,105
 435 -450 435 -450 388 -438 c 0,106,107
 374 -435 374 -435 376 -444 c 128,-1,108
 378 -453 378 -453 394.5 -464.5 c 128,-1,109
 411 -476 411 -476 439.5 -486.5 c 128,-1,110
 468 -497 468 -497 504 -497 c 0,111,112
 534 -497 534 -497 554 -474 c 128,-1,113
 574 -451 574 -451 586.5 -418 c 128,-1,114
 599 -385 599 -385 604 -347.5 c 128,-1,115
 609 -310 609 -310 609 -282 c 0,116,117
 609 -276 609 -276 609 -260 c 128,-1,118
 609 -244 609 -244 606.5 -224 c 128,-1,119
 604 -204 604 -204 598 -183 c 128,-1,120
 592 -162 592 -162 581.5 -144 c 128,-1,121
 571 -126 571 -126 554 -114.5 c 128,-1,122
 537 -103 537 -103 513 -103 c 0,123,124
 468 -103 468 -103 445 -117.5 c 128,-1,125
 422 -132 422 -132 411.5 -152 c 128,-1,126
 401 -172 401 -172 396 -193 c 128,-1,127
 391 -214 391 -214 382 -225 c 1,128,129
 384 -177 384 -177 371.5 -136.5 c 128,-1,130
 359 -96 359 -96 345 -66 c 0,131,132
 328 -31 328 -31 305 0 c 1,133,134
 329 30 329 30 347 66 c 0,135,136
 362 97 362 97 374.5 137.5 c 128,-1,137
 387 178 387 178 386 227 c 1,8,9
EndSplineSet
Validated: 33
EndChar

StartChar: three
Encoding: 51 51 20
Width: 815
GlyphClass: 2
Flags: W
LayerCount: 2
Fore
SplineSet
556 -268 m 0,0,1
 547 -285 547 -285 538 -299.5 c 128,-1,2
 529 -314 529 -314 520 -327.5 c 128,-1,3
 511 -341 511 -341 501 -354 c 128,-1,4
 491 -367 491 -367 477 -382 c 0,5,6
 464 -397 464 -397 452 -409.5 c 128,-1,7
 440 -422 440 -422 428.5 -433 c 128,-1,8
 417 -444 417 -444 403.5 -455 c 128,-1,9
 390 -466 390 -466 374 -478 c 0,10,11
 354 -493 354 -493 335.5 -504.5 c 128,-1,12
 317 -516 317 -516 299.5 -525.5 c 128,-1,13
 282 -535 282 -535 262.5 -542.5 c 128,-1,14
 243 -550 243 -550 219 -559 c 256,15,16
 195 -568 195 -568 167 -576 c 128,-1,17
 139 -584 139 -584 114 -589 c 0,18,19
 84 -595 84 -595 54 -600 c 1,20,-1
 47 -585 l 1,21,22
 95 -569 95 -569 143 -547 c 0,23,24
 183 -529 183 -529 227.5 -502.5 c 128,-1,25
 272 -476 272 -476 305 -442 c 0,26,27
 388 -354 388 -354 431 -248 c 128,-1,28
 474 -142 474 -142 472 -7 c 0,29,30
 472 24 472 24 465.5 63.5 c 128,-1,31
 459 103 459 103 442 139 c 128,-1,32
 425 175 425 175 395 200.5 c 128,-1,33
 365 226 365 226 316 226 c 0,34,35
 288 226 288 226 257 215 c 128,-1,36
 226 204 226 204 200.5 185 c 128,-1,37
 175 166 175 166 158.5 140 c 128,-1,38
 142 114 142 114 145 84 c 0,39,40
 146 80 146 80 152 81.5 c 128,-1,41
 158 83 158 83 168.5 86 c 128,-1,42
 179 89 179 89 195 92 c 128,-1,43
 211 95 211 95 232 94 c 0,44,45
 255 93 255 93 271.5 80.5 c 128,-1,46
 288 68 288 68 298 48.5 c 128,-1,47
 308 29 308 29 311 6 c 128,-1,48
 314 -17 314 -17 309 -39 c 0,49,50
 301 -73 301 -73 279 -93 c 128,-1,51
 257 -113 257 -113 218 -113 c 0,52,53
 193 -113 193 -113 170 -104 c 128,-1,54
 147 -95 147 -95 130 -79 c 128,-1,55
 113 -63 113 -63 102 -40 c 128,-1,56
 91 -17 91 -17 91 12 c 0,57,58
 90 56 90 56 101 90 c 128,-1,59
 112 124 112 124 127.5 148.5 c 128,-1,60
 143 173 143 173 161 189 c 128,-1,61
 179 205 179 205 195 214 c 0,62,63
 233 238 233 238 271.5 246.5 c 128,-1,64
 310 255 310 255 345 256 c 0,65,66
 384 256 384 256 423.5 243 c 128,-1,67
 463 230 463 230 497.5 206 c 128,-1,68
 532 182 532 182 560 149 c 128,-1,69
 588 116 588 116 602 75 c 0,70,71
 619 29 619 29 620 -23 c 128,-1,72
 621 -75 621 -75 607 -135 c 0,73,74
 603 -155 603 -155 598 -171.5 c 128,-1,75
 593 -188 593 -188 587 -203.5 c 128,-1,76
 581 -219 581 -219 573 -234.5 c 128,-1,77
 565 -250 565 -250 556 -268 c 0,0,1
659 126 m 0,78,79
 658 150 658 150 674.5 165.5 c 128,-1,80
 691 181 691 181 715 181 c 0,81,82
 739 182 739 182 755.5 167 c 128,-1,83
 772 152 772 152 772 128 c 0,84,85
 773 104 773 104 756.5 87.5 c 128,-1,86
 740 71 740 71 717 71 c 0,87,88
 693 70 693 70 676 86 c 128,-1,89
 659 102 659 102 659 126 c 0,78,79
659 -132 m 0,90,91
 659 -108 659 -108 675.5 -93 c 128,-1,92
 692 -78 692 -78 716 -77 c 0,93,94
 740 -77 740 -77 756.5 -91.5 c 128,-1,95
 773 -106 773 -106 773 -130 c 0,96,97
 774 -154 774 -154 757.5 -170.5 c 128,-1,98
 741 -187 741 -187 718 -187 c 0,99,100
 694 -188 694 -188 677 -172 c 128,-1,101
 660 -156 660 -156 659 -132 c 0,90,91
EndSplineSet
Validated: 33
EndChar

StartChar: six
Encoding: 54 54 21
Width: 730
GlyphClass: 2
Flags: W
LayerCount: 2
Fore
SplineSet
308 260 m 0,0,1
 259 261 259 261 231.5 285 c 128,-1,2
 204 309 204 309 204 339 c 0,3,4
 204 371 204 371 222.5 390 c 128,-1,5
 241 409 241 409 261 419 c 1,6,7
 245 427 245 427 230 443.5 c 128,-1,8
 215 460 215 460 215 483 c 0,9,10
 216 522 216 522 243.5 546.5 c 128,-1,11
 271 571 271 571 310 570 c 0,12,13
 326 570 326 570 342.5 564 c 128,-1,14
 359 558 359 558 371.5 547.5 c 128,-1,15
 384 537 384 537 391 522.5 c 128,-1,16
 398 508 398 508 398 489 c 0,17,18
 398 472 398 472 385.5 454 c 128,-1,19
 373 436 373 436 358 428 c 1,20,21
 366 423 366 423 375.5 415.5 c 128,-1,22
 385 408 385 408 392.5 397.5 c 128,-1,23
 400 387 400 387 405.5 374 c 128,-1,24
 411 361 411 361 411 346 c 0,25,26
 411 328 411 328 401.5 312 c 128,-1,27
 392 296 392 296 378 284 c 128,-1,28
 364 272 364 272 345.5 266 c 128,-1,29
 327 260 327 260 308 260 c 0,0,1
310 551 m 0,30,31
 286 552 286 552 272.5 538 c 128,-1,32
 259 524 259 524 258 504 c 0,33,34
 258 487 258 487 270 476.5 c 128,-1,35
 282 466 282 466 296 459 c 0,36,37
 303 455 303 455 309 454 c 2,38,-1
 336 442 l 1,39,40
 350 449 350 449 358 463 c 128,-1,41
 366 477 366 477 366 492 c 0,42,43
 366 515 366 515 350 533 c 128,-1,44
 334 551 334 551 310 551 c 0,30,31
287 403 m 1,45,46
 269 399 269 399 256.5 381.5 c 128,-1,47
 244 364 244 364 244 343 c 0,48,49
 244 331 244 331 249 319.5 c 128,-1,50
 254 308 254 308 262.5 299.5 c 128,-1,51
 271 291 271 291 283 286 c 128,-1,52
 295 281 295 281 308 281 c 0,53,54
 338 280 338 280 350 296.5 c 128,-1,55
 362 313 362 313 362 334 c 0,56,57
 363 357 363 357 347.5 369.5 c 128,-1,58
 332 382 332 382 312 391 c 2,59,-1
 287 403 l 1,45,46
542 -205 m 0,60,61
 527 -241 527 -241 515.5 -264 c 128,-1,62
 504 -287 504 -287 488.5 -309.5 c 128,-1,63
 473 -332 473 -332 450 -360 c 128,-1,64
 427 -388 427 -388 388 -433 c 0,65,66
 376 -447 376 -447 352.5 -465 c 128,-1,67
 329 -483 329 -483 300 -500.5 c 128,-1,68
 271 -518 271 -518 239 -533.5 c 128,-1,69
 207 -549 207 -549 177 -559 c 0,70,71
 148 -569 148 -569 119 -576.5 c 128,-1,72
 90 -584 90 -584 67 -589 c 0,73,74
 39 -595 39 -595 12 -600 c 1,75,-1
 5 -585 l 1,76,77
 53 -569 53 -569 101 -547 c 0,78,79
 141 -529 141 -529 185.5 -502.5 c 128,-1,80
 230 -476 230 -476 263 -442 c 0,81,82
 346 -354 346 -354 389 -248 c 128,-1,83
 432 -142 432 -142 430 -7 c 0,84,85
 430 24 430 24 423.5 63.5 c 128,-1,86
 417 103 417 103 400 139 c 128,-1,87
 383 175 383 175 353 200.5 c 128,-1,88
 323 226 323 226 274 226 c 0,89,90
 246 226 246 226 215 215 c 128,-1,91
 184 204 184 204 158.5 185 c 128,-1,92
 133 166 133 166 116.5 140 c 128,-1,93
 100 114 100 114 103 84 c 0,94,95
 104 80 104 80 110 81.5 c 128,-1,96
 116 83 116 83 126.5 86 c 128,-1,97
 137 89 137 89 153 92 c 128,-1,98
 169 95 169 95 190 94 c 0,99,100
 213 93 213 93 229.5 80.5 c 128,-1,101
 246 68 246 68 256 48.5 c 128,-1,102
 266 29 266 29 269 6 c 128,-1,103
 272 -17 272 -17 267 -39 c 0,104,105
 259 -73 259 -73 237 -93 c 128,-1,106
 215 -113 215 -113 176 -113 c 0,107,108
 151 -113 151 -113 128 -104 c 128,-1,109
 105 -95 105 -95 88 -79 c 128,-1,110
 71 -63 71 -63 60 -40 c 128,-1,111
 49 -17 49 -17 49 12 c 0,112,113
 48 56 48 56 59 90 c 128,-1,114
 70 124 70 124 85.5 148.5 c 128,-1,115
 101 173 101 173 119 189 c 128,-1,116
 137 205 137 205 153 214 c 0,117,118
 191 238 191 238 229.5 246.5 c 128,-1,119
 268 255 268 255 303 256 c 0,120,121
 342 256 342 256 381.5 243 c 128,-1,122
 421 230 421 230 455.5 206 c 128,-1,123
 490 182 490 182 518 149 c 128,-1,124
 546 116 546 116 560 75 c 0,125,126
 572 41 572 41 575.5 2.5 c 128,-1,127
 579 -36 579 -36 574.5 -74 c 128,-1,128
 570 -112 570 -112 561.5 -146 c 128,-1,129
 553 -180 553 -180 542 -205 c 0,60,61
617 126 m 0,130,131
 616 150 616 150 632.5 165.5 c 128,-1,132
 649 181 649 181 673 181 c 0,133,134
 697 182 697 182 713.5 167 c 128,-1,135
 730 152 730 152 730 128 c 0,136,137
 731 104 731 104 714.5 87.5 c 128,-1,138
 698 71 698 71 675 71 c 0,139,140
 651 70 651 70 634 86 c 128,-1,141
 617 102 617 102 617 126 c 0,130,131
617 -132 m 0,142,143
 617 -108 617 -108 633.5 -93 c 128,-1,144
 650 -78 650 -78 674 -77 c 0,145,146
 698 -77 698 -77 714.5 -91.5 c 128,-1,147
 731 -106 731 -106 731 -130 c 0,148,149
 732 -154 732 -154 715.5 -170.5 c 128,-1,150
 699 -187 699 -187 676 -187 c 0,151,152
 652 -188 652 -188 635 -172 c 128,-1,153
 618 -156 618 -156 617 -132 c 0,142,143
EndSplineSet
Validated: 33
EndChar

StartChar: seven
Encoding: 55 55 22
Width: 737
GlyphClass: 2
Flags: W
LayerCount: 2
Fore
SplineSet
296 -938 m 0,0,1
 247 -937 247 -937 219 -913.5 c 128,-1,2
 191 -890 191 -890 191 -860 c 0,3,4
 191 -828 191 -828 209.5 -809.5 c 128,-1,5
 228 -791 228 -791 249 -781 c 1,6,7
 233 -772 233 -772 217.5 -755.5 c 128,-1,8
 202 -739 202 -739 202 -716 c 0,9,10
 203 -677 203 -677 231 -652.5 c 128,-1,11
 259 -628 259 -628 298 -629 c 0,12,13
 314 -629 314 -629 330 -635 c 128,-1,14
 346 -641 346 -641 359 -652 c 128,-1,15
 372 -663 372 -663 379 -677.5 c 128,-1,16
 386 -692 386 -692 386 -711 c 0,17,18
 386 -728 386 -728 372.5 -745.5 c 128,-1,19
 359 -763 359 -763 345 -771 c 1,20,21
 361 -782 361 -782 379 -802 c 128,-1,22
 397 -822 397 -822 397 -853 c 0,23,24
 397 -871 397 -871 388 -887 c 128,-1,25
 379 -903 379 -903 365 -914.5 c 128,-1,26
 351 -926 351 -926 332.5 -932 c 128,-1,27
 314 -938 314 -938 296 -938 c 0,0,1
298 -648 m 0,28,29
 273 -647 273 -647 260 -661.5 c 128,-1,30
 247 -676 247 -676 246 -695 c 0,31,32
 246 -712 246 -712 257 -722.5 c 128,-1,33
 268 -733 268 -733 283 -740 c 0,34,35
 293 -744 293 -744 296 -746 c 2,36,-1
 323 -757 l 1,37,38
 338 -751 338 -751 345 -736.5 c 128,-1,39
 352 -722 352 -722 352 -708 c 0,40,41
 353 -686 353 -686 337 -667.5 c 128,-1,42
 321 -649 321 -649 298 -648 c 0,28,29
274 -796 m 1,43,44
 255 -800 255 -800 242.5 -818.5 c 128,-1,45
 230 -837 230 -837 230 -857 c 0,46,47
 229 -881 229 -881 249 -900.5 c 128,-1,48
 269 -920 269 -920 296 -920 c 0,49,50
 325 -921 325 -921 337 -903.5 c 128,-1,51
 349 -886 349 -886 349 -866 c 0,52,53
 350 -842 350 -842 335.5 -829.5 c 128,-1,54
 321 -817 321 -817 300 -808 c 2,55,-1
 274 -796 l 1,43,44
542 -205 m 0,56,57
 527 -241 527 -241 515.5 -264 c 128,-1,58
 504 -287 504 -287 488.5 -309.5 c 128,-1,59
 473 -332 473 -332 450 -360 c 128,-1,60
 427 -388 427 -388 388 -433 c 0,61,62
 376 -447 376 -447 352.5 -465 c 128,-1,63
 329 -483 329 -483 300 -500.5 c 128,-1,64
 271 -518 271 -518 239 -533.5 c 128,-1,65
 207 -549 207 -549 177 -559 c 0,66,67
 148 -569 148 -569 119 -576.5 c 128,-1,68
 90 -584 90 -584 67 -589 c 0,69,70
 39 -595 39 -595 12 -600 c 1,71,-1
 5 -585 l 1,72,73
 53 -569 53 -569 101 -547 c 0,74,75
 141 -529 141 -529 185.5 -502.5 c 128,-1,76
 230 -476 230 -476 263 -442 c 0,77,78
 346 -354 346 -354 389 -248 c 128,-1,79
 432 -142 432 -142 430 -7 c 0,80,81
 430 24 430 24 423.5 63.5 c 128,-1,82
 417 103 417 103 400 139 c 128,-1,83
 383 175 383 175 353 200.5 c 128,-1,84
 323 226 323 226 274 226 c 0,85,86
 246 226 246 226 215 215 c 128,-1,87
 184 204 184 204 158.5 185 c 128,-1,88
 133 166 133 166 116.5 140 c 128,-1,89
 100 114 100 114 103 84 c 0,90,91
 104 80 104 80 110 81.5 c 128,-1,92
 116 83 116 83 126.5 86 c 128,-1,93
 137 89 137 89 153 92 c 128,-1,94
 169 95 169 95 190 94 c 0,95,96
 213 93 213 93 229.5 80.5 c 128,-1,97
 246 68 246 68 256 48.5 c 128,-1,98
 266 29 266 29 269 6 c 128,-1,99
 272 -17 272 -17 267 -39 c 0,100,101
 259 -73 259 -73 237 -93 c 128,-1,102
 215 -113 215 -113 176 -113 c 0,103,104
 151 -113 151 -113 128 -104 c 128,-1,105
 105 -95 105 -95 88 -79 c 128,-1,106
 71 -63 71 -63 60 -40 c 128,-1,107
 49 -17 49 -17 49 12 c 0,108,109
 48 56 48 56 59 90 c 128,-1,110
 70 124 70 124 85.5 148.5 c 128,-1,111
 101 173 101 173 119 189 c 128,-1,112
 137 205 137 205 153 214 c 0,113,114
 191 238 191 238 229.5 246.5 c 128,-1,115
 268 255 268 255 303 256 c 0,116,117
 342 256 342 256 381.5 243 c 128,-1,118
 421 230 421 230 455.5 206 c 128,-1,119
 490 182 490 182 518 149 c 128,-1,120
 546 116 546 116 560 75 c 0,121,122
 572 41 572 41 575.5 2.5 c 128,-1,123
 579 -36 579 -36 574.5 -74 c 128,-1,124
 570 -112 570 -112 561.5 -146 c 128,-1,125
 553 -180 553 -180 542 -205 c 0,56,57
617 126 m 0,126,127
 616 150 616 150 632.5 165.5 c 128,-1,128
 649 181 649 181 673 181 c 0,129,130
 697 182 697 182 713.5 167 c 128,-1,131
 730 152 730 152 730 128 c 0,132,133
 731 104 731 104 714.5 87.5 c 128,-1,134
 698 71 698 71 675 71 c 0,135,136
 651 70 651 70 634 86 c 128,-1,137
 617 102 617 102 617 126 c 0,126,127
617 -132 m 0,138,139
 617 -108 617 -108 633.5 -93 c 128,-1,140
 650 -78 650 -78 674 -77 c 0,141,142
 698 -77 698 -77 714.5 -91.5 c 128,-1,143
 731 -106 731 -106 731 -130 c 0,144,145
 732 -154 732 -154 715.5 -170.5 c 128,-1,146
 699 -187 699 -187 676 -187 c 0,147,148
 652 -188 652 -188 635 -172 c 128,-1,149
 618 -156 618 -156 617 -132 c 0,138,139
EndSplineSet
Validated: 33
EndChar

StartChar: eight
Encoding: 56 56 23
Width: 698
GlyphClass: 2
Flags: W
LayerCount: 2
Fore
SplineSet
560 950 m 0,0,1
 559 962 559 962 556 977.5 c 128,-1,2
 553 993 553 993 546 1007 c 128,-1,3
 539 1021 539 1021 527 1030 c 128,-1,4
 515 1039 515 1039 499 1039 c 0,5,6
 459 1039 459 1039 428.5 1002 c 128,-1,7
 398 965 398 965 379 907.5 c 128,-1,8
 360 850 360 850 354 781 c 128,-1,9
 348 712 348 712 357 648 c 1,10,11
 390 675 390 675 427 711.5 c 128,-1,12
 464 748 464 748 494.5 788 c 128,-1,13
 525 828 525 828 544 870 c 128,-1,14
 563 912 563 912 560 950 c 0,0,1
615 -15 m 0,15,16
 613 4 613 4 606.5 31.5 c 128,-1,17
 600 59 600 59 581.5 84.5 c 128,-1,18
 563 110 563 110 529 126.5 c 128,-1,19
 495 143 495 143 438 140 c 1,20,-1
 497 -216 l 1,21,22
 541 -202 541 -202 565.5 -177 c 128,-1,23
 590 -152 590 -152 601.5 -123.5 c 128,-1,24
 613 -95 613 -95 614.5 -66.5 c 128,-1,25
 616 -38 616 -38 615 -15 c 0,15,16
471 -224 m 1,26,27
 471 -224 471 -224 467 -197 c 256,28,29
 463 -170 463 -170 456.5 -130 c 128,-1,30
 450 -90 450 -90 441.5 -42.5 c 128,-1,31
 433 5 433 5 426.5 45 c 128,-1,32
 420 85 420 85 416 112 c 2,33,-1
 412 139 l 1,34,35
 370 137 370 137 342.5 122.5 c 128,-1,36
 315 108 315 108 300 87 c 128,-1,37
 285 66 285 66 278.5 42 c 128,-1,38
 272 18 272 18 273 0 c 256,39,40
 274 -18 274 -18 282 -37.5 c 128,-1,41
 290 -57 290 -57 301 -74 c 128,-1,42
 312 -91 312 -91 326 -105 c 128,-1,43
 340 -119 340 -119 354 -126 c 1,44,45
 352 -128 352 -128 351 -129.5 c 128,-1,46
 350 -131 350 -131 348 -133 c 256,47,48
 346 -135 346 -135 345 -137 c 0,49,50
 312 -122 312 -122 288 -101.5 c 128,-1,51
 264 -81 264 -81 257 -71 c 0,52,53
 246 -57 246 -57 238 -44 c 128,-1,54
 230 -31 230 -31 225 -17 c 128,-1,55
 220 -3 220 -3 216.5 13.5 c 128,-1,56
 213 30 213 30 211 52 c 128,-1,57
 209 74 209 74 214.5 98 c 128,-1,58
 220 122 220 122 232 146.5 c 128,-1,59
 244 171 244 171 263 194 c 128,-1,60
 282 217 282 217 307 238 c 0,61,62
 320 248 320 248 330.5 254 c 128,-1,63
 341 260 341 260 350.5 264 c 128,-1,64
 360 268 360 268 369.5 271 c 128,-1,65
 379 274 379 274 390 278 c 1,66,-1
 359 463 l 1,67,68
 348 456 348 456 320.5 434.5 c 128,-1,69
 293 413 293 413 260 383 c 128,-1,70
 227 353 227 353 195 319 c 128,-1,71
 163 285 163 285 142 253 c 0,72,73
 105 195 105 195 85 145 c 128,-1,74
 65 95 65 95 69 39 c 0,75,76
 74 -26 74 -26 108.5 -81.5 c 128,-1,77
 143 -137 143 -137 198.5 -175 c 128,-1,78
 254 -213 254 -213 324.5 -227.5 c 128,-1,79
 395 -242 395 -242 471 -224 c 1,26,27
346 -1002 m 0,80,81
 297 -1001 297 -1001 269.5 -977 c 128,-1,82
 242 -953 242 -953 242 -924 c 0,83,84
 241 -892 241 -892 260.5 -873 c 128,-1,85
 280 -854 280 -854 300 -844 c 1,86,87
 283 -836 283 -836 268 -819.5 c 128,-1,88
 253 -803 253 -803 253 -779 c 0,89,90
 254 -753 254 -753 266.5 -734 c 128,-1,91
 279 -715 279 -715 299 -703 c 1,92,93
 271 -700 271 -700 242 -690.5 c 128,-1,94
 213 -681 213 -681 188.5 -664 c 128,-1,95
 164 -647 164 -647 147.5 -622 c 128,-1,96
 131 -597 131 -597 129 -562 c 0,97,98
 127 -537 127 -537 132 -512.5 c 128,-1,99
 137 -488 137 -488 150.5 -467.5 c 128,-1,100
 164 -447 164 -447 185 -434 c 128,-1,101
 206 -421 206 -421 237 -419 c 0,102,103
 255 -418 255 -418 274 -424.5 c 128,-1,104
 293 -431 293 -431 309 -443.5 c 128,-1,105
 325 -456 325 -456 335.5 -474.5 c 128,-1,106
 346 -493 346 -493 348 -514 c 0,107,108
 351 -552 351 -552 324.5 -587.5 c 128,-1,109
 298 -623 298 -623 234 -640 c 1,110,111
 243 -654 243 -654 272.5 -667.5 c 128,-1,112
 302 -681 302 -681 345 -681 c 0,113,114
 368 -681 368 -681 390 -673.5 c 128,-1,115
 412 -666 412 -666 432 -653.5 c 128,-1,116
 452 -641 452 -641 467.5 -624 c 128,-1,117
 483 -607 483 -607 495 -587 c 0,118,119
 509 -561 509 -561 509 -518 c 128,-1,120
 509 -475 509 -475 504 -432 c 0,121,122
 503 -425 503 -425 498.5 -397 c 128,-1,123
 494 -369 494 -369 489 -338 c 128,-1,124
 484 -307 484 -307 480 -282 c 2,125,-1
 477 -258 l 1,126,127
 448 -263 448 -263 416 -264 c 128,-1,128
 384 -265 384 -265 353.5 -263 c 128,-1,129
 323 -261 323 -261 296.5 -256 c 128,-1,130
 270 -251 270 -251 254 -243 c 0,131,132
 175 -206 175 -206 126.5 -163.5 c 128,-1,133
 78 -121 78 -121 51.5 -75 c 128,-1,134
 25 -29 25 -29 14 20 c 128,-1,135
 3 69 3 69 0 118 c 0,136,137
 -4 171 -4 171 9.5 225 c 128,-1,138
 23 279 23 279 47 327 c 128,-1,139
 71 375 71 375 102 416.5 c 128,-1,140
 133 458 133 458 166 488 c 0,141,142
 203 523 203 523 243 557 c 128,-1,143
 283 591 283 591 332 628 c 1,144,145
 331 641 331 641 329.5 651.5 c 128,-1,146
 328 662 328 662 326 672.5 c 128,-1,147
 324 683 324 683 321 696.5 c 128,-1,148
 318 710 318 710 317 729 c 0,149,150
 317 737 317 737 315 759 c 128,-1,151
 313 781 313 781 312.5 812.5 c 128,-1,152
 312 844 312 844 314 883.5 c 128,-1,153
 316 923 316 923 325 966 c 0,154,155
 330 992 330 992 347 1031 c 128,-1,156
 364 1070 364 1070 387 1107 c 128,-1,157
 410 1144 410 1144 435.5 1170.5 c 128,-1,158
 461 1197 461 1197 483 1197 c 0,159,160
 500 1197 500 1197 520.5 1167.5 c 128,-1,161
 541 1138 541 1138 559 1095.5 c 128,-1,162
 577 1053 577 1053 588.5 1005 c 128,-1,163
 600 957 600 957 601 923 c 0,164,165
 602 870 602 870 597 829 c 128,-1,166
 592 788 592 788 582 756 c 128,-1,167
 572 724 572 724 558.5 697 c 128,-1,168
 545 670 545 670 528 642 c 0,169,170
 512 614 512 614 495.5 593 c 128,-1,171
 479 572 479 572 461 550 c 0,172,173
 444 528 444 528 423.5 513.5 c 128,-1,174
 403 499 403 499 384 481 c 1,175,176
 393 429 393 429 400 387 c 0,177,178
 403 369 403 369 406 351.5 c 128,-1,179
 409 334 409 334 411.5 319 c 128,-1,180
 414 304 414 304 415.5 294.5 c 128,-1,181
 417 285 417 285 417 282 c 1,182,183
 442 285 442 285 468.5 283 c 128,-1,184
 495 281 495 281 519 275 c 128,-1,185
 543 269 543 269 562 261.5 c 128,-1,186
 581 254 581 254 592 246 c 0,187,188
 646 206 646 206 669.5 152.5 c 128,-1,189
 693 99 693 99 697 45 c 0,190,191
 700 2 700 2 690 -41.5 c 128,-1,192
 680 -85 680 -85 655.5 -124.5 c 128,-1,193
 631 -164 631 -164 592.5 -196.5 c 128,-1,194
 554 -229 554 -229 502 -251 c 1,195,196
 508 -293 508 -293 513 -329 c 0,197,198
 518 -360 518 -360 522 -389 c 128,-1,199
 526 -418 526 -418 528 -429 c 0,200,201
 537 -490 537 -490 536 -529.5 c 128,-1,202
 535 -569 535 -569 521 -594 c 0,203,204
 504 -625 504 -625 478.5 -652 c 128,-1,205
 453 -679 453 -679 413 -694 c 1,206,-1
 378 -697 l 1,207,208
 403 -705 403 -705 420 -725 c 128,-1,209
 437 -745 437 -745 436 -773 c 0,210,211
 436 -791 436 -791 423.5 -808.5 c 128,-1,212
 411 -826 411 -826 396 -835 c 1,213,214
 404 -840 404 -840 413.5 -847.5 c 128,-1,215
 423 -855 423 -855 430.5 -865.5 c 128,-1,216
 438 -876 438 -876 443.5 -888.5 c 128,-1,217
 449 -901 449 -901 449 -916 c 0,218,219
 449 -934 449 -934 439.5 -950.5 c 128,-1,220
 430 -967 430 -967 415.5 -978.5 c 128,-1,221
 401 -990 401 -990 383 -996 c 128,-1,222
 365 -1002 365 -1002 346 -1002 c 0,80,81
348 -712 m 256,223,224
 324 -711 324 -711 310.5 -724.5 c 128,-1,225
 297 -738 297 -738 296 -759 c 0,226,227
 296 -776 296 -776 307.5 -786.5 c 128,-1,228
 319 -797 319 -797 334 -804 c 0,229,230
 338 -806 338 -806 341 -807 c 128,-1,231
 344 -808 344 -808 347 -809 c 2,232,-1
 374 -820 l 1,233,234
 388 -813 388 -813 395.5 -799 c 128,-1,235
 403 -785 403 -785 403 -771 c 0,236,237
 403 -749 403 -749 387.5 -731 c 128,-1,238
 372 -713 372 -713 348 -712 c 256,223,224
325 -859 m 1,239,240
 307 -863 307 -863 294.5 -881 c 128,-1,241
 282 -899 282 -899 282 -920 c 0,242,243
 282 -932 282 -932 287 -943 c 128,-1,244
 292 -954 292 -954 300.5 -963 c 128,-1,245
 309 -972 309 -972 321 -977 c 128,-1,246
 333 -982 333 -982 346 -982 c 0,247,248
 376 -983 376 -983 388 -966 c 128,-1,249
 400 -949 400 -949 400 -929 c 0,250,251
 401 -906 401 -906 386 -893 c 128,-1,252
 371 -880 371 -880 351 -871 c 2,253,-1
 325 -859 l 1,239,240
EndSplineSet
Validated: 33
EndChar

StartChar: nine
Encoding: 57 57 24
Width: 699
GlyphClass: 2
Flags: W
LayerCount: 2
Fore
SplineSet
561 951 m 0,0,1
 560 963 560 963 557 978.5 c 128,-1,2
 554 994 554 994 547 1008 c 128,-1,3
 540 1022 540 1022 528 1030.5 c 128,-1,4
 516 1039 516 1039 500 1039 c 0,5,6
 460 1039 460 1039 429.5 1002 c 128,-1,7
 399 965 399 965 380 907.5 c 128,-1,8
 361 850 361 850 354.5 781.5 c 128,-1,9
 348 713 348 713 357 649 c 1,10,11
 391 675 391 675 428 711.5 c 128,-1,12
 465 748 465 748 495.5 788.5 c 128,-1,13
 526 829 526 829 545 871 c 128,-1,14
 564 913 564 913 561 951 c 0,0,1
615 -14 m 0,15,16
 614 4 614 4 607.5 31.5 c 128,-1,17
 601 59 601 59 582 85 c 128,-1,18
 563 111 563 111 529.5 127.5 c 128,-1,19
 496 144 496 144 439 141 c 1,20,-1
 497 -216 l 1,21,22
 541 -201 541 -201 566 -176.5 c 128,-1,23
 591 -152 591 -152 602 -123 c 128,-1,24
 613 -94 613 -94 614.5 -65.5 c 128,-1,25
 616 -37 616 -37 615 -14 c 0,15,16
472 -224 m 1,26,27
 456 -123 456 -123 442 -43 c 0,28,29
 436 -9 436 -9 431 23.5 c 128,-1,30
 426 56 426 56 421.5 82 c 128,-1,31
 417 108 417 108 415 124 c 2,32,-1
 413 139 l 1,33,34
 371 138 371 138 343.5 123.5 c 128,-1,35
 316 109 316 109 300.5 87.5 c 128,-1,36
 285 66 285 66 279 42 c 128,-1,37
 273 18 273 18 274 0 c 256,38,39
 275 -18 275 -18 282.5 -37.5 c 128,-1,40
 290 -57 290 -57 301.5 -74 c 128,-1,41
 313 -91 313 -91 327 -105 c 128,-1,42
 341 -119 341 -119 355 -126 c 1,43,44
 353 -128 353 -128 352 -129.5 c 128,-1,45
 351 -131 351 -131 349 -133 c 256,46,47
 347 -135 347 -135 346 -137 c 0,48,49
 313 -122 313 -122 289 -101 c 128,-1,50
 265 -80 265 -80 258 -71 c 0,51,52
 247 -56 247 -56 238.5 -43.5 c 128,-1,53
 230 -31 230 -31 225 -17 c 128,-1,54
 220 -3 220 -3 216.5 13.5 c 128,-1,55
 213 30 213 30 212 52 c 0,56,57
 210 74 210 74 215 98 c 128,-1,58
 220 122 220 122 232.5 146.5 c 128,-1,59
 245 171 245 171 263.5 194 c 128,-1,60
 282 217 282 217 308 238 c 0,61,62
 335 258 335 258 352 265 c 128,-1,63
 369 272 369 272 391 278 c 1,64,-1
 360 463 l 1,65,66
 348 456 348 456 320.5 434.5 c 128,-1,67
 293 413 293 413 260 383.5 c 128,-1,68
 227 354 227 354 195 320 c 128,-1,69
 163 286 163 286 142 253 c 0,70,71
 105 195 105 195 85.5 145.5 c 128,-1,72
 66 96 66 96 70 39 c 0,73,74
 74 -26 74 -26 109 -81.5 c 128,-1,75
 144 -137 144 -137 199.5 -175 c 128,-1,76
 255 -213 255 -213 325.5 -227.5 c 128,-1,77
 396 -242 396 -242 472 -224 c 1,26,27
454 1186 m 1,78,79
 418 1194 418 1194 398 1214.5 c 128,-1,80
 378 1235 378 1235 378 1260 c 0,81,82
 377 1292 377 1292 396.5 1310.5 c 128,-1,83
 416 1329 416 1329 436 1339 c 1,84,85
 419 1347 419 1347 403.5 1363.5 c 128,-1,86
 388 1380 388 1380 389 1404 c 0,87,88
 390 1444 390 1444 417.5 1468 c 128,-1,89
 445 1492 445 1492 484 1491 c 0,90,91
 500 1491 500 1491 517 1485 c 128,-1,92
 534 1479 534 1479 546.5 1468 c 128,-1,93
 559 1457 559 1457 566 1442.5 c 128,-1,94
 573 1428 573 1428 573 1410 c 0,95,96
 573 1393 573 1393 560 1375.5 c 128,-1,97
 547 1358 547 1358 532 1349 c 1,98,99
 540 1344 540 1344 549.5 1336 c 128,-1,100
 559 1328 559 1328 566.5 1318 c 128,-1,101
 574 1308 574 1308 579.5 1295 c 128,-1,102
 585 1282 585 1282 585 1267 c 0,103,104
 584 1236 584 1236 561.5 1214 c 128,-1,105
 539 1192 539 1192 508 1185 c 1,106,107
 524 1170 524 1170 540.5 1137.5 c 128,-1,108
 557 1105 557 1105 570.5 1067 c 128,-1,109
 584 1029 584 1029 592.5 990.5 c 128,-1,110
 601 952 601 952 602 924 c 0,111,112
 603 870 603 870 598 830 c 128,-1,113
 593 790 593 790 582.5 757 c 128,-1,114
 572 724 572 724 558.5 697 c 128,-1,115
 545 670 545 670 529 642 c 128,-1,116
 513 614 513 614 496 593 c 128,-1,117
 479 572 479 572 462 551 c 0,118,119
 445 528 445 528 424.5 513.5 c 128,-1,120
 404 499 404 499 384 481 c 1,121,122
 393 429 393 429 400 387 c 0,123,124
 403 369 403 369 406.5 351.5 c 128,-1,125
 410 334 410 334 412 319 c 128,-1,126
 414 304 414 304 416 294.5 c 128,-1,127
 418 285 418 285 418 283 c 1,128,129
 443 286 443 286 469 283.5 c 128,-1,130
 495 281 495 281 519 275.5 c 128,-1,131
 543 270 543 270 562 262 c 128,-1,132
 581 254 581 254 592 247 c 0,133,134
 647 206 647 206 670.5 153 c 128,-1,135
 694 100 694 100 698 45 c 0,136,137
 701 2 701 2 691 -41.5 c 128,-1,138
 681 -85 681 -85 656.5 -124 c 128,-1,139
 632 -163 632 -163 593.5 -196 c 128,-1,140
 555 -229 555 -229 503 -251 c 1,141,142
 509 -293 509 -293 514 -329 c 0,143,144
 519 -360 519 -360 523 -389 c 128,-1,145
 527 -418 527 -418 529 -429 c 0,146,147
 538 -490 538 -490 537 -529.5 c 128,-1,148
 536 -569 536 -569 521 -594 c 0,149,150
 510 -614 510 -614 495 -633.5 c 128,-1,151
 480 -653 480 -653 459.5 -668.5 c 128,-1,152
 439 -684 439 -684 412 -694.5 c 128,-1,153
 385 -705 385 -705 350 -707 c 0,154,155
 323 -709 323 -709 286.5 -702 c 128,-1,156
 250 -695 250 -695 216 -678.5 c 128,-1,157
 182 -662 182 -662 157.5 -633 c 128,-1,158
 133 -604 133 -604 130 -562 c 0,159,160
 128 -537 128 -537 133 -512 c 128,-1,161
 138 -487 138 -487 151 -467 c 128,-1,162
 164 -447 164 -447 185 -434 c 128,-1,163
 206 -421 206 -421 237 -419 c 0,164,165
 255 -418 255 -418 274.5 -424.5 c 128,-1,166
 294 -431 294 -431 310 -443.5 c 128,-1,167
 326 -456 326 -456 336.5 -474.5 c 128,-1,168
 347 -493 347 -493 349 -514 c 0,169,170
 351 -552 351 -552 324.5 -587.5 c 128,-1,171
 298 -623 298 -623 236 -640 c 1,172,173
 245 -654 245 -654 274 -667 c 128,-1,174
 303 -680 303 -680 346 -680 c 0,175,176
 391 -680 391 -680 432 -653.5 c 128,-1,177
 473 -627 473 -627 496 -586 c 0,178,179
 510 -560 510 -560 510 -517.5 c 128,-1,180
 510 -475 510 -475 505 -432 c 0,181,182
 504 -425 504 -425 500 -397 c 128,-1,183
 496 -369 496 -369 490 -338 c 0,184,185
 484 -302 484 -302 477 -258 c 1,186,187
 448 -263 448 -263 416 -264 c 128,-1,188
 384 -265 384 -265 353.5 -262.5 c 128,-1,189
 323 -260 323 -260 296.5 -255.5 c 128,-1,190
 270 -251 270 -251 254 -243 c 0,191,192
 175 -205 175 -205 126.5 -162.5 c 128,-1,193
 78 -120 78 -120 51.5 -74 c 128,-1,194
 25 -28 25 -28 14 21 c 128,-1,195
 3 70 3 70 0 119 c 0,196,197
 -4 172 -4 172 10 225.5 c 128,-1,198
 24 279 24 279 48 327.5 c 128,-1,199
 72 376 72 376 103 417 c 128,-1,200
 134 458 134 458 166 488 c 0,201,202
 203 523 203 523 243.5 557.5 c 128,-1,203
 284 592 284 592 333 629 c 1,204,205
 332 642 332 642 330 652 c 128,-1,206
 328 662 328 662 325.5 672.5 c 128,-1,207
 323 683 323 683 320.5 696.5 c 128,-1,208
 318 710 318 710 317 729 c 0,209,210
 316 737 316 737 314.5 759 c 128,-1,211
 313 781 313 781 312.5 813 c 128,-1,212
 312 845 312 845 314.5 884.5 c 128,-1,213
 317 924 317 924 326 967 c 0,214,215
 330 989 330 989 342.5 1020.5 c 128,-1,216
 355 1052 355 1052 373 1083.5 c 128,-1,217
 391 1115 391 1115 412.5 1143.5 c 128,-1,218
 434 1172 434 1172 454 1186 c 1,78,79
484 1473 m 0,219,220
 460 1474 460 1474 446.5 1459.5 c 128,-1,221
 433 1445 433 1445 432 1424 c 0,222,223
 432 1407 432 1407 444 1396.5 c 128,-1,224
 456 1386 456 1386 470 1380 c 0,225,226
 478 1375 478 1375 483 1374 c 2,227,-1
 510 1363 l 1,228,229
 525 1370 525 1370 532.5 1384 c 128,-1,230
 540 1398 540 1398 540 1412 c 0,231,232
 541 1435 541 1435 524.5 1454 c 128,-1,233
 508 1473 508 1473 484 1473 c 0,219,220
462 1324 m 1,234,235
 443 1320 443 1320 430.5 1302 c 128,-1,236
 418 1284 418 1284 418 1264 c 0,237,238
 418 1252 418 1252 423 1241 c 128,-1,239
 428 1230 428 1230 436.5 1221 c 128,-1,240
 445 1212 445 1212 457 1206.5 c 128,-1,241
 469 1201 469 1201 482 1201 c 0,242,243
 512 1200 512 1200 524.5 1217 c 128,-1,244
 537 1234 537 1234 537 1254 c 0,245,246
 538 1278 538 1278 522.5 1291.5 c 128,-1,247
 507 1305 507 1305 487 1313 c 2,248,-1
 462 1324 l 1,234,235
EndSplineSet
Validated: 33
EndChar

StartChar: semicolon
Encoding: 59 59 25
Width: 78
GlyphClass: 2
Flags: W
LayerCount: 2
Fore
SplineSet
19 -36 m 1,0,-1
 0 -36 l 1,1,-1
 0 1637 l 1,2,-1
 19 1637 l 1,3,-1
 19 -36 l 1,0,-1
EndSplineSet
Validated: 1
EndChar

StartChar: less
Encoding: 60 60 26
Width: 202
GlyphClass: 2
Flags: W
LayerCount: 2
Fore
SplineSet
175 -36 m 1,0,-1
 156 -36 l 1,1,-1
 156 1637 l 1,2,-1
 175 1637 l 1,3,-1
 175 -36 l 1,0,-1
19 -36 m 1,4,-1
 0 -36 l 1,5,-1
 0 1637 l 1,6,-1
 19 1637 l 1,7,-1
 19 -36 l 1,4,-1
EndSplineSet
Validated: 1
EndChar

StartChar: equal
Encoding: 61 61 27
Width: 282
GlyphClass: 2
Flags: W
LayerCount: 2
Fore
SplineSet
254 -37 m 1,0,-1
 156 -36 l 1,1,-1
 156 1637 l 1,2,-1
 254 1636 l 1,3,-1
 254 -37 l 1,0,-1
19 -36 m 1,4,-1
 0 -36 l 1,5,-1
 0 1637 l 1,6,-1
 19 1637 l 1,7,-1
 19 -36 l 1,4,-1
EndSplineSet
Validated: 1
EndChar

StartChar: greater
Encoding: 62 62 28
Width: 506
GlyphClass: 2
Flags: W
LayerCount: 2
Fore
SplineSet
457 570 m 128,-1,1
 457 596 457 596 439 615 c 128,-1,2
 421 634 421 634 396 634 c 0,3,4
 373 634 373 634 355 615 c 128,-1,5
 337 596 337 596 337 570 c 128,-1,6
 337 544 337 544 355 525 c 128,-1,7
 373 506 373 506 398 506 c 0,8,9
 421 506 421 506 439 525 c 128,-1,0
 457 544 457 544 457 570 c 128,-1,1
457 991 m 128,-1,11
 457 1017 457 1017 439 1036 c 128,-1,12
 421 1055 421 1055 396 1055 c 0,13,14
 373 1055 373 1055 355 1036 c 128,-1,15
 337 1017 337 1017 337 991 c 128,-1,16
 337 965 337 965 355 946 c 128,-1,17
 373 927 373 927 398 927 c 0,18,19
 421 927 421 927 439 946 c 128,-1,10
 457 965 457 965 457 991 c 128,-1,11
0 -37 m 1,20,-1
 98 -36 l 1,21,-1
 98 1637 l 1,22,-1
 0 1636 l 1,23,-1
 0 -37 l 1,20,-1
235 -36 m 1,24,-1
 254 -36 l 1,25,-1
 254 1637 l 1,26,-1
 235 1637 l 1,27,-1
 235 -36 l 1,24,-1
EndSplineSet
Validated: 9
EndChar

StartChar: question
Encoding: 63 63 29
Width: 308
GlyphClass: 2
Flags: W
LayerCount: 2
Fore
SplineSet
-180 570 m 128,-1,1
 -180 596 -180 596 -162 615 c 128,-1,2
 -144 634 -144 634 -119 634 c 0,3,4
 -96 634 -96 634 -78 615 c 128,-1,5
 -60 596 -60 596 -60 570 c 128,-1,6
 -60 544 -60 544 -78 525 c 128,-1,7
 -96 506 -96 506 -121 506 c 0,8,9
 -144 506 -144 506 -162 525 c 128,-1,0
 -180 544 -180 544 -180 570 c 128,-1,1
-180 991 m 128,-1,11
 -180 1017 -180 1017 -162 1036 c 128,-1,12
 -144 1055 -144 1055 -119 1055 c 0,13,14
 -96 1055 -96 1055 -78 1036 c 128,-1,15
 -60 1017 -60 1017 -60 991 c 128,-1,16
 -60 965 -60 965 -78 946 c 128,-1,17
 -96 927 -96 927 -121 927 c 0,18,19
 -144 927 -144 927 -162 946 c 128,-1,10
 -180 965 -180 965 -180 991 c 128,-1,11
275 -37 m 1,20,-1
 177 -36 l 1,21,-1
 177 1637 l 1,22,-1
 275 1636 l 1,23,-1
 275 -37 l 1,20,-1
40 -36 m 1,24,-1
 21 -36 l 1,25,-1
 21 1637 l 1,26,-1
 40 1637 l 1,27,-1
 40 -36 l 1,24,-1
EndSplineSet
Validated: 1
EndChar

StartChar: at
Encoding: 64 64 30
Width: 698
GlyphClass: 2
Flags: W
LayerCount: 2
Fore
SplineSet
423 -36 m 1,0,-1
 404 -36 l 1,1,-1
 404 1637 l 1,2,-1
 423 1637 l 1,3,-1
 423 -36 l 1,0,-1
-190 570 m 128,-1,5
 -190 596 -190 596 -172 615 c 128,-1,6
 -154 634 -154 634 -129 634 c 0,7,8
 -106 634 -106 634 -88 615 c 128,-1,9
 -70 596 -70 596 -70 570 c 128,-1,10
 -70 544 -70 544 -88 525 c 128,-1,11
 -106 506 -106 506 -131 506 c 0,12,13
 -154 506 -154 506 -172 525 c 128,-1,4
 -190 544 -190 544 -190 570 c 128,-1,5
-190 991 m 128,-1,15
 -190 1017 -190 1017 -172 1036 c 128,-1,16
 -154 1055 -154 1055 -129 1055 c 0,17,18
 -106 1055 -106 1055 -88 1036 c 128,-1,19
 -70 1017 -70 1017 -70 991 c 128,-1,20
 -70 965 -70 965 -88 946 c 128,-1,21
 -106 927 -106 927 -131 927 c 0,22,23
 -154 927 -154 927 -172 946 c 128,-1,14
 -190 965 -190 965 -190 991 c 128,-1,15
504 570 m 128,-1,25
 504 596 504 596 522 615 c 128,-1,26
 540 634 540 634 565 634 c 0,27,28
 588 634 588 634 606 615 c 128,-1,29
 624 596 624 596 624 570 c 128,-1,30
 624 544 624 544 606 525 c 128,-1,31
 588 506 588 506 563 506 c 0,32,33
 540 506 540 506 522 525 c 128,-1,24
 504 544 504 544 504 570 c 128,-1,25
504 991 m 128,-1,35
 504 1017 504 1017 522 1036 c 128,-1,36
 540 1055 540 1055 565 1055 c 0,37,38
 588 1055 588 1055 606 1036 c 128,-1,39
 624 1017 624 1017 624 991 c 128,-1,40
 624 965 624 965 606 946 c 128,-1,41
 588 927 588 927 563 927 c 0,42,43
 540 927 540 927 522 946 c 128,-1,34
 504 965 504 965 504 991 c 128,-1,35
265 -37 m 1,44,-1
 167 -36 l 1,45,-1
 167 1637 l 1,46,-1
 265 1636 l 1,47,-1
 265 -37 l 1,44,-1
30 -36 m 1,48,-1
 11 -36 l 1,49,-1
 11 1637 l 1,50,-1
 30 1637 l 1,51,-1
 30 -36 l 1,48,-1
EndSplineSet
Validated: 1
EndChar

StartChar: D
Encoding: 68 68 31
Width: 325
GlyphClass: 2
Flags: W
LayerCount: 2
Fore
SplineSet
290 265 m 0,0,1
 313 249 313 249 319 226 c 0,2,3
 322 214 322 214 322 201 c 0,4,5
 322 190 322 190 320 179 c 0,6,7
 314 154 314 154 299 129.5 c 128,-1,8
 284 105 284 105 263 86 c 0,9,10
 237 63 237 63 209 47 c 128,-1,11
 181 31 181 31 151 25 c 0,12,13
 135 21 135 21 119 21 c 0,14,15
 105 21 105 21 91 24 c 0,16,17
 61 30 61 30 32 50 c 0,18,19
 9 66 9 66 4 89 c 0,20,21
 1 100 1 100 1 112 c 256,22,23
 1 124 1 124 4 137 c 0,24,25
 9 162 9 162 24 186 c 128,-1,26
 39 210 39 210 59 229 c 0,27,28
 85 253 85 253 113.5 268.5 c 128,-1,29
 142 284 142 284 172 290 c 0,30,31
 187 294 187 294 202 294 c 256,32,33
 217 294 217 294 231 291 c 0,34,35
 261 285 261 285 290 265 c 0,0,1
114 189 m 0,36,37
 98 176 98 176 80 159 c 128,-1,38
 62 142 62 142 50.5 125.5 c 128,-1,39
 39 109 39 109 36.5 93.5 c 128,-1,40
 34 78 34 78 49 67 c 0,41,42
 61 59 61 59 78 59 c 0,43,44
 80 59 80 59 83 59 c 0,45,46
 103 60 103 60 124 69 c 128,-1,47
 145 78 145 78 166.5 92.5 c 128,-1,48
 188 107 188 107 207 124 c 0,49,50
 223 138 223 138 240.5 155.5 c 128,-1,51
 258 173 258 173 269.5 190.5 c 128,-1,52
 281 208 281 208 282.5 224 c 128,-1,53
 284 240 284 240 269 250 c 0,54,55
 257 259 257 259 241 259 c 0,56,57
 238 259 238 259 235 259 c 0,58,59
 215 256 215 256 194 246.5 c 128,-1,60
 173 237 173 237 153 221.5 c 128,-1,61
 133 206 133 206 114 189 c 0,36,37
EndSplineSet
EndChar

StartChar: E
Encoding: 69 69 32
Width: 364
GlyphClass: 2
Flags: W
LayerCount: 2
Fore
SplineSet
333 236 m 0,0,1
 339 225 339 225 340 211 c 128,-1,2
 341 197 341 197 339 182.5 c 128,-1,3
 337 168 337 168 334 155 c 128,-1,4
 331 142 331 142 328 135 c 0,5,6
 313 95 313 95 284.5 65 c 128,-1,7
 256 35 256 35 232 23 c 0,8,9
 207 11 207 11 176 5 c 128,-1,10
 145 -1 145 -1 110 3 c 0,11,12
 91 5 91 5 63 11.5 c 128,-1,13
 35 18 35 18 17 37 c 1,14,-1
 17 -783 l 1,15,-1
 -2 -783 l 1,16,-1
 -2 91 l 1,17,-1
 -2 102 l 2,18,19
 0 115 0 115 3.5 126.5 c 128,-1,20
 7 138 7 138 10 146 c 0,21,22
 24 185 24 185 51.5 212.5 c 128,-1,23
 79 240 79 240 102 253 c 0,24,25
 126 267 126 267 162 275.5 c 128,-1,26
 198 284 198 284 242 279 c 0,27,28
 250 278 250 278 262 276 c 128,-1,29
 274 274 274 274 287.5 269.5 c 128,-1,30
 301 265 301 265 313 257 c 128,-1,31
 325 249 325 249 333 236 c 0,0,1
308 218 m 0,32,33
 300 231 300 231 287.5 235.5 c 128,-1,34
 275 240 275 240 261 238.5 c 128,-1,35
 247 237 247 237 232.5 231.5 c 128,-1,36
 218 226 218 226 206 220 c 0,37,38
 189 211 189 211 174 203.5 c 128,-1,39
 159 196 159 196 143 186 c 0,40,41
 128 177 128 177 113 168.5 c 128,-1,42
 98 160 98 160 81 148 c 0,43,44
 70 141 70 141 58 131.5 c 128,-1,45
 46 122 46 122 37.5 110 c 128,-1,46
 29 98 29 98 26.5 86 c 128,-1,47
 24 74 24 74 32 60 c 0,48,49
 39 47 39 47 52 43 c 128,-1,50
 65 39 65 39 78.5 40.5 c 128,-1,51
 92 42 92 42 107 47.5 c 128,-1,52
 122 53 122 53 134 59 c 0,53,54
 169 75 169 75 198 93 c 0,55,56
 214 102 214 102 228 110 c 128,-1,57
 242 118 242 118 259 129 c 0,58,59
 270 136 270 136 282 146.5 c 128,-1,60
 294 157 294 157 302.5 168 c 128,-1,61
 311 179 311 179 313 192 c 128,-1,62
 315 205 315 205 308 218 c 0,32,33
EndSplineSet
Validated: 33
EndChar

StartChar: F
Encoding: 70 70 33
Width: 350
GlyphClass: 2
Flags: W
LayerCount: 2
Fore
SplineSet
8 133 m 0,0,1
 18 161 18 161 39 185 c 128,-1,2
 60 209 60 209 88 226.5 c 128,-1,3
 116 244 116 244 147.5 253.5 c 128,-1,4
 179 263 179 263 212 263 c 256,5,6
 245 263 245 263 269.5 252.5 c 128,-1,7
 294 242 294 242 308.5 224 c 128,-1,8
 323 206 323 206 326.5 182 c 128,-1,9
 330 158 330 158 319 130 c 0,10,11
 309 102 309 102 288 78 c 128,-1,12
 267 54 267 54 239.5 36 c 128,-1,13
 212 18 212 18 179 8.5 c 128,-1,14
 146 -1 146 -1 115 -1 c 0,15,16
 83 0 83 0 58.5 11 c 128,-1,17
 34 22 34 22 19 39 c 1,18,-1
 19 -775 l 1,19,-1
 0 -775 l 1,20,-1
 0 95 l 2,21,22
 0 111 0 111 8 133 c 0,0,1
EndSplineSet
Validated: 33
EndChar

StartChar: G
Encoding: 71 71 34
Width: 350
GlyphClass: 2
Flags: W
LayerCount: 2
Fore
SplineSet
229 33 m 1,0,1
 175 -1 175 -1 115 0 c 0,2,3
 83 0 83 0 58.5 11 c 128,-1,4
 34 22 34 22 19 39 c 1,5,-1
 19 -506 l 1,6,-1
 22 -506 l 2,7,8
 37 -504 37 -504 54 -499 c 0,9,10
 68 -495 68 -495 87 -487 c 128,-1,11
 106 -479 106 -479 126 -466 c 0,12,13
 139 -457 139 -457 155.5 -440.5 c 128,-1,14
 172 -424 172 -424 189.5 -400 c 128,-1,15
 207 -376 207 -376 224 -344 c 128,-1,16
 241 -312 241 -312 254 -273 c 0,17,18
 268 -230 268 -230 273.5 -190.5 c 128,-1,19
 279 -151 279 -151 274 -123 c 0,20,21
 271 -98 271 -98 267.5 -78 c 128,-1,22
 264 -58 264 -58 259 -40.5 c 128,-1,23
 254 -23 254 -23 246.5 -5 c 128,-1,24
 239 13 239 13 229 33 c 1,0,1
8 134 m 0,25,26
 18 162 18 162 39 185.5 c 128,-1,27
 60 209 60 209 88 227 c 128,-1,28
 116 245 116 245 147.5 254.5 c 128,-1,29
 179 264 179 264 212 264 c 256,30,31
 245 264 245 264 269.5 253.5 c 128,-1,32
 294 243 294 243 308.5 224.5 c 128,-1,33
 323 206 323 206 326.5 182 c 128,-1,34
 330 158 330 158 319 130 c 0,35,36
 309 103 309 103 290 80.5 c 128,-1,37
 271 58 271 58 246 41 c 1,38,39
 272 -17 272 -17 285.5 -80.5 c 128,-1,40
 299 -144 299 -144 289 -222 c 0,41,42
 283 -263 283 -263 268 -309.5 c 128,-1,43
 253 -356 253 -356 221 -409 c 0,44,45
 188 -464 188 -464 154.5 -514.5 c 128,-1,46
 121 -565 121 -565 91 -608 c 0,47,48
 64 -644 64 -644 43 -689.5 c 128,-1,49
 22 -735 22 -735 22 -778 c 1,50,-1
 2 -778 l 1,51,-1
 2 -774 l 1,52,-1
 0 -774 l 1,53,-1
 0 96 l 2,54,55
 0 112 0 112 8 134 c 0,25,26
EndSplineSet
Validated: 33
EndChar

StartChar: H
Encoding: 72 72 35
Width: 372
GlyphClass: 2
Flags: W
LayerCount: 2
Fore
SplineSet
305 -334 m 0,0,1
 302 -317 302 -317 296 -302 c 128,-1,2
 290 -287 290 -287 282 -266 c 1,3,4
 275 -280 275 -280 266 -297 c 128,-1,5
 257 -314 257 -314 245 -332 c 0,6,7
 227 -359 227 -359 205.5 -378 c 128,-1,8
 184 -397 184 -397 163.5 -413 c 128,-1,9
 143 -429 143 -429 124 -444 c 128,-1,10
 105 -459 105 -459 89 -477 c 0,11,12
 75 -493 75 -493 62 -507 c 128,-1,13
 49 -521 49 -521 39.5 -536 c 128,-1,14
 30 -551 30 -551 24 -567.5 c 128,-1,15
 18 -584 18 -584 18 -605 c 1,16,17
 42 -607 42 -607 66 -605 c 0,18,19
 86 -603 86 -603 109.5 -598.5 c 128,-1,20
 133 -594 133 -594 154 -583 c 0,21,22
 157 -581 157 -581 173.5 -568 c 128,-1,23
 190 -555 190 -555 211 -534 c 128,-1,24
 232 -513 232 -513 254 -485.5 c 128,-1,25
 276 -458 276 -458 291 -427 c 0,26,27
 294 -420 294 -420 297.5 -408 c 128,-1,28
 301 -396 301 -396 303 -383 c 128,-1,29
 305 -370 305 -370 306 -357 c 128,-1,30
 307 -344 307 -344 305 -334 c 0,0,1
281 70 m 1,31,32
 250 36 250 36 206 17.5 c 128,-1,33
 162 -1 162 -1 114 0 c 0,34,35
 82 0 82 0 58 11 c 128,-1,36
 34 22 34 22 19 39 c 1,37,-1
 19 -407 l 1,38,39
 50 -400 50 -400 78 -389 c 0,40,41
 102 -381 102 -381 128 -369.5 c 128,-1,42
 154 -358 154 -358 173 -345 c 0,43,44
 210 -319 210 -319 237.5 -281 c 128,-1,45
 265 -243 265 -243 283 -195 c 0,46,47
 294 -162 294 -162 303 -127.5 c 128,-1,48
 312 -93 312 -93 313 -58 c 0,49,50
 314 -19 314 -19 303 11.5 c 128,-1,51
 292 42 292 42 281 70 c 1,31,32
7 134 m 0,52,53
 17 162 17 162 38 185.5 c 128,-1,54
 59 209 59 209 87 227 c 128,-1,55
 115 245 115 245 146.5 254.5 c 128,-1,56
 178 264 178 264 211 264 c 256,57,58
 244 264 244 264 268.5 253.5 c 128,-1,59
 293 243 293 243 307.5 224.5 c 128,-1,60
 322 206 322 206 325.5 182 c 128,-1,61
 329 158 329 158 318 130 c 0,62,63
 313 119 313 119 307 107.5 c 128,-1,64
 301 96 301 96 293 86 c 1,65,66
 305 53 305 53 318.5 12 c 128,-1,67
 332 -29 332 -29 329 -72 c 0,68,69
 328 -91 328 -91 326.5 -106 c 128,-1,70
 325 -121 325 -121 322 -133 c 128,-1,71
 319 -145 319 -145 316.5 -157 c 128,-1,72
 314 -169 314 -169 311 -182 c 0,73,74
 307 -199 307 -199 301.5 -214 c 128,-1,75
 296 -229 296 -229 290 -247 c 1,76,77
 298 -261 298 -261 305 -276.5 c 128,-1,78
 312 -292 312 -292 321 -327 c 0,79,80
 324 -344 324 -344 326 -358 c 128,-1,81
 328 -372 328 -372 328 -383.5 c 128,-1,82
 328 -395 328 -395 326 -406.5 c 128,-1,83
 324 -418 324 -418 321 -431 c 0,84,85
 316 -451 316 -451 311 -464.5 c 128,-1,86
 306 -478 306 -478 298.5 -491 c 128,-1,87
 291 -504 291 -504 280 -519 c 128,-1,88
 269 -534 269 -534 252 -555 c 0,89,90
 232 -581 232 -581 207.5 -601 c 128,-1,91
 183 -621 183 -621 159.5 -637.5 c 128,-1,92
 136 -654 136 -654 114.5 -669.5 c 128,-1,93
 93 -685 93 -685 79 -700 c 0,94,95
 68 -712 68 -712 57 -720.5 c 128,-1,96
 46 -729 46 -729 38 -740.5 c 128,-1,97
 30 -752 30 -752 24.5 -767.5 c 128,-1,98
 19 -783 19 -783 19 -811 c 1,99,-1
 0 -811 l 1,100,101
 0 -811 0 -811 0 -794 c 0,102,103
 0 -776 0 -776 0 -748 c 128,-1,104
 0 -720 0 -720 0 -683.5 c 128,-1,105
 0 -647 0 -647 0 -609 c 2,106,-1
 0 -407 l 1,107,-1
 0 86 l 2,108,109
 0 97 0 97 1 109 c 128,-1,110
 2 121 2 121 7 134 c 0,52,53
EndSplineSet
Validated: 33
EndChar

StartChar: I
Encoding: 73 73 36
Width: 348
GlyphClass: 2
Flags: W
LayerCount: 2
Fore
SplineSet
56 22 m 21,0,-1
 142 2 l 1,1,2
 182 3 182 3 222 16 c 0,3,4
 276 34 276 34 309 74 c 128,-1,5
 342 114 342 114 342 155 c 0,6,7
 340 179 340 179 330 198 c 0,8,9
 302 246 302 246 226 246 c 0,10,11
 192 246 192 246 148 235 c 0,12,13
 88 219 88 219 52 180 c 0,14,15
 6 132 6 132 6 84 c 2,16,-1
 10 -811 l 1,17,-1
 26 -811 l 1,18,-1
 44 -789 l 1,19,20
 112 -736 112 -736 162 -685 c 0,21,22
 294 -551 294 -551 310 -469 c 0,23,24
 312 -463 312 -463 312 -455 c 0,25,26
 312 -413 312 -413 274 -314 c 1,27,28
 286 -359 286 -359 286 -399 c 0,29,30
 286 -446 286 -446 268 -469 c 0,31,32
 206 -546 206 -546 196 -560 c 0,33,34
 132 -637 132 -637 58 -680 c 1,35,-1
 58 -449 l 1,36,37
 122 -401 122 -401 170 -354 c 0,38,39
 284 -240 284 -240 310 -148 c 0,40,41
 312 -141 312 -141 312 -131 c 0,42,43
 312 -99 312 -99 298 -57 c 128,-1,44
 284 -15 284 -15 274 -19 c 1,45,46
 292 -60 292 -60 292 -96 c 0,47,48
 290 -129 290 -129 276 -148 c 0,49,50
 236 -197 236 -197 200 -233 c 0,51,52
 130 -303 130 -303 58 -345 c 9,53,-1
 56 22 l 21,0,-1
58 -611 m 1,54,55
 120 -565 120 -565 170 -519 c 0,56,57
 286 -407 286 -407 310 -315 c 0,58,59
 312 -308 312 -308 312 -298 c 0,60,61
 312 -265 312 -265 298 -223 c 128,-1,62
 284 -181 284 -181 274 -186 c 1,63,64
 292 -227 292 -227 292 -263 c 0,65,66
 292 -296 292 -296 276 -315 c 0,67,68
 230 -370 230 -370 200 -401 c 0,69,70
 128 -474 128 -474 58 -515 c 1,71,-1
 58 -611 l 1,54,55
EndSplineSet
EndChar

StartChar: J
Encoding: 74 74 37
Width: 348
GlyphClass: 2
Flags: W
LayerCount: 2
Fore
SplineSet
52 180 m 0,0,1
 88 219 88 219 148 235 c 0,2,3
 192 246 192 246 226 246 c 0,4,5
 302 246 302 246 330 198 c 0,6,7
 340 179 340 179 342 155 c 0,8,9
 342 114 342 114 309 74 c 128,-1,10
 276 34 276 34 222 16 c 0,11,12
 182 3 182 3 142 2 c 1,13,-1
 56 22 l 1,14,-1
 58 -158 l 2,15,16
 58 -159 58 -159 62 -159 c 0,17,18
 104 -159 104 -159 172 -111 c 0,19,20
 262 -49 262 -49 258 36 c 0,21,22
 256 118 256 118 186 228 c 0,23,24
 174 247 174 247 174 252 c 0,25,26
 174 254 174 254 174 254 c 1,27,28
 192 254 192 254 242 180 c 0,29,30
 298 96 298 96 300 36 c 0,31,32
 300 -48 300 -48 236 -129 c 0,33,34
 194 -185 194 -185 122 -237 c 0,35,36
 60 -283 60 -283 58 -281 c 2,37,-1
 58 -345 l 1,38,39
 130 -303 130 -303 200 -233 c 0,40,41
 236 -197 236 -197 276 -148 c 0,42,43
 290 -129 290 -129 292 -96 c 0,44,45
 292 -60 292 -60 274 -19 c 1,46,47
 284 -15 284 -15 298 -57 c 128,-1,48
 312 -99 312 -99 312 -131 c 0,49,50
 312 -141 312 -141 310 -148 c 0,51,52
 284 -240 284 -240 170 -354 c 0,53,54
 122 -401 122 -401 58 -449 c 1,55,-1
 58 -680 l 1,56,57
 132 -637 132 -637 196 -560 c 0,58,59
 206 -546 206 -546 268 -469 c 0,60,61
 286 -446 286 -446 286 -399 c 0,62,63
 286 -359 286 -359 274 -314 c 1,64,65
 312 -413 312 -413 312 -455 c 0,66,67
 312 -463 312 -463 310 -469 c 0,68,69
 294 -551 294 -551 162 -685 c 0,70,71
 112 -736 112 -736 44 -789 c 1,72,-1
 26 -811 l 1,73,-1
 10 -811 l 1,74,-1
 6 84 l 2,75,76
 6 132 6 132 52 180 c 0,0,1
58 -611 m 1,77,78
 120 -565 120 -565 170 -519 c 0,79,80
 286 -407 286 -407 310 -315 c 0,81,82
 312 -308 312 -308 312 -298 c 0,83,84
 312 -265 312 -265 298 -223 c 128,-1,85
 284 -181 284 -181 274 -186 c 1,86,87
 292 -227 292 -227 292 -263 c 0,88,89
 292 -296 292 -296 276 -315 c 0,90,91
 230 -370 230 -370 200 -401 c 0,92,93
 128 -474 128 -474 58 -515 c 1,94,-1
 58 -611 l 1,77,78
EndSplineSet
Validated: 37
EndChar

StartChar: K
Encoding: 75 75 38
Width: 415
GlyphClass: 2
Flags: W
LayerCount: 2
Fore
SplineSet
172 307 m 1,0,-1
 172 193 l 1,1,-1
 241 218 l 1,2,-1
 241 332 l 1,3,-1
 172 307 l 1,0,-1
143 380 m 1,4,-1
 143 505 l 1,5,-1
 172 505 l 1,6,-1
 172 387 l 1,7,-1
 241 412 l 1,8,-1
 241 524 l 1,9,-1
 269 524 l 1,10,-1
 269 419 l 1,11,-1
 296 429 l 1,12,-1
 296 349 l 1,13,-1
 269 339 l 1,14,-1
 269 225 l 1,15,-1
 296 234 l 1,16,-1
 296 156 l 1,17,-1
 269 145 l 1,18,-1
 269 19 l 1,19,-1
 241 19 l 1,20,-1
 241 138 l 1,21,-1
 172 114 l 1,22,-1
 172 0 l 1,23,-1
 143 0 l 1,24,-1
 143 106 l 1,25,-1
 111 95 l 1,26,-1
 111 175 l 1,27,-1
 143 186 l 1,28,-1
 143 300 l 1,29,-1
 111 290 l 1,30,-1
 111 370 l 1,31,-1
 143 380 l 1,4,-1
414 259 m 0,32,33
 414 220 414 220 405.5 189.5 c 128,-1,34
 397 159 397 159 384.5 136 c 128,-1,35
 372 113 372 113 356.5 97 c 128,-1,36
 341 81 341 81 326 71 c 1,37,-1
 323 78 l 1,38,39
 345 101 345 101 357 123.5 c 128,-1,40
 369 146 369 146 374.5 169 c 128,-1,41
 380 192 380 192 381.5 214.5 c 128,-1,42
 383 237 383 237 383 259 c 0,43,44
 383 282 383 282 381.5 305 c 128,-1,45
 380 328 380 328 374.5 351 c 128,-1,46
 369 374 369 374 356.5 396.5 c 128,-1,47
 344 419 344 419 323 440 c 1,48,-1
 326 447 l 1,49,50
 339 439 339 439 354.5 422 c 128,-1,51
 370 405 370 405 383 380.5 c 128,-1,52
 396 356 396 356 405 325 c 128,-1,53
 414 294 414 294 414 259 c 0,32,33
88 71 m 1,54,55
 74 81 74 81 58 97 c 128,-1,56
 42 113 42 113 29 136 c 128,-1,57
 16 159 16 159 8 189.5 c 128,-1,58
 0 220 0 220 0 259 c 0,59,60
 0 294 0 294 8 324 c 128,-1,61
 16 354 16 354 29 378.5 c 128,-1,62
 42 403 42 403 58 420.5 c 128,-1,63
 74 438 74 438 88 447 c 1,64,-1
 91 440 l 1,65,66
 69 418 69 418 57 396 c 128,-1,67
 45 374 45 374 39.5 351 c 128,-1,68
 34 328 34 328 32.5 305 c 128,-1,69
 31 282 31 282 31 259 c 0,70,71
 31 237 31 237 32.5 214.5 c 128,-1,72
 34 192 34 192 39.5 169 c 128,-1,73
 45 146 45 146 57.5 123 c 128,-1,74
 70 100 70 100 91 78 c 1,75,-1
 88 71 l 1,54,55
EndSplineSet
Validated: 1
EndChar

StartChar: L
Encoding: 76 76 39
Width: 462
GlyphClass: 2
Flags: W
LayerCount: 2
Fore
SplineSet
241 166 m 2,0,1
 247 169 247 169 257 175 c 128,-1,2
 267 181 267 181 271 189 c 0,3,4
 274 198 274 198 276.5 209.5 c 128,-1,5
 279 221 279 221 280 231.5 c 128,-1,6
 281 242 281 242 281 249 c 128,-1,7
 281 256 281 256 281 258 c 2,8,-1
 364 262 l 1,9,-1
 359 175 l 2,10,11
 357 176 357 176 336 175.5 c 128,-1,12
 315 175 315 175 292 164 c 0,13,14
 280 158 280 158 277.5 152 c 128,-1,15
 275 146 275 146 267 138 c 1,16,-1
 267 123 l 1,17,18
 271 117 271 117 277.5 109 c 128,-1,19
 284 101 284 101 292 98 c 0,20,21
 301 94 301 94 312 92 c 128,-1,22
 323 90 323 90 333 89.5 c 128,-1,23
 343 89 343 89 350 89 c 128,-1,24
 357 89 357 89 359 89 c 2,25,-1
 364 3 l 1,26,-1
 276 9 l 1,27,28
 275 21 275 21 275 29 c 128,-1,29
 275 37 275 37 275 43 c 128,-1,30
 275 49 275 49 273 55.5 c 128,-1,31
 271 62 271 62 266 74 c 128,-1,32
 261 86 261 86 255.5 89.5 c 128,-1,33
 250 93 250 93 241 100 c 1,34,-1
 226 100 l 1,35,36
 220 96 220 96 212.5 89 c 128,-1,37
 205 82 205 82 201 74 c 256,38,39
 197 66 197 66 195 55 c 128,-1,40
 193 44 193 44 192 34.5 c 128,-1,41
 191 25 191 25 191 17.5 c 128,-1,42
 191 10 191 10 191 9 c 2,43,-1
 105 3 l 1,44,-1
 112 91 l 2,45,46
 114 90 114 90 133.5 90.5 c 128,-1,47
 153 91 153 91 176 102 c 0,48,49
 188 108 188 108 192.5 111.5 c 128,-1,50
 197 115 197 115 204 123 c 1,51,-1
 204 138 l 2,52,53
 201 144 201 144 192.5 154 c 128,-1,54
 184 164 184 164 176 168 c 0,55,56
 168 171 168 171 157 173 c 128,-1,57
 146 175 146 175 136.5 176 c 128,-1,58
 127 177 127 177 120 177 c 128,-1,59
 113 177 113 177 112 177 c 2,60,-1
 105 262 l 1,61,-1
 195 258 l 2,62,63
 194 256 194 256 194 236 c 128,-1,64
 194 216 194 216 205 192 c 0,65,66
 211 180 211 180 214 176.5 c 128,-1,67
 217 173 217 173 226 166 c 1,68,-1
 241 166 l 2,0,1
463 130 m 0,69,70
 463 91 463 91 454 55 c 128,-1,71
 445 19 445 19 432 -9.5 c 128,-1,72
 419 -38 419 -38 402 -58.5 c 128,-1,73
 385 -79 385 -79 369 -88 c 1,74,-1
 366 -80 l 1,75,76
 390 -54 390 -54 403 -26.5 c 128,-1,77
 416 1 416 1 422 28.5 c 128,-1,78
 428 56 428 56 429.5 82 c 128,-1,79
 431 108 431 108 431 130 c 0,80,81
 431 153 431 153 429.5 179 c 128,-1,82
 428 205 428 205 422 232 c 128,-1,83
 416 259 416 259 402.5 286 c 128,-1,84
 389 313 389 313 366 339 c 1,85,-1
 369 347 l 1,86,87
 385 338 385 338 402 316 c 128,-1,88
 419 294 419 294 432.5 264 c 128,-1,89
 446 234 446 234 454.5 199.5 c 128,-1,90
 463 165 463 165 463 130 c 0,69,70
95 -88 m 1,91,92
 79 -79 79 -79 62.5 -58.5 c 128,-1,93
 46 -38 46 -38 32.5 -9.5 c 128,-1,94
 19 19 19 19 10.5 55 c 128,-1,95
 2 91 2 91 2 130 c 0,96,97
 2 165 2 165 10 199.5 c 128,-1,98
 18 234 18 234 31.5 264 c 128,-1,99
 45 294 45 294 61.5 316 c 128,-1,100
 78 338 78 338 95 347 c 1,101,-1
 98 339 l 1,102,103
 74 313 74 313 61.5 286 c 128,-1,104
 49 259 49 259 42.5 232 c 128,-1,105
 36 205 36 205 34.5 179 c 128,-1,106
 33 153 33 153 33 130 c 0,107,108
 33 108 33 108 34.5 82 c 128,-1,109
 36 56 36 56 42.5 28.5 c 128,-1,110
 49 1 49 1 62 -26.5 c 128,-1,111
 75 -54 75 -54 98 -80 c 1,112,-1
 95 -88 l 1,91,92
EndSplineSet
Validated: 1
EndChar

StartChar: M
Encoding: 77 77 40
Width: 446
GlyphClass: 2
Flags: W
LayerCount: 2
Fore
SplineSet
94 -51 m 1,0,1
 77 -42 77 -42 60.5 -21.5 c 128,-1,2
 44 -1 44 -1 30.5 27.5 c 128,-1,3
 17 56 17 56 8.5 92 c 128,-1,4
 0 128 0 128 0 167 c 0,5,6
 0 202 0 202 8 236.5 c 128,-1,7
 16 271 16 271 30 301 c 128,-1,8
 44 331 44 331 60.5 353 c 128,-1,9
 77 375 77 375 94 384 c 1,10,-1
 97 376 l 1,11,12
 73 350 73 350 60 323 c 128,-1,13
 47 296 47 296 41 269 c 128,-1,14
 35 242 35 242 33.5 216 c 128,-1,15
 32 190 32 190 32 167 c 0,16,17
 32 145 32 145 33.5 119 c 128,-1,18
 35 93 35 93 41 65.5 c 128,-1,19
 47 38 47 38 60.5 10.5 c 128,-1,20
 74 -17 74 -17 97 -43 c 1,21,-1
 94 -51 l 1,0,1
168 529 m 1,22,-1
 168 348 l 1,23,-1
 168 283 l 1,24,25
 182 296 182 296 194.5 304 c 128,-1,26
 207 312 207 312 218 317 c 128,-1,27
 229 322 229 322 242 324 c 128,-1,28
 255 326 255 326 271 326 c 0,29,30
 290 326 290 326 306 317.5 c 128,-1,31
 322 309 322 309 333 296 c 128,-1,32
 344 283 344 283 350 266.5 c 128,-1,33
 356 250 356 250 356 235 c 0,34,35
 357 219 357 219 352.5 202.5 c 128,-1,36
 348 186 348 186 343 173 c 0,37,38
 336 156 336 156 320.5 142.5 c 128,-1,39
 305 129 305 129 293 117 c 0,40,41
 289 113 289 113 275.5 102.5 c 128,-1,42
 262 92 262 92 245 80 c 128,-1,43
 228 68 228 68 209.5 55 c 128,-1,44
 191 42 191 42 176 31.5 c 128,-1,45
 161 21 161 21 151 13 c 2,46,-1
 141 5 l 1,47,-1
 141 610 l 1,48,-1
 168 610 l 1,49,-1
 168 529 l 1,22,-1
251 260 m 0,50,51
 246 266 246 266 236.5 270.5 c 128,-1,52
 227 275 227 275 217.5 275 c 128,-1,53
 208 275 208 275 197.5 268.5 c 128,-1,54
 187 262 187 262 179 247 c 0,55,56
 169 228 169 228 168.5 198.5 c 128,-1,57
 168 169 168 169 168 145 c 2,58,-1
 168 57 l 1,59,60
 168 57 168 57 174 62 c 256,61,62
 180 67 180 67 189 74.5 c 128,-1,63
 198 82 198 82 207.5 91 c 128,-1,64
 217 100 217 100 225 108 c 0,65,66
 239 121 239 121 249.5 136.5 c 128,-1,67
 260 152 260 152 265 175 c 0,68,69
 271 199 271 199 268 221.5 c 128,-1,70
 265 244 265 244 251 260 c 0,50,51
442 167 m 0,71,72
 442 128 442 128 434 92 c 128,-1,73
 426 56 426 56 412 27.5 c 128,-1,74
 398 -1 398 -1 381.5 -21.5 c 128,-1,75
 365 -42 365 -42 348 -51 c 1,76,-1
 345 -43 l 1,77,78
 369 -17 369 -17 382 10.5 c 128,-1,79
 395 38 395 38 401.5 65.5 c 128,-1,80
 408 93 408 93 409.5 119 c 128,-1,81
 411 145 411 145 411 167 c 0,82,83
 411 190 411 190 409.5 216 c 128,-1,84
 408 242 408 242 401.5 269 c 128,-1,85
 395 296 395 296 382 323 c 128,-1,86
 369 350 369 350 345 376 c 1,87,-1
 348 384 l 1,88,89
 364 375 364 375 381 353 c 128,-1,90
 398 331 398 331 412 301 c 128,-1,91
 426 271 426 271 434 236.5 c 128,-1,92
 442 202 442 202 442 167 c 0,71,72
EndSplineSet
Validated: 33
EndChar

StartChar: N
Encoding: 78 78 41
Width: 653
GlyphClass: 2
Flags: W
LayerCount: 2
Fore
SplineSet
653 155 m 0,0,1
 653 116 653 116 645 80 c 128,-1,2
 637 44 637 44 623.5 15.5 c 128,-1,3
 610 -13 610 -13 593.5 -33.5 c 128,-1,4
 577 -54 577 -54 560 -63 c 1,5,-1
 556 -55 l 1,6,7
 580 -29 580 -29 593 -1.5 c 128,-1,8
 606 26 606 26 613 53.5 c 128,-1,9
 620 81 620 81 621.5 107 c 128,-1,10
 623 133 623 133 623 155 c 0,11,12
 623 178 623 178 621.5 204 c 128,-1,13
 620 230 620 230 613 257 c 128,-1,14
 606 284 606 284 593 311 c 128,-1,15
 580 338 580 338 556 364 c 1,16,-1
 560 372 l 1,17,18
 576 363 576 363 593 341 c 128,-1,19
 610 319 610 319 623.5 289 c 128,-1,20
 637 259 637 259 645 224.5 c 128,-1,21
 653 190 653 190 653 155 c 0,0,1
94 -63 m 1,22,23
 77 -54 77 -54 60.5 -33.5 c 128,-1,24
 44 -13 44 -13 30 15.5 c 128,-1,25
 16 44 16 44 8 80 c 128,-1,26
 0 116 0 116 0 155 c 0,27,28
 0 190 0 190 8 224.5 c 128,-1,29
 16 259 16 259 30 289 c 128,-1,30
 44 319 44 319 60.5 341 c 128,-1,31
 77 363 77 363 94 372 c 1,32,-1
 97 364 l 1,33,34
 73 338 73 338 60 311 c 128,-1,35
 47 284 47 284 40.5 257 c 128,-1,36
 34 230 34 230 32.5 204 c 128,-1,37
 31 178 31 178 31 155 c 0,38,39
 31 133 31 133 32.5 107 c 128,-1,40
 34 81 34 81 40.5 53.5 c 128,-1,41
 47 26 47 26 60.5 -1.5 c 128,-1,42
 74 -29 74 -29 97 -55 c 1,43,-1
 94 -63 l 1,22,23
155 517 m 1,44,-1
 155 336 l 1,45,-1
 155 271 l 1,46,47
 169 284 169 284 181 292 c 128,-1,48
 193 300 193 300 204.5 305 c 128,-1,49
 216 310 216 310 229 312 c 128,-1,50
 242 314 242 314 258 314 c 0,51,52
 277 314 277 314 292.5 305.5 c 128,-1,53
 308 297 308 297 319.5 284 c 128,-1,54
 331 271 331 271 337 254.5 c 128,-1,55
 343 238 343 238 343 223 c 0,56,57
 344 207 344 207 339.5 190.5 c 128,-1,58
 335 174 335 174 330 161 c 0,59,60
 323 144 323 144 307.5 130.5 c 128,-1,61
 292 117 292 117 280 105 c 0,62,63
 275 101 275 101 262 90.5 c 128,-1,64
 249 80 249 80 232 68 c 128,-1,65
 215 56 215 56 196.5 43 c 128,-1,66
 178 30 178 30 162.5 19.5 c 128,-1,67
 147 9 147 9 138 1 c 2,68,-1
 128 -7 l 1,69,-1
 128 598 l 1,70,-1
 155 598 l 1,71,-1
 155 517 l 1,44,-1
238 248 m 0,72,73
 233 254 233 254 223.5 258.5 c 128,-1,74
 214 263 214 263 204.5 263 c 128,-1,75
 195 263 195 263 184.5 256.5 c 128,-1,76
 174 250 174 250 166 235 c 0,77,78
 156 216 156 216 155.5 186.5 c 128,-1,79
 155 157 155 157 155 133 c 2,80,-1
 155 45 l 1,81,82
 155 45 155 45 161 50 c 256,83,84
 167 55 167 55 175.5 62.5 c 128,-1,85
 184 70 184 70 194 79 c 128,-1,86
 204 88 204 88 212 96 c 0,87,88
 226 109 226 109 236 124.5 c 128,-1,89
 246 140 246 140 252 163 c 0,90,91
 257 187 257 187 254.5 209.5 c 128,-1,92
 252 232 252 232 238 248 c 0,72,73
386 336 m 1,93,-1
 386 271 l 1,94,95
 400 284 400 284 412 292 c 128,-1,96
 424 300 424 300 435.5 305 c 128,-1,97
 447 310 447 310 460 312 c 128,-1,98
 473 314 473 314 489 314 c 0,99,100
 508 314 508 314 524 305.5 c 128,-1,101
 540 297 540 297 550.5 284 c 128,-1,102
 561 271 561 271 567 254.5 c 128,-1,103
 573 238 573 238 574 223 c 0,104,105
 575 207 575 207 570.5 190.5 c 128,-1,106
 566 174 566 174 561 161 c 0,107,108
 554 144 554 144 538.5 130.5 c 128,-1,109
 523 117 523 117 511 105 c 0,110,111
 504 98 504 98 479.5 80 c 128,-1,112
 455 62 455 62 428 43 c 128,-1,113
 401 24 401 24 380 9 c 128,-1,114
 359 -6 359 -6 359 -7 c 2,115,-1
 359 598 l 1,116,-1
 386 598 l 1,117,-1
 386 336 l 1,93,-1
469 248 m 0,118,119
 464 254 464 254 454.5 258.5 c 128,-1,120
 445 263 445 263 435.5 263 c 128,-1,121
 426 263 426 263 416 256.5 c 128,-1,122
 406 250 406 250 397 235 c 0,123,124
 387 216 387 216 386.5 186.5 c 128,-1,125
 386 157 386 157 386 133 c 2,126,-1
 386 45 l 1,127,-1
 392 50 l 2,128,129
 398 55 398 55 407 62.5 c 128,-1,130
 416 70 416 70 425.5 79 c 128,-1,131
 435 88 435 88 443 96 c 0,132,133
 456 109 456 109 466.5 124.5 c 128,-1,134
 477 140 477 140 483 163 c 0,135,136
 488 187 488 187 485.5 209.5 c 128,-1,137
 483 232 483 232 469 248 c 0,118,119
EndSplineSet
Validated: 33
EndChar

StartChar: O
Encoding: 79 79 42
Width: 445
GlyphClass: 2
Flags: W
LayerCount: 2
Fore
SplineSet
169 447 m 1,0,-1
 169 287 l 1,1,-1
 286 317 l 1,2,-1
 286 478 l 1,3,-1
 169 447 l 1,0,-1
311 585 m 1,4,-1
 311 0 l 1,5,-1
 286 0 l 1,6,-1
 286 219 l 1,7,-1
 142 182 l 1,8,-1
 142 774 l 1,9,-1
 169 774 l 1,10,-1
 169 546 l 1,11,-1
 311 585 l 1,4,-1
94 166 m 1,12,13
 78 175 78 175 61.5 195.5 c 128,-1,14
 45 216 45 216 31.5 244.5 c 128,-1,15
 18 273 18 273 9.5 309 c 128,-1,16
 1 345 1 345 1 384 c 0,17,18
 1 419 1 419 9 453.5 c 128,-1,19
 17 488 17 488 30.5 518 c 128,-1,20
 44 548 44 548 60.5 570 c 128,-1,21
 77 592 77 592 94 601 c 1,22,-1
 97 593 l 1,23,24
 73 567 73 567 60.5 540 c 128,-1,25
 48 513 48 513 41.5 486 c 128,-1,26
 35 459 35 459 33.5 433 c 128,-1,27
 32 407 32 407 32 384 c 0,28,29
 32 362 32 362 33.5 336 c 128,-1,30
 35 310 35 310 41.5 282.5 c 128,-1,31
 48 255 48 255 61 227.5 c 128,-1,32
 74 200 74 200 97 174 c 1,33,-1
 94 166 l 1,12,13
443 384 m 0,34,35
 443 345 443 345 435 309 c 128,-1,36
 427 273 427 273 413 244.5 c 128,-1,37
 399 216 399 216 382.5 195.5 c 128,-1,38
 366 175 366 175 349 166 c 1,39,-1
 346 174 l 1,40,41
 370 200 370 200 383 227.5 c 128,-1,42
 396 255 396 255 402.5 282.5 c 128,-1,43
 409 310 409 310 410.5 336 c 128,-1,44
 412 362 412 362 412 384 c 0,45,46
 412 407 412 407 410.5 433 c 128,-1,47
 409 459 409 459 402.5 486 c 128,-1,48
 396 513 396 513 383 540 c 128,-1,49
 370 567 370 567 346 593 c 1,50,-1
 349 601 l 1,51,52
 365 592 365 592 382 570 c 128,-1,53
 399 548 399 548 413 518 c 128,-1,54
 427 488 427 488 435 453.5 c 128,-1,55
 443 419 443 419 443 384 c 0,34,35
EndSplineSet
Validated: 1
EndChar

StartChar: P
Encoding: 80 80 43
Width: 491
GlyphClass: 2
Flags: W
LayerCount: 2
Fore
SplineSet
493 345 m 0,0,1
 493 306 493 306 484.5 270 c 128,-1,2
 476 234 476 234 462.5 205.5 c 128,-1,3
 449 177 449 177 432 156.5 c 128,-1,4
 415 136 415 136 398 127 c 1,5,-1
 395 135 l 1,6,7
 419 161 419 161 432 188.5 c 128,-1,8
 445 216 445 216 451.5 243.5 c 128,-1,9
 458 271 458 271 459.5 297 c 128,-1,10
 461 323 461 323 461 345 c 0,11,12
 461 368 461 368 459.5 394 c 128,-1,13
 458 420 458 420 451.5 447 c 128,-1,14
 445 474 445 474 432 501 c 128,-1,15
 419 528 419 528 395 554 c 1,16,-1
 398 562 l 1,17,18
 414 553 414 553 431.5 531 c 128,-1,19
 449 509 449 509 462.5 479 c 128,-1,20
 476 449 476 449 484.5 414.5 c 128,-1,21
 493 380 493 380 493 345 c 0,0,1
90 127 m 1,22,23
 74 136 74 136 57.5 156.5 c 128,-1,24
 41 177 41 177 27.5 205.5 c 128,-1,25
 14 234 14 234 5.5 270 c 128,-1,26
 -3 306 -3 306 -3 345 c 0,27,28
 -3 380 -3 380 5 414.5 c 128,-1,29
 13 449 13 449 26.5 479 c 128,-1,30
 40 509 40 509 57 531 c 128,-1,31
 74 553 74 553 90 562 c 1,32,-1
 93 554 l 1,33,34
 69 528 69 528 56.5 501 c 128,-1,35
 44 474 44 474 37.5 447 c 128,-1,36
 31 420 31 420 29.5 394 c 128,-1,37
 28 368 28 368 28 345 c 0,38,39
 28 323 28 323 29.5 297 c 128,-1,40
 31 271 31 271 37.5 243.5 c 128,-1,41
 44 216 44 216 57 188.5 c 128,-1,42
 70 161 70 161 93 135 c 1,43,-1
 90 127 l 1,22,23
196 407 m 1,44,-1
 196 255 l 1,45,-1
 295 288 l 1,46,-1
 295 440 l 1,47,-1
 196 407 l 1,44,-1
166 504 m 1,48,-1
 166 671 l 1,49,-1
 196 671 l 1,50,-1
 196 514 l 1,51,-1
 295 547 l 1,52,-1
 295 696 l 1,53,-1
 325 696 l 1,54,-1
 325 556 l 1,55,-1
 366 569 l 1,56,-1
 366 463 l 1,57,-1
 325 449 l 1,58,-1
 325 298 l 1,59,-1
 366 310 l 1,60,-1
 366 205 l 1,61,-1
 325 191 l 1,62,-1
 325 24 l 1,63,-1
 295 24 l 1,64,-1
 295 181 l 1,65,-1
 196 149 l 1,66,-1
 196 -2 l 1,67,-1
 166 -2 l 1,68,-1
 166 139 l 1,69,-1
 122 125 l 1,70,-1
 122 231 l 1,71,-1
 166 246 l 1,72,-1
 166 398 l 1,73,-1
 122 384 l 1,74,-1
 122 489 l 1,75,-1
 166 504 l 1,48,-1
EndSplineSet
Validated: 1
EndChar

StartChar: a
Encoding: 97 97 44
Width: 527
GlyphClass: 2
Flags: W
LayerCount: 2
Fore
SplineSet
36 395 m 1,0,-1
 36 267 l 1,1,-1
 483 267 l 1,2,-1
 483 395 l 1,3,-1
 519 395 l 1,4,-1
 519 -125 l 1,5,-1
 483 -125 l 1,6,-1
 483 3 l 1,7,-1
 36 3 l 1,8,-1
 36 -125 l 1,9,-1
 0 -125 l 1,10,-1
 0 395 l 1,11,-1
 36 395 l 1,0,-1
483 75 m 1,12,-1
 483 195 l 1,13,-1
 36 195 l 1,14,-1
 36 75 l 1,15,-1
 483 75 l 1,12,-1
EndSplineSet
Validated: 1
EndChar

StartChar: b
Encoding: 98 98 45
Width: 454
GlyphClass: 2
Flags: W
LayerCount: 2
Fore
SplineSet
144 168 m 0,0,1
 148 139 148 139 154.5 114.5 c 128,-1,2
 161 90 161 90 171.5 71.5 c 128,-1,3
 182 53 182 53 199 42.5 c 128,-1,4
 216 32 216 32 242 32 c 0,5,6
 260 32 260 32 274 40.5 c 128,-1,7
 288 49 288 49 297 61 c 128,-1,8
 306 73 306 73 310 88.5 c 128,-1,9
 314 104 314 104 312 118 c 0,10,11
 308 146 308 146 301.5 170.5 c 128,-1,12
 295 195 295 195 283 213.5 c 128,-1,13
 271 232 271 232 254.5 243 c 128,-1,14
 238 254 238 254 212 254 c 0,15,16
 194 254 194 254 180.5 245.5 c 128,-1,17
 167 237 167 237 158.5 225 c 128,-1,18
 150 213 150 213 146 197.5 c 128,-1,19
 142 182 142 182 144 168 c 0,0,1
30 396 m 1,20,-1
 30 203 l 1,21,22
 54 237 54 237 103 259 c 128,-1,23
 152 281 152 281 214 281 c 0,24,25
 247 281 247 281 278.5 276 c 128,-1,26
 310 271 310 271 338 261 c 128,-1,27
 366 251 366 251 388 235.5 c 128,-1,28
 410 220 410 220 424 198 c 1,29,-1
 424 396 l 1,30,-1
 455 396 l 1,31,-1
 455 -111 l 1,32,-1
 424 -111 l 1,33,-1
 424 83 l 1,34,35
 400 51 400 51 351.5 30 c 128,-1,36
 303 9 303 9 243 9 c 0,37,38
 209 9 209 9 176 14.5 c 128,-1,39
 143 20 143 20 115 31 c 128,-1,40
 87 42 87 42 65 58.5 c 128,-1,41
 43 75 43 75 30 98 c 1,42,-1
 30 -111 l 1,43,-1
 -1 -111 l 1,44,-1
 -1 396 l 1,45,-1
 30 396 l 1,20,-1
EndSplineSet
Validated: 1
EndChar

StartChar: c
Encoding: 99 99 46
Width: 608
GlyphClass: 2
Flags: W
LayerCount: 2
Fore
SplineSet
503 -105 m 1,0,-1
 503 86 l 1,1,2
 479 53 479 53 430 31 c 128,-1,3
 381 9 381 9 319 9 c 0,4,5
 249 10 249 10 191.5 30 c 128,-1,6
 134 50 134 50 104 91 c 1,7,-1
 104 -105 l 1,8,-1
 75 -105 l 1,9,-1
 75 401 l 1,10,-1
 104 401 l 1,11,-1
 104 202 l 1,12,13
 128 236 128 236 177.5 258.5 c 128,-1,14
 227 281 227 281 290 281 c 0,15,16
 359 281 359 281 417.5 260 c 128,-1,17
 476 239 476 239 503 194 c 1,18,-1
 503 401 l 1,19,-1
 532 401 l 1,20,-1
 532 -105 l 1,21,-1
 503 -105 l 1,0,-1
29 401 m 1,22,-1
 29 -105 l 1,23,-1
 -1 -105 l 1,24,-1
 -1 401 l 1,25,-1
 29 401 l 1,22,-1
608 401 m 1,26,-1
 608 -105 l 1,27,-1
 579 -105 l 1,28,-1
 579 401 l 1,29,-1
 608 401 l 1,26,-1
216 168 m 0,30,31
 220 140 220 140 226.5 115.5 c 128,-1,32
 233 91 233 91 245 72.5 c 128,-1,33
 257 54 257 54 275 43.5 c 128,-1,34
 293 33 293 33 319 33 c 0,35,36
 338 33 338 33 353.5 41.5 c 128,-1,37
 369 50 369 50 378.5 62 c 128,-1,38
 388 74 388 74 392 89 c 128,-1,39
 396 104 396 104 394 118 c 0,40,41
 389 147 389 147 382.5 171.5 c 128,-1,42
 376 196 376 196 363.5 214.5 c 128,-1,43
 351 233 351 233 332.5 244 c 128,-1,44
 314 255 314 255 288 255 c 0,45,46
 269 255 269 255 254.5 246.5 c 128,-1,47
 240 238 240 238 230.5 225.5 c 128,-1,48
 221 213 221 213 217.5 197.5 c 128,-1,49
 214 182 214 182 216 168 c 0,30,31
EndSplineSet
Validated: 1
EndChar

StartChar: d
Encoding: 100 100 47
Width: 325
GlyphClass: 2
Flags: W
LayerCount: 2
Fore
SplineSet
290 265 m 0,0,1
 313 249 313 249 319 226 c 0,2,3
 322 214 322 214 322 201 c 0,4,5
 322 190 322 190 320 179 c 0,6,7
 314 154 314 154 299 129.5 c 128,-1,8
 284 105 284 105 263 86 c 0,9,10
 237 63 237 63 209 47 c 128,-1,11
 181 31 181 31 151 25 c 0,12,13
 135 21 135 21 119 21 c 0,14,15
 105 21 105 21 91 24 c 0,16,17
 61 30 61 30 32 50 c 0,18,19
 9 66 9 66 4 89 c 0,20,21
 1 100 1 100 1 112 c 256,22,23
 1 124 1 124 4 137 c 0,24,25
 9 162 9 162 24 186 c 128,-1,26
 39 210 39 210 59 229 c 0,27,28
 85 253 85 253 113.5 268.5 c 128,-1,29
 142 284 142 284 172 290 c 0,30,31
 187 294 187 294 202 294 c 256,32,33
 217 294 217 294 231 291 c 0,34,35
 261 285 261 285 290 265 c 0,0,1
114 189 m 0,36,37
 98 176 98 176 80 159 c 128,-1,38
 62 142 62 142 50.5 125.5 c 128,-1,39
 39 109 39 109 36.5 93.5 c 128,-1,40
 34 78 34 78 49 67 c 0,41,42
 61 59 61 59 78 59 c 0,43,44
 80 59 80 59 83 59 c 0,45,46
 103 60 103 60 124 69 c 128,-1,47
 145 78 145 78 166.5 92.5 c 128,-1,48
 188 107 188 107 207 124 c 0,49,50
 223 138 223 138 240.5 155.5 c 128,-1,51
 258 173 258 173 269.5 190.5 c 128,-1,52
 281 208 281 208 282.5 224 c 128,-1,53
 284 240 284 240 269 250 c 0,54,55
 257 259 257 259 241 259 c 0,56,57
 238 259 238 259 235 259 c 0,58,59
 215 256 215 256 194 246.5 c 128,-1,60
 173 237 173 237 153 221.5 c 128,-1,61
 133 206 133 206 114 189 c 0,36,37
EndSplineSet
Validated: 1
EndChar

StartChar: e
Encoding: 101 101 48
Width: 340
GlyphClass: 2
Flags: W
LayerCount: 2
Fore
SplineSet
5 44 m 0,0,1
 -1 54 -1 54 -2 68.5 c 128,-1,2
 -3 83 -3 83 -1 97.5 c 128,-1,3
 1 112 1 112 4 124 c 128,-1,4
 7 136 7 136 10 144 c 0,5,6
 24 184 24 184 53 214.5 c 128,-1,7
 82 245 82 245 106 257 c 0,8,9
 131 268 131 268 162.5 274 c 128,-1,10
 194 280 194 280 229 276 c 0,11,12
 247 274 247 274 275 267.5 c 128,-1,13
 303 261 303 261 322 242 c 1,14,-1
 322 1062 l 1,15,-1
 341 1062 l 1,16,-1
 341 187 l 2,17,18
 341 184 341 184 340.5 181.5 c 128,-1,19
 340 179 340 179 340 177 c 0,20,21
 338 163 338 163 335 152 c 128,-1,22
 332 141 332 141 329 133 c 0,23,24
 315 93 315 93 287 66.5 c 128,-1,25
 259 40 259 40 236 26 c 0,26,27
 212 12 212 12 176.5 3.5 c 128,-1,28
 141 -5 141 -5 97 0 c 0,29,30
 89 1 89 1 76 3 c 128,-1,31
 63 5 63 5 50 9.5 c 128,-1,32
 37 14 37 14 24.5 22 c 128,-1,33
 12 30 12 30 5 44 c 0,0,1
31 60 m 0,34,35
 38 47 38 47 50.5 43 c 128,-1,36
 63 39 63 39 77 40.5 c 128,-1,37
 91 42 91 42 106 47 c 128,-1,38
 121 52 121 52 133 58 c 0,39,40
 150 66 150 66 164.5 74.5 c 128,-1,41
 179 83 179 83 196 92 c 0,42,43
 211 100 211 100 225.5 109.5 c 128,-1,44
 240 119 240 119 257 130 c 0,45,46
 268 137 268 137 280.5 147 c 128,-1,47
 293 157 293 157 301 168.5 c 128,-1,48
 309 180 309 180 311.5 192.5 c 128,-1,49
 314 205 314 205 307 218 c 0,50,51
 299 231 299 231 286.5 235.5 c 128,-1,52
 274 240 274 240 260 238.5 c 128,-1,53
 246 237 246 237 231.5 231.5 c 128,-1,54
 217 226 217 226 205 220 c 0,55,56
 187 211 187 211 171.5 203 c 128,-1,57
 156 195 156 195 140 185 c 0,58,59
 125 177 125 177 110.5 169 c 128,-1,60
 96 161 96 161 80 150 c 0,61,62
 69 143 69 143 56.5 132.5 c 128,-1,63
 44 122 44 122 36 110.5 c 128,-1,64
 28 99 28 99 25.5 86 c 128,-1,65
 23 73 23 73 31 60 c 0,34,35
EndSplineSet
Validated: 33
EndChar

StartChar: f
Encoding: 102 102 49
Width: 338
GlyphClass: 2
Flags: W
LayerCount: 2
Fore
SplineSet
4 133 m 256,0,1
 14 161 14 161 35 184.5 c 128,-1,2
 56 208 56 208 84 226 c 128,-1,3
 112 244 112 244 144 253.5 c 128,-1,4
 176 263 176 263 209 263 c 0,5,6
 241 263 241 263 265.5 252.5 c 128,-1,7
 290 242 290 242 304 224 c 1,8,-1
 304 1044 l 1,9,-1
 324 1044 l 1,10,-1
 324 174 l 2,11,12
 324 163 324 163 323 152 c 128,-1,13
 322 141 322 141 316 129 c 0,14,15
 306 101 306 101 285 77.5 c 128,-1,16
 264 54 264 54 236.5 36 c 128,-1,17
 209 18 209 18 176 8.5 c 128,-1,18
 143 -1 143 -1 112 -1 c 0,19,20
 79 -1 79 -1 54.5 9.5 c 128,-1,21
 30 20 30 20 15.5 38.5 c 128,-1,22
 1 57 1 57 -2.5 81 c 128,-1,23
 -6 105 -6 105 4 133 c 256,0,1
EndSplineSet
Validated: 33
EndChar

StartChar: g
Encoding: 103 103 50
Width: 568
GlyphClass: 2
Flags: W
LayerCount: 2
Fore
SplineSet
7 134 m 256,0,1
 17 162 17 162 38 185.5 c 128,-1,2
 59 209 59 209 87 227 c 128,-1,3
 115 245 115 245 146.5 254.5 c 128,-1,4
 178 264 178 264 211 264 c 0,5,6
 244 263 244 263 268 253 c 128,-1,7
 292 243 292 243 306 225 c 1,8,-1
 306 1051 l 1,9,-1
 326 1051 l 1,10,11
 326 1013 326 1013 341 972 c 128,-1,12
 356 931 356 931 379 899 c 0,13,14
 405 864 405 864 434.5 823 c 128,-1,15
 464 782 464 782 494 733 c 0,16,17
 506 711 506 711 517 684.5 c 128,-1,18
 528 658 528 658 537.5 632 c 128,-1,19
 547 606 547 606 552.5 583 c 128,-1,20
 558 560 558 560 560 545 c 0,21,22
 569 479 569 479 568 420 c 0,23,24
 567 374 567 374 560 330.5 c 128,-1,25
 553 287 553 287 538 246 c 1,26,-1
 525 252 l 1,27,28
 539 287 539 287 546 333.5 c 128,-1,29
 553 380 553 380 553 424 c 0,30,31
 553 460 553 460 547 504.5 c 128,-1,32
 541 549 541 549 527 586 c 0,33,34
 503 655 503 655 470.5 695.5 c 128,-1,35
 438 736 438 736 416 751 c 0,36,37
 399 762 399 762 382.5 768.5 c 128,-1,38
 366 775 366 775 353 778 c 0,39,40
 339 782 339 782 326 782 c 1,41,-1
 326 178 l 2,42,43
 326 167 326 167 325 154.5 c 128,-1,44
 324 142 324 142 318 130 c 0,45,46
 308 102 308 102 287 78.5 c 128,-1,47
 266 55 266 55 238.5 37 c 128,-1,48
 211 19 211 19 178 9.5 c 128,-1,49
 145 0 145 0 114 0 c 0,50,51
 81 0 81 0 57 11 c 128,-1,52
 33 22 33 22 18 40 c 128,-1,53
 3 58 3 58 0 82 c 128,-1,54
 -3 106 -3 106 7 134 c 256,0,1
EndSplineSet
Validated: 33
EndChar

StartChar: h
Encoding: 104 104 51
Width: 617
GlyphClass: 2
Flags: W
LayerCount: 2
Fore
SplineSet
611 262 m 0,0,1
 612 236 612 236 609 212 c 128,-1,2
 606 188 606 188 600.5 167.5 c 128,-1,3
 595 147 595 147 589 132 c 128,-1,4
 583 117 583 117 579 109 c 1,5,-1
 567 114 l 1,6,7
 580 148 580 148 589 183.5 c 128,-1,8
 598 219 598 219 596 249 c 0,9,10
 594 285 594 285 585.5 318.5 c 128,-1,11
 577 352 577 352 565 385 c 0,12,13
 549 433 549 433 520.5 470.5 c 128,-1,14
 492 508 492 508 456 532 c 0,15,16
 437 545 437 545 414.5 556.5 c 128,-1,17
 392 568 392 568 373 577 c 0,18,19
 350 587 350 587 327 595 c 1,20,-1
 327 171 l 2,21,22
 327 151 327 151 319 130 c 0,23,24
 309 102 309 102 287.5 78.5 c 128,-1,25
 266 55 266 55 238.5 37 c 128,-1,26
 211 19 211 19 178.5 9.5 c 128,-1,27
 146 0 146 0 115 0 c 0,28,29
 82 0 82 0 57.5 11 c 128,-1,30
 33 22 33 22 18.5 40 c 128,-1,31
 4 58 4 58 0.5 82 c 128,-1,32
 -3 106 -3 106 7 134 c 256,33,34
 17 162 17 162 38 185.5 c 128,-1,35
 59 209 59 209 87 227 c 128,-1,36
 115 245 115 245 147 254.5 c 128,-1,37
 179 264 179 264 212 264 c 256,38,39
 245 264 245 264 269 253.5 c 128,-1,40
 293 243 293 243 307 225 c 1,41,-1
 307 726 l 1,42,-1
 307 1002 l 1,43,-1
 327 1002 l 1,44,45
 327 974 327 974 332.5 957.5 c 128,-1,46
 338 941 338 941 347 929.5 c 128,-1,47
 356 918 356 918 368.5 909 c 128,-1,48
 381 900 381 900 394 890 c 0,49,50
 404 882 404 882 420.5 868 c 128,-1,51
 437 854 437 854 456 835.5 c 128,-1,52
 475 817 475 817 495.5 794.5 c 128,-1,53
 516 772 516 772 536 746 c 0,54,55
 549 729 549 729 559 715 c 128,-1,56
 569 701 569 701 577.5 687.5 c 128,-1,57
 586 674 586 674 592 658.5 c 128,-1,58
 598 643 598 643 603 624 c 0,59,60
 609 597 609 597 609 569 c 128,-1,61
 609 541 609 541 603 517 c 0,62,63
 598 497 598 497 594 485 c 128,-1,64
 590 473 590 473 586.5 465 c 128,-1,65
 583 457 583 457 579 451 c 128,-1,66
 575 445 575 445 571 438 c 1,67,68
 578 421 578 421 584 406 c 128,-1,69
 590 391 590 391 594 374 c 0,70,71
 597 360 597 360 599.5 348.5 c 128,-1,72
 602 337 602 337 604.5 324 c 128,-1,73
 607 311 607 311 608.5 296 c 128,-1,74
 610 281 610 281 611 262 c 0,0,1
588 531 m 0,75,76
 589 543 589 543 590 549.5 c 128,-1,77
 591 556 591 556 591 561.5 c 128,-1,78
 591 567 591 567 589.5 575.5 c 128,-1,79
 588 584 588 584 583 600 c 0,80,81
 572 639 572 639 553 667 c 128,-1,82
 534 695 534 695 513.5 714.5 c 128,-1,83
 493 734 493 734 472.5 747 c 128,-1,84
 452 760 452 760 436 768 c 0,85,86
 408 783 408 783 378.5 789.5 c 128,-1,87
 349 796 349 796 331 797 c 1,88,89
 331 787 331 787 332 782 c 0,90,91
 333 764 333 764 337.5 752 c 128,-1,92
 342 740 342 740 349 730 c 128,-1,93
 356 720 356 720 366.5 709 c 128,-1,94
 377 698 377 698 390 684 c 0,95,96
 423 648 423 648 457.5 610 c 128,-1,97
 492 572 492 572 530 520 c 0,98,99
 538 508 538 508 549 488 c 128,-1,100
 560 468 560 468 565 457 c 1,101,102
 575 475 575 475 580.5 495.5 c 128,-1,103
 586 516 586 516 588 531 c 0,75,76
EndSplineSet
Validated: 33
EndChar

StartChar: i
Encoding: 105 105 52
Width: 669
GlyphClass: 2
Flags: W
LayerCount: 2
Fore
SplineSet
378 873 m 1,0,1
 380 829 380 829 400 801 c 0,2,3
 410 786 410 786 445 759 c 0,4,5
 564 665 564 665 630 555 c 1,6,7
 633 565 633 565 636 577 c 0,8,9
 648 623 648 623 632 678 c 0,10,11
 600 784 600 784 485 846 c 0,12,13
 443 869 443 869 378 873 c 1,0,1
663 131 m 1,14,15
 667 55 667 55 630 -22 c 1,16,-1
 618 -17 l 1,17,18
 650 64 650 64 647 118 c 0,19,20
 644 173 644 173 616 254 c 0,21,22
 583 348 583 348 507 402 c 0,23,24
 460 434 460 434 378 464 c 1,25,-1
 378 173 l 2,26,27
 378 151 378 151 371 132 c 0,28,29
 351 78 351 78 290.5 39.5 c 128,-1,30
 230 1 230 1 166 2 c 0,31,32
 114 3 114 3 82.5 30 c 128,-1,33
 51 57 51 57 51 98 c 0,34,35
 51 116 51 116 58 136 c 0,36,37
 77 190 77 190 138 228.5 c 128,-1,38
 199 267 199 267 263 266 c 0,39,40
 326 266 326 266 358 228 c 1,41,-1
 358 1096 l 1,42,-1
 373 1096 l 1,43,44
 373 1074 373 1074 379.5 1056.5 c 128,-1,45
 386 1039 386 1039 409 1009 c 0,46,47
 425 986 425 986 447 966 c 0,48,49
 509 907 509 907 519 897 c 0,50,51
 567 849 567 849 600 804 c 0,52,53
 650 735 650 735 657 681 c 0,54,55
 664 630 664 630 652 577 c 0,56,57
 648 558 648 558 638 540 c 1,58,59
 648 518 648 518 654 493 c 0,60,61
 667 437 667 437 654 386 c 0,62,63
 650 370 650 370 646 370 c 256,64,65
 642 370 642 370 636 391.5 c 128,-1,66
 630 413 630 413 626 413 c 0,67,68
 624 412 624 412 623 410 c 0,69,70
 628 397 628 397 636 327 c 0,71,72
 644 250 644 250 645 243 c 0,73,74
 653 214 653 214 663 131 c 1,14,15
642 434 m 1,75,76
 642 442 642 442 634 469 c 0,77,78
 600 581 600 581 481 640 c 0,79,80
 435 664 435 664 382 666 c 1,81,82
 382 661 382 661 383 651 c 0,83,84
 386 619 386 619 400 599 c 0,85,86
 402 596 402 596 441 553 c 0,87,88
 475 516 475 516 509 479 c 0,89,90
 550 433 550 433 582 389 c 0,91,92
 596 369 596 369 616 326 c 1,93,94
 635 362 635 362 638.5 399.5 c 128,-1,95
 642 437 642 437 642 434 c 1,75,76
EndSplineSet
Validated: 37
EndChar

StartChar: j
Encoding: 106 106 53
Width: 669
GlyphClass: 2
Flags: W
LayerCount: 2
Fore
SplineSet
629 212 m 0,0,1
 629 153 629 153 571 69 c 0,2,3
 521 -6 521 -6 504 -6 c 0,4,5
 503 -6 503 -6 503 -4 c 0,6,7
 503 1 503 1 515 21 c 0,8,9
 585 131 585 131 588 212 c 0,10,11
 591 297 591 297 502 360 c 0,12,13
 433 408 433 408 392 408 c 0,14,15
 388 408 388 408 388 407 c 2,16,-1
 388 164 l 2,17,18
 388 114 388 114 343 69 c 0,19,20
 300 28 300 28 246 14 c 0,21,22
 203 3 203 3 168 2 c 0,23,24
 93 2 93 2 65 51 c 0,25,26
 54 70 54 70 53 94 c 0,27,28
 53 135 53 135 86 174.5 c 128,-1,29
 119 214 119 214 173 233 c 0,30,31
 213 246 213 246 252 246 c 0,32,33
 302 246 302 246 339 227 c 1,34,-1
 339 1059 l 1,35,-1
 356 1059 l 1,36,-1
 374 1038 l 1,37,38
 441 985 441 985 492 933 c 0,39,40
 614 809 614 809 640 717 c 0,41,42
 641 712 641 712 641 704 c 0,43,44
 641 662 641 662 604 563 c 1,45,46
 615 608 615 608 615 647 c 0,47,48
 615 694 615 694 597 717 c 0,49,50
 561 763 561 763 525 808 c 0,51,52
 457 887 457 887 388 928 c 1,53,-1
 388 698 l 1,54,55
 450 650 450 650 499 602 c 0,56,57
 614 488 614 488 640 397 c 0,58,59
 642 390 642 390 642 379 c 0,60,61
 642 347 642 347 627.5 305 c 128,-1,62
 613 263 613 263 604 268 c 1,63,64
 620 309 620 309 621 344 c 0,65,66
 621 377 621 377 605 397 c 0,67,68
 565 446 565 446 529 482 c 0,69,70
 459 552 459 552 388 593 c 1,71,-1
 388 530 l 2,72,73
 388 532 388 532 451 486 c 0,74,75
 524 434 524 434 566 377 c 0,76,77
 629 296 629 296 629 212 c 0,0,1
388 859 m 1,78,79
 450 813 450 813 499 767 c 0,80,81
 615 655 615 655 640 564 c 0,82,83
 642 557 642 557 642 546 c 0,84,85
 642 513 642 513 627.5 471 c 128,-1,86
 613 429 613 429 604 435 c 1,87,88
 621 476 621 476 622 511 c 0,89,90
 622 544 622 544 605 564 c 0,91,92
 560 619 560 619 530 650 c 0,93,94
 458 723 458 723 388 763 c 1,95,-1
 388 859 l 1,78,79
EndSplineSet
Validated: 37
EndChar

StartChar: k
Encoding: 107 107 54
Width: 204
GlyphClass: 2
Flags: W
LayerCount: 2
Fore
SplineSet
59 271 m 1,0,-1
 59 170 l 1,1,-1
 116 189 l 1,2,-1
 116 289 l 1,3,-1
 59 271 l 1,0,-1
30 330 m 1,4,-1
 30 441 l 1,5,-1
 59 441 l 1,6,-1
 59 341 l 1,7,-1
 116 359 l 1,8,-1
 116 459 l 1,9,-1
 145 459 l 1,10,-1
 145 369 l 1,11,-1
 171 378 l 1,12,-1
 171 308 l 1,13,-1
 145 300 l 1,14,-1
 145 199 l 1,15,-1
 171 207 l 1,16,-1
 171 137 l 1,17,-1
 145 129 l 1,18,-1
 145 16 l 1,19,-1
 116 16 l 1,20,-1
 116 118 l 1,21,-1
 59 101 l 1,22,-1
 59 -2 l 1,23,-1
 30 -2 l 1,24,-1
 30 90 l 1,25,-1
 0 81 l 1,26,-1
 0 150 l 1,27,-1
 30 160 l 1,28,-1
 30 261 l 1,29,-1
 0 252 l 1,30,-1
 0 321 l 1,31,-1
 30 330 l 1,4,-1
EndSplineSet
Validated: 1
EndChar

StartChar: l
Encoding: 108 108 55
Width: 259
GlyphClass: 2
Flags: W
LayerCount: 2
Fore
SplineSet
135 167 m 1,0,1
 142 170 142 170 152 176 c 128,-1,2
 162 182 162 182 166 190 c 0,3,4
 169 199 169 199 171 210.5 c 128,-1,5
 173 222 173 222 174 232.5 c 128,-1,6
 175 243 175 243 175 250 c 128,-1,7
 175 257 175 257 175 259 c 2,8,-1
 258 263 l 1,9,-1
 254 176 l 2,10,11
 252 177 252 177 231 176.5 c 128,-1,12
 210 176 210 176 186 165 c 0,13,14
 174 159 174 159 172 153 c 128,-1,15
 170 147 170 147 162 139 c 1,16,-1
 162 124 l 1,17,18
 166 118 166 118 172 110 c 128,-1,19
 178 102 178 102 186 99 c 0,20,21
 195 95 195 95 206 93 c 128,-1,22
 217 91 217 91 227.5 90.5 c 128,-1,23
 238 90 238 90 245 90 c 128,-1,24
 252 90 252 90 254 90 c 2,25,-1
 258 4 l 1,26,-1
 171 10 l 1,27,28
 170 22 170 22 170 30 c 128,-1,29
 170 38 170 38 170 44 c 128,-1,30
 170 50 170 50 168 56.5 c 128,-1,31
 166 63 166 63 161 75 c 0,32,33
 155 87 155 87 149.5 90.5 c 128,-1,34
 144 94 144 94 135 101 c 1,35,-1
 121 101 l 1,36,37
 115 97 115 97 107 90 c 128,-1,38
 99 83 99 83 95 75 c 256,39,40
 91 67 91 67 89 56 c 128,-1,41
 87 45 87 45 86.5 35.5 c 128,-1,42
 86 26 86 26 86 18.5 c 128,-1,43
 86 11 86 11 86 10 c 2,44,-1
 0 4 l 1,45,-1
 6 92 l 2,46,47
 8 91 8 91 28 91.5 c 128,-1,48
 48 92 48 92 72 103 c 0,49,50
 83 108 83 108 87 112 c 128,-1,51
 91 116 91 116 98 124 c 1,52,-1
 98 139 l 2,53,54
 95 145 95 145 87.5 155.5 c 128,-1,55
 80 166 80 166 72 169 c 0,56,57
 63 173 63 173 52 175 c 128,-1,58
 41 177 41 177 31.5 177.5 c 128,-1,59
 22 178 22 178 14.5 178 c 128,-1,60
 7 178 7 178 6 178 c 2,61,-1
 0 263 l 1,62,-1
 89 259 l 2,63,64
 88 257 88 257 88 237 c 128,-1,65
 88 217 88 217 99 193 c 0,66,67
 105 181 105 181 108.5 177.5 c 128,-1,68
 112 174 112 174 121 167 c 1,69,-1
 135 167 l 1,70,-1
 135 167 l 1,0,1
EndSplineSet
Validated: 5
EndChar

StartChar: m
Encoding: 109 109 56
Width: 215
GlyphClass: 2
Flags: W
LayerCount: 2
Fore
SplineSet
27 525 m 1,0,-1
 27 344 l 1,1,-1
 27 279 l 1,2,3
 41 292 41 292 53.5 300 c 128,-1,4
 66 308 66 308 77 313 c 128,-1,5
 88 318 88 318 101 320 c 128,-1,6
 114 322 114 322 130 322 c 0,7,8
 149 322 149 322 164.5 313.5 c 128,-1,9
 180 305 180 305 191.5 292 c 128,-1,10
 203 279 203 279 209 262.5 c 128,-1,11
 215 246 215 246 215 231 c 0,12,13
 216 215 216 215 212 198.5 c 128,-1,14
 208 182 208 182 202 169 c 0,15,16
 195 152 195 152 179.5 138.5 c 128,-1,17
 164 125 164 125 152 113 c 0,18,19
 148 109 148 109 134.5 98.5 c 128,-1,20
 121 88 121 88 104 76 c 128,-1,21
 87 64 87 64 68.5 51 c 128,-1,22
 50 38 50 38 34.5 27.5 c 128,-1,23
 19 17 19 17 10 9 c 2,24,-1
 0 1 l 1,25,-1
 0 606 l 1,26,-1
 27 606 l 1,27,-1
 27 525 l 1,0,-1
110 256 m 0,28,29
 105 262 105 262 96 266.5 c 128,-1,30
 87 271 87 271 77 271 c 128,-1,31
 67 271 67 271 56.5 264.5 c 128,-1,32
 46 258 46 258 38 243 c 0,33,34
 28 224 28 224 27.5 194.5 c 128,-1,35
 27 165 27 165 27 141 c 2,36,-1
 27 53 l 1,37,38
 27 53 27 53 33 58 c 256,39,40
 39 63 39 63 47.5 70.5 c 128,-1,41
 56 78 56 78 66 87 c 128,-1,42
 76 96 76 96 84 104 c 0,43,44
 98 117 98 117 108.5 132.5 c 128,-1,45
 119 148 119 148 124 171 c 0,46,47
 130 195 130 195 127 217.5 c 128,-1,48
 124 240 124 240 110 256 c 0,28,29
EndSplineSet
Validated: 33
EndChar

StartChar: n
Encoding: 110 110 57
Width: 448
GlyphClass: 2
Flags: W
LayerCount: 2
Fore
SplineSet
27 530 m 1,0,-1
 27 349 l 1,1,-1
 27 284 l 1,2,3
 41 297 41 297 53.5 305 c 128,-1,4
 66 313 66 313 77 318 c 128,-1,5
 88 323 88 323 101 325 c 128,-1,6
 114 327 114 327 130 327 c 0,7,8
 149 327 149 327 164.5 318.5 c 128,-1,9
 180 310 180 310 191.5 297 c 128,-1,10
 203 284 203 284 209 267.5 c 128,-1,11
 215 251 215 251 215 236 c 0,12,13
 216 220 216 220 212 203.5 c 128,-1,14
 208 187 208 187 202 174 c 0,15,16
 195 157 195 157 179.5 143.5 c 128,-1,17
 164 130 164 130 152 118 c 0,18,19
 148 114 148 114 134.5 103.5 c 128,-1,20
 121 93 121 93 104 81 c 128,-1,21
 87 69 87 69 68.5 56 c 128,-1,22
 50 43 50 43 34.5 32.5 c 128,-1,23
 19 22 19 22 10 14 c 2,24,-1
 0 6 l 1,25,-1
 0 611 l 1,26,-1
 27 611 l 1,27,-1
 27 530 l 1,0,-1
110 261 m 0,28,29
 105 267 105 267 96 271.5 c 128,-1,30
 87 276 87 276 77 276 c 128,-1,31
 67 276 67 276 56.5 269.5 c 128,-1,32
 46 263 46 263 38 248 c 0,33,34
 28 229 28 229 27.5 199.5 c 128,-1,35
 27 170 27 170 27 146 c 2,36,-1
 27 58 l 1,37,38
 27 58 27 58 33 63 c 256,39,40
 39 68 39 68 47.5 75.5 c 128,-1,41
 56 83 56 83 66 92 c 128,-1,42
 76 101 76 101 84 109 c 0,43,44
 98 122 98 122 108.5 137.5 c 128,-1,45
 119 153 119 153 124 176 c 0,46,47
 130 200 130 200 127 222.5 c 128,-1,48
 124 245 124 245 110 261 c 0,28,29
258 349 m 1,49,-1
 258 284 l 1,50,51
 272 297 272 297 284 305 c 128,-1,52
 296 313 296 313 307.5 318 c 128,-1,53
 319 323 319 323 332 325 c 128,-1,54
 345 327 345 327 361 327 c 0,55,56
 380 327 380 327 396 318.5 c 128,-1,57
 412 310 412 310 422.5 297 c 128,-1,58
 433 284 433 284 439 267.5 c 128,-1,59
 445 251 445 251 446 236 c 0,60,61
 447 220 447 220 442.5 203.5 c 128,-1,62
 438 187 438 187 433 174 c 0,63,64
 426 157 426 157 410.5 143.5 c 128,-1,65
 395 130 395 130 383 118 c 0,66,67
 376 111 376 111 351.5 93 c 128,-1,68
 327 75 327 75 300 56 c 128,-1,69
 273 37 273 37 252 22 c 128,-1,70
 231 7 231 7 231 6 c 2,71,-1
 231 611 l 1,72,-1
 258 611 l 1,73,-1
 258 349 l 1,49,-1
341 261 m 0,74,75
 336 267 336 267 326.5 271.5 c 128,-1,76
 317 276 317 276 307.5 276 c 128,-1,77
 298 276 298 276 288 269.5 c 128,-1,78
 278 263 278 263 269 248 c 0,79,80
 259 229 259 229 258.5 199.5 c 128,-1,81
 258 170 258 170 258 146 c 2,82,-1
 258 58 l 1,83,-1
 264 63 l 2,84,85
 270 68 270 68 279 75.5 c 128,-1,86
 288 83 288 83 297.5 92 c 128,-1,87
 307 101 307 101 315 109 c 0,88,89
 328 122 328 122 338.5 137.5 c 128,-1,90
 349 153 349 153 355 176 c 0,91,92
 360 200 360 200 357.5 222.5 c 128,-1,93
 355 245 355 245 341 261 c 0,74,75
EndSplineSet
Validated: 33
EndChar

StartChar: o
Encoding: 111 111 58
Width: 202
GlyphClass: 2
Flags: W
LayerCount: 2
Fore
SplineSet
25 443 m 1,0,-1
 25 283 l 1,1,-1
 141 313 l 1,2,-1
 141 474 l 1,3,-1
 25 443 l 1,0,-1
168 581 m 1,4,-1
 168 -4 l 1,5,-1
 141 -4 l 1,6,-1
 141 215 l 1,7,-1
 -1 178 l 1,8,-1
 -1 770 l 1,9,-1
 25 770 l 1,10,-1
 25 542 l 1,11,-1
 168 581 l 1,4,-1
EndSplineSet
Validated: 1
EndChar

StartChar: p
Encoding: 112 112 59
Width: 241
GlyphClass: 2
Flags: W
LayerCount: 2
Fore
SplineSet
74 406 m 1,0,-1
 74 254 l 1,1,-1
 174 287 l 1,2,-1
 174 439 l 1,3,-1
 74 406 l 1,0,-1
44 503 m 1,4,-1
 44 670 l 1,5,-1
 74 670 l 1,6,-1
 74 513 l 1,7,-1
 174 546 l 1,8,-1
 174 695 l 1,9,-1
 204 695 l 1,10,-1
 204 555 l 1,11,-1
 244 568 l 1,12,-1
 244 462 l 1,13,-1
 204 448 l 1,14,-1
 204 297 l 1,15,-1
 244 309 l 1,16,-1
 244 204 l 1,17,-1
 204 190 l 1,18,-1
 204 24 l 1,19,-1
 174 24 l 1,20,-1
 174 181 l 1,21,-1
 74 148 l 1,22,-1
 74 -3 l 1,23,-1
 44 -3 l 1,24,-1
 44 138 l 1,25,-1
 0 124 l 1,26,-1
 0 230 l 1,27,-1
 44 245 l 1,28,-1
 44 397 l 1,29,-1
 0 383 l 1,30,-1
 0 488 l 1,31,-1
 44 503 l 1,4,-1
EndSplineSet
Validated: 1
EndChar

StartChar: q
Encoding: 113 113 60
Width: 107
GlyphClass: 2
Flags: W
LayerCount: 2
Fore
SplineSet
-1 171 m 256,0,1
 -1 193 -1 193 14.5 207.5 c 128,-1,2
 30 222 30 222 53 222 c 256,3,4
 76 222 76 222 91 207.5 c 128,-1,5
 106 193 106 193 106 171 c 256,6,7
 106 149 106 149 90.5 134 c 128,-1,8
 75 119 75 119 53 119 c 0,9,10
 30 119 30 119 14.5 134 c 128,-1,11
 -1 149 -1 149 -1 171 c 256,0,1
EndSplineSet
Validated: 1
EndChar

StartChar: s
Encoding: 115 115 61
Width: 437
GlyphClass: 2
Flags: W
LayerCount: 2
Fore
SplineSet
201 20 m 2,0,1
 202 15 202 15 201 10 c 128,-1,2
 200 5 200 5 199 1 c 0,3,4
 190 -37 190 -37 156.5 -63 c 128,-1,5
 123 -89 123 -89 77 -94 c 0,6,7
 72 -94 72 -94 63.5 -93.5 c 128,-1,8
 55 -93 55 -93 46 -90.5 c 128,-1,9
 37 -88 37 -88 28 -83.5 c 128,-1,10
 19 -79 19 -79 13 -71 c 0,11,12
 9 -67 9 -67 6.5 -57.5 c 128,-1,13
 4 -48 4 -48 3 -38 c 128,-1,14
 2 -28 2 -28 2 -18.5 c 128,-1,15
 2 -9 2 -9 3 -4 c 0,16,17
 6 6 6 6 15.5 22 c 128,-1,18
 25 38 25 38 39 52 c 128,-1,19
 53 66 53 66 73.5 75.5 c 128,-1,20
 94 85 94 85 121 85 c 0,21,22
 128 85 128 85 136.5 85 c 128,-1,23
 145 85 145 85 153.5 84.5 c 128,-1,24
 162 84 162 84 169.5 81.5 c 128,-1,25
 177 79 177 79 181 74 c 1,26,27
 182 96 182 96 182 123 c 128,-1,28
 182 150 182 150 182 174 c 0,29,30
 182 202 182 202 181 231 c 1,31,-1
 54 164 l 1,32,-1
 54 188 l 1,33,-1
 181 257 l 1,34,-1
 181 593 l 1,35,-1
 198 594 l 1,36,37
 198 586 198 586 198.5 577.5 c 128,-1,38
 199 569 199 569 203.5 557.5 c 128,-1,39
 208 546 208 546 218.5 529.5 c 128,-1,40
 229 513 229 513 250 490 c 0,41,42
 278 458 278 458 306 422.5 c 128,-1,43
 334 387 334 387 351 347 c 1,44,-1
 441 396 l 1,45,-1
 441 372 l 1,46,-1
 360 328 l 1,47,48
 364 317 364 317 372 285 c 128,-1,49
 380 253 380 253 381 204 c 0,50,51
 382 184 382 184 377.5 158 c 128,-1,52
 373 132 373 132 362 96 c 0,53,54
 361 91 361 91 358.5 85 c 128,-1,55
 356 79 356 79 354 74 c 0,56,57
 350 68 350 68 347 61 c 1,58,-1
 335 68 l 1,59,60
 344 86 344 86 349 100 c 128,-1,61
 354 114 354 114 357 128 c 128,-1,62
 360 142 360 142 362 158 c 128,-1,63
 364 174 364 174 364 196 c 0,64,65
 364 206 364 206 361.5 222 c 128,-1,66
 359 238 359 238 355.5 254.5 c 128,-1,67
 352 271 352 271 347.5 287 c 128,-1,68
 343 303 343 303 339 315 c 1,69,-1
 202 243 l 1,70,-1
 202 19 l 1,71,-1
 201 20 l 2,0,1
202 267 m 1,72,-1
 329 336 l 1,73,74
 309 376 309 376 275 395.5 c 128,-1,75
 241 415 241 415 202 413 c 1,76,-1
 202 267 l 1,72,-1
EndSplineSet
Validated: 33
EndChar

StartChar: t
Encoding: 116 116 62
Width: 600
GlyphClass: 2
Flags: W
LayerCount: 2
Fore
SplineSet
131 634 m 0,0,1
 124 625 124 625 104 594 c 2,2,-1
 59 526 l 1,3,-1
 164 526 l 1,4,-1
 164 653 l 1,5,-1
 252 727 l 1,6,-1
 252 526 l 1,7,-1
 289 526 l 1,8,-1
 289 509 l 1,9,-1
 252 509 l 2,10,11
 251 506 251 506 251 496 c 0,12,13
 251 467 251 467 255 453 c 0,14,15
 257 448 257 448 270 440 c 128,-1,16
 283 432 283 432 289 432 c 1,17,-1
 289 416 l 1,18,-1
 125 416 l 1,19,-1
 125 432 l 1,20,21
 132 432 132 432 145.5 439 c 128,-1,22
 159 446 159 446 161 452 c 0,23,24
 164 467 164 467 164 500 c 0,25,26
 164 507 164 507 164 509 c 2,27,-1
 28 509 l 2,28,29
 28 510 28 510 27 515 c 0,30,31
 27 520 27 520 27 523 c 0,32,33
 27 525 27 525 28 526 c 0,34,35
 112 586 112 586 134 750 c 0,36,37
 142 811 142 811 143 812 c 2,38,-1
 241 812 l 1,39,40
 216 768 216 768 164 682 c 0,41,42
 145 652 145 652 131 634 c 0,0,1
131 229 m 0,43,44
 124 220 124 220 104 189 c 2,45,-1
 59 121 l 1,46,-1
 164 121 l 1,47,-1
 164 248 l 1,48,-1
 252 322 l 1,49,-1
 252 121 l 1,50,-1
 289 121 l 1,51,-1
 289 104 l 1,52,-1
 252 104 l 2,53,54
 251 101 251 101 251 91 c 0,55,56
 251 62 251 62 255 48 c 0,57,58
 257 43 257 43 270 35 c 128,-1,59
 283 27 283 27 289 27 c 1,60,-1
 289 11 l 1,61,-1
 125 11 l 1,62,-1
 125 27 l 1,63,64
 132 27 132 27 145.5 34 c 128,-1,65
 159 41 159 41 161 47 c 0,66,67
 164 62 164 62 164 95 c 0,68,69
 164 102 164 102 164 104 c 2,70,-1
 28 104 l 2,71,72
 28 105 28 105 27 110 c 0,73,74
 27 115 27 115 27 118 c 0,75,76
 27 120 27 120 28 121 c 0,77,78
 112 181 112 181 134 346 c 0,79,80
 142 406 142 406 143 407 c 2,81,-1
 241 407 l 1,82,83
 216 363 216 363 164 278 c 0,84,85
 145 247 145 247 131 229 c 0,43,44
EndSplineSet
Validated: 1
EndChar

StartChar: u
Encoding: 117 117 63
Width: 600
GlyphClass: 2
Flags: W
LayerCount: 2
Fore
SplineSet
88 723 m 0,0,1
 137 723 137 723 137 678 c 0,2,3
 137 658 137 658 122.5 644 c 128,-1,4
 108 630 108 630 88 630 c 0,5,6
 67 630 67 630 52.5 644 c 128,-1,7
 38 658 38 658 38 678 c 0,8,9
 38 720 38 720 72 747.5 c 128,-1,10
 106 775 106 775 149 775 c 0,11,12
 203 775 203 775 241 751 c 0,13,14
 288 723 288 723 288 673 c 0,15,16
 288 642 288 642 262 617 c 0,17,18
 244 600 244 600 206 580 c 0,19,20
 163 557 163 557 148 545 c 0,21,22
 116 520 116 520 85 474 c 1,23,24
 123 496 123 496 153 496 c 0,25,26
 175 496 175 496 198 485 c 0,27,28
 205 481 205 481 236 456 c 0,29,30
 245 448 245 448 254 448 c 0,31,32
 294 448 294 448 294 492 c 2,33,-1
 294 497 l 1,34,-1
 304 497 l 1,35,36
 304 396 304 396 229 396 c 0,37,38
 202 396 202 396 179 408 c 0,39,40
 144 431 144 431 142 432 c 0,41,42
 119 445 119 445 99 445 c 0,43,44
 64 445 64 445 53 426 c 0,45,46
 50 414 50 414 47 402 c 1,47,-1
 31 402 l 1,48,49
 34 423 34 423 36.5 431.5 c 128,-1,50
 39 440 39 440 47 457 c 0,51,52
 62 487 62 487 109 533 c 0,53,54
 134 558 134 558 184 609 c 0,55,56
 221 647 221 647 221 670 c 0,57,58
 221 748 221 748 122 748 c 0,59,60
 110 748 110 748 98 743 c 0,61,62
 81 737 81 737 81 727 c 0,63,64
 81 723 81 723 88 723 c 0,0,1
88 333 m 0,65,66
 136 333 136 333 137 289 c 0,67,68
 137 269 137 269 122 255 c 0,69,70
 108 241 108 241 88 241 c 0,71,72
 67 241 67 241 53 255 c 0,73,74
 38 269 38 269 38 289 c 0,75,76
 38 331 38 331 72 358 c 256,77,78
 106 385 106 385 149 385 c 0,79,80
 203 385 203 385 241 362 c 0,81,82
 288 334 288 334 288 284 c 0,83,84
 288 252 288 252 262 228 c 0,85,86
 247 213 247 213 206 190 c 0,87,88
 163 167 163 167 148 156 c 0,89,90
 116 131 116 131 85 85 c 1,91,92
 123 106 123 106 153 106 c 0,93,94
 179 106 179 106 198 96 c 0,95,96
 218 83 218 83 236 67 c 0,97,98
 245 58 245 58 254 58 c 0,99,100
 294 58 294 58 294 103 c 2,101,-1
 294 107 l 1,102,-1
 304 107 l 1,103,104
 304 -1 304 -1 229 -3 c 0,105,106
 211 -3 211 -3 179 19 c 0,107,108
 152 37 152 37 142 43 c 0,109,110
 119 55 119 55 99 55 c 0,111,112
 62 55 62 55 53 36 c 0,113,114
 48 25 48 25 47 13 c 1,115,-1
 31 13 l 1,116,117
 34 34 34 34 37 42 c 0,118,119
 39 51 39 51 47 68 c 0,120,121
 62 97 62 97 109 143 c 0,122,123
 134 168 134 168 184 219 c 0,124,125
 221 257 221 257 221 280 c 0,126,127
 221 357 221 357 122 359 c 0,128,129
 110 359 110 359 98 354 c 0,130,131
 81 347 81 347 81 337 c 0,132,133
 81 333 81 333 88 333 c 0,65,66
EndSplineSet
Validated: 1
EndChar

StartChar: v
Encoding: 118 118 64
Width: 600
GlyphClass: 2
Flags: W
LayerCount: 2
Fore
SplineSet
131 229 m 0,0,1
 124 220 124 220 104 189 c 2,2,-1
 59 121 l 1,3,-1
 164 121 l 1,4,-1
 164 248 l 1,5,-1
 252 322 l 1,6,-1
 252 121 l 1,7,-1
 289 121 l 1,8,-1
 289 104 l 1,9,-1
 252 104 l 2,10,11
 251 101 251 101 251 91 c 0,12,13
 251 62 251 62 255 48 c 0,14,15
 257 43 257 43 270 35 c 128,-1,16
 283 27 283 27 289 27 c 1,17,-1
 289 11 l 1,18,-1
 125 11 l 1,19,-1
 125 27 l 1,20,21
 132 27 132 27 145.5 34 c 128,-1,22
 159 41 159 41 161 47 c 0,23,24
 164 62 164 62 164 95 c 0,25,26
 164 102 164 102 164 104 c 2,27,-1
 28 104 l 2,28,29
 28 105 28 105 27 110 c 0,30,31
 27 115 27 115 27 118 c 0,32,33
 27 120 27 120 28 121 c 0,34,35
 112 181 112 181 134 346 c 0,36,37
 142 406 142 406 143 407 c 2,38,-1
 241 407 l 1,39,40
 216 363 216 363 164 278 c 0,41,42
 145 247 145 247 131 229 c 0,0,1
88 763 m 0,43,44
 137 763 137 763 137 718 c 0,45,46
 137 698 137 698 122.5 684 c 128,-1,47
 108 670 108 670 88 670 c 0,48,49
 67 670 67 670 52.5 684 c 128,-1,50
 38 698 38 698 38 718 c 0,51,52
 38 760 38 760 72 787.5 c 128,-1,53
 106 815 106 815 149 815 c 0,54,55
 203 815 203 815 241 791 c 0,56,57
 288 763 288 763 288 713 c 0,58,59
 288 682 288 682 262 657 c 0,60,61
 244 640 244 640 206 620 c 0,62,63
 163 597 163 597 148 585 c 0,64,65
 116 560 116 560 85 514 c 1,66,67
 123 536 123 536 153 536 c 0,68,69
 175 536 175 536 198 525 c 0,70,71
 205 521 205 521 236 496 c 0,72,73
 245 488 245 488 254 488 c 0,74,75
 294 488 294 488 294 532 c 2,76,-1
 294 537 l 1,77,-1
 304 537 l 1,78,79
 304 436 304 436 229 436 c 0,80,81
 202 436 202 436 179 448 c 0,82,83
 144 471 144 471 142 472 c 0,84,85
 119 485 119 485 99 485 c 0,86,87
 64 485 64 485 53 466 c 0,88,89
 50 454 50 454 47 442 c 1,90,-1
 31 442 l 1,91,92
 34 463 34 463 36.5 471.5 c 128,-1,93
 39 480 39 480 47 497 c 0,94,95
 62 527 62 527 109 573 c 0,96,97
 134 598 134 598 184 649 c 0,98,99
 221 687 221 687 221 710 c 0,100,101
 221 788 221 788 122 788 c 0,102,103
 110 788 110 788 98 783 c 0,104,105
 81 777 81 777 81 767 c 0,106,107
 81 763 81 763 88 763 c 0,43,44
EndSplineSet
Validated: 1
EndChar

StartChar: w
Encoding: 119 119 65
Width: 600
GlyphClass: 2
Flags: W
LayerCount: 2
Fore
SplineSet
138 628 m 2,0,1
 141 627 141 627 143 627 c 0,2,3
 147 627 147 627 148 628 c 0,4,5
 168 635 168 635 204 655 c 1,6,7
 228 674 228 674 228 701 c 0,8,9
 228 732 228 732 206.5 758 c 128,-1,10
 185 784 185 784 155 784 c 0,11,12
 142 784 142 784 123 776 c 0,13,14
 100 767 100 767 100 756 c 0,15,16
 100 752 100 752 105 752 c 0,17,18
 146 752 146 752 146 715 c 0,19,20
 146 677 146 677 103 677 c 0,21,22
 64 677 64 677 64 721 c 0,23,24
 64 804 64 804 184 804 c 0,25,26
 227 804 227 804 259.5 773.5 c 128,-1,27
 292 743 292 743 292 700 c 0,28,29
 292 668 292 668 279 651.5 c 128,-1,30
 266 635 266 635 236 621 c 1,31,32
 292 596 292 596 292 542 c 0,33,34
 292 499 292 499 259 468.5 c 128,-1,35
 226 438 226 438 184 438 c 0,36,37
 64 438 64 438 64 521 c 0,38,39
 64 565 64 565 103 565 c 0,40,41
 146 565 146 565 146 527 c 0,42,43
 146 490 146 490 105 490 c 0,44,45
 100 490 100 490 100 486 c 0,46,47
 100 475 100 475 123 466 c 0,48,49
 142 458 142 458 155 458 c 0,50,51
 185 458 185 458 207 485 c 0,52,53
 228 510 228 510 228 541 c 0,54,55
 228 585 228 585 154 612 c 0,56,57
 147 615 147 615 144 615 c 256,58,59
 141 615 141 615 138 615 c 2,60,-1
 138 628 l 2,0,1
131 229 m 0,61,62
 124 220 124 220 104 189 c 2,63,-1
 59 121 l 1,64,-1
 164 121 l 1,65,-1
 164 248 l 1,66,-1
 252 322 l 1,67,-1
 252 121 l 1,68,-1
 289 121 l 1,69,-1
 289 104 l 1,70,-1
 252 104 l 2,71,72
 251 101 251 101 251 91 c 0,73,74
 251 62 251 62 255 48 c 0,75,76
 257 43 257 43 270 35 c 128,-1,77
 283 27 283 27 289 27 c 1,78,-1
 289 11 l 1,79,-1
 125 11 l 1,80,-1
 125 27 l 1,81,82
 132 27 132 27 145.5 34 c 128,-1,83
 159 41 159 41 161 47 c 0,84,85
 164 62 164 62 164 95 c 0,86,87
 164 102 164 102 164 104 c 2,88,-1
 28 104 l 2,89,90
 28 105 28 105 27 110 c 0,91,92
 27 115 27 115 27 118 c 0,93,94
 27 120 27 120 28 121 c 0,95,96
 112 181 112 181 134 346 c 0,97,98
 142 406 142 406 143 407 c 2,99,-1
 241 407 l 1,100,101
 216 363 216 363 164 278 c 0,102,103
 145 247 145 247 131 229 c 0,61,62
EndSplineSet
Validated: 1
EndChar

StartChar: x
Encoding: 120 120 66
Width: 600
GlyphClass: 2
Flags: W
LayerCount: 2
Fore
SplineSet
303 157 m 0,0,1
 303 105 303 105 270.5 71 c 128,-1,2
 238 37 238 37 187 37 c 0,3,4
 135 37 135 37 103.5 71 c 128,-1,5
 72 105 72 105 72 157 c 0,6,7
 72 177 72 177 92 200 c 0,8,9
 110 221 110 221 130 229 c 1,10,11
 82 258 82 258 82 315 c 0,12,13
 82 358 82 358 113.5 385 c 128,-1,14
 145 412 145 412 188 412 c 0,15,16
 230 412 230 412 259 390 c 0,17,18
 292 364 292 364 292 324 c 2,19,-1
 292 318 l 2,20,21
 291 316 291 316 291 315 c 0,22,23
 290 295 290 295 272.5 273 c 128,-1,24
 255 251 255 251 236 244 c 1,25,26
 257 236 257 236 282 205 c 0,27,28
 303 180 303 180 303 157 c 0,0,1
259 318 m 0,29,30
 259 351 259 351 240 372 c 128,-1,31
 221 393 221 393 188 393 c 0,32,33
 164 393 164 393 145.5 376.5 c 128,-1,34
 127 360 127 360 127 336 c 0,35,36
 127 324 127 324 145.5 310.5 c 128,-1,37
 164 297 164 297 202 270 c 0,38,39
 207 266 207 266 218 257 c 1,40,41
 235 265 235 265 247 282.5 c 128,-1,42
 259 300 259 300 259 318 c 0,29,30
103 150 m 0,43,44
 103 112 103 112 126.5 85 c 128,-1,45
 150 58 150 58 187 58 c 0,46,47
 214 58 214 58 235 72 c 128,-1,48
 256 86 256 86 256 110 c 0,49,50
 256 126 256 126 237 146 c 0,51,52
 221 163 221 163 204 174 c 0,53,54
 180 188 180 188 148 214 c 1,55,56
 103 191 103 191 103 150 c 0,43,44
138 628 m 2,57,58
 141 627 141 627 143 627 c 0,59,60
 147 627 147 627 148 628 c 0,61,62
 168 635 168 635 204 655 c 1,63,64
 228 674 228 674 228 701 c 0,65,66
 228 732 228 732 206.5 758 c 128,-1,67
 185 784 185 784 155 784 c 0,68,69
 142 784 142 784 123 776 c 0,70,71
 100 767 100 767 100 756 c 0,72,73
 100 752 100 752 105 752 c 0,74,75
 146 752 146 752 146 715 c 0,76,77
 146 677 146 677 103 677 c 0,78,79
 64 677 64 677 64 721 c 0,80,81
 64 804 64 804 184 804 c 0,82,83
 227 804 227 804 259.5 773.5 c 128,-1,84
 292 743 292 743 292 700 c 0,85,86
 292 668 292 668 279 651.5 c 128,-1,87
 266 635 266 635 236 621 c 1,88,89
 292 596 292 596 292 542 c 0,90,91
 292 499 292 499 259 468.5 c 128,-1,92
 226 438 226 438 184 438 c 0,93,94
 64 438 64 438 64 521 c 0,95,96
 64 565 64 565 103 565 c 0,97,98
 146 565 146 565 146 527 c 0,99,100
 146 490 146 490 105 490 c 0,101,102
 100 490 100 490 100 486 c 0,103,104
 100 475 100 475 123 466 c 0,105,106
 142 458 142 458 155 458 c 0,107,108
 185 458 185 458 207 485 c 0,109,110
 228 510 228 510 228 541 c 0,111,112
 228 585 228 585 154 612 c 0,113,114
 147 615 147 615 144 615 c 256,115,116
 141 615 141 615 138 615 c 2,117,-1
 138 628 l 2,57,58
EndSplineSet
Validated: 1
EndChar

StartChar: y
Encoding: 121 121 67
Width: 600
GlyphClass: 2
Flags: W
LayerCount: 2
Fore
SplineSet
147 738 m 0,0,1
 138 706 138 706 138 666 c 0,2,3
 138 614 138 614 150 609 c 1,4,5
 174 644 174 644 221 644 c 0,6,7
 258 644 258 644 280 611 c 0,8,9
 300 582 300 582 300 544 c 0,10,11
 300 496 300 496 270 465.5 c 128,-1,12
 240 435 240 435 192 435 c 0,13,14
 126 435 126 435 90 500 c 0,15,16
 60 554 60 554 60 624 c 0,17,18
 60 687 60 687 98 743 c 0,19,20
 139 805 139 805 200 805 c 0,21,22
 240 805 240 805 265 783.5 c 128,-1,23
 290 762 290 762 290 722 c 0,24,25
 290 706 290 706 278 692 c 128,-1,26
 266 678 266 678 250 676 c 0,27,28
 246 676 246 676 243 676 c 0,29,30
 204 676 204 676 204 722 c 0,31,32
 204 739 204 739 216 754 c 128,-1,33
 228 769 228 769 244 769 c 1,34,-1
 240 777 l 1,35,36
 222 793 222 793 200 793 c 0,37,38
 163 793 163 793 147 738 c 0,0,1
196 625 m 0,39,40
 150 625 150 625 150 534 c 0,41,42
 150 450 150 450 196 450 c 0,43,44
 239 450 239 450 239 534 c 0,45,46
 239 625 239 625 196 625 c 0,39,40
303 157 m 0,47,48
 303 105 303 105 270.5 71 c 128,-1,49
 238 37 238 37 187 37 c 0,50,51
 135 37 135 37 103.5 71 c 128,-1,52
 72 105 72 105 72 157 c 0,53,54
 72 177 72 177 92 200 c 0,55,56
 110 221 110 221 130 229 c 1,57,58
 82 258 82 258 82 315 c 0,59,60
 82 358 82 358 113.5 385 c 128,-1,61
 145 412 145 412 188 412 c 0,62,63
 230 412 230 412 259 390 c 0,64,65
 292 364 292 364 292 324 c 2,66,-1
 292 318 l 2,67,68
 291 316 291 316 291 315 c 0,69,70
 290 295 290 295 272.5 273 c 128,-1,71
 255 251 255 251 236 244 c 1,72,73
 257 236 257 236 282 205 c 0,74,75
 303 180 303 180 303 157 c 0,47,48
259 318 m 0,76,77
 259 351 259 351 240 372 c 128,-1,78
 221 393 221 393 188 393 c 0,79,80
 164 393 164 393 145.5 376.5 c 128,-1,81
 127 360 127 360 127 336 c 0,82,83
 127 324 127 324 145.5 310.5 c 128,-1,84
 164 297 164 297 202 270 c 0,85,86
 207 266 207 266 218 257 c 1,87,88
 235 265 235 265 247 282.5 c 128,-1,89
 259 300 259 300 259 318 c 0,76,77
103 150 m 0,90,91
 103 112 103 112 126.5 85 c 128,-1,92
 150 58 150 58 187 58 c 0,93,94
 214 58 214 58 235 72 c 128,-1,95
 256 86 256 86 256 110 c 0,96,97
 256 126 256 126 237 146 c 0,98,99
 221 163 221 163 204 174 c 0,100,101
 180 188 180 188 148 214 c 1,102,103
 103 191 103 191 103 150 c 0,90,91
EndSplineSet
Validated: 1
EndChar

StartChar: z
Encoding: 122 122 68
Width: 600
GlyphClass: 2
Flags: W
LayerCount: 2
Fore
SplineSet
213 502 m 0,0,1
 222 534 222 534 222 574 c 0,2,3
 222 626 222 626 210 631 c 1,4,5
 186 596 186 596 139 596 c 0,6,7
 102 596 102 596 80 629 c 0,8,9
 60 658 60 658 60 696 c 0,10,11
 60 744 60 744 90 774.5 c 128,-1,12
 120 805 120 805 168 805 c 0,13,14
 234 805 234 805 270 740 c 0,15,16
 300 686 300 686 300 616 c 0,17,18
 300 553 300 553 262 497 c 0,19,20
 221 435 221 435 160 435 c 0,21,22
 120 435 120 435 95 456.5 c 128,-1,23
 70 478 70 478 70 518 c 0,24,25
 70 534 70 534 82 548 c 128,-1,26
 94 562 94 562 110 564 c 0,27,28
 114 564 114 564 117 564 c 0,29,30
 156 564 156 564 156 518 c 0,31,32
 156 501 156 501 144 486 c 128,-1,33
 132 471 132 471 116 471 c 1,34,-1
 120 463 l 1,35,36
 138 447 138 447 160 447 c 0,37,38
 197 447 197 447 213 502 c 0,0,1
164 615 m 0,39,40
 210 615 210 615 210 706 c 0,41,42
 210 790 210 790 164 790 c 0,43,44
 121 790 121 790 121 706 c 0,45,46
 121 615 121 615 164 615 c 0,39,40
303 157 m 0,47,48
 303 105 303 105 270.5 71 c 128,-1,49
 238 37 238 37 187 37 c 0,50,51
 135 37 135 37 103.5 71 c 128,-1,52
 72 105 72 105 72 157 c 0,53,54
 72 177 72 177 92 200 c 0,55,56
 110 221 110 221 130 229 c 1,57,58
 82 258 82 258 82 315 c 0,59,60
 82 358 82 358 113.5 385 c 128,-1,61
 145 412 145 412 188 412 c 0,62,63
 230 412 230 412 259 390 c 0,64,65
 292 364 292 364 292 324 c 2,66,-1
 292 318 l 2,67,68
 291 316 291 316 291 315 c 0,69,70
 290 295 290 295 272.5 273 c 128,-1,71
 255 251 255 251 236 244 c 1,72,73
 257 236 257 236 282 205 c 0,74,75
 303 180 303 180 303 157 c 0,47,48
259 318 m 0,76,77
 259 351 259 351 240 372 c 128,-1,78
 221 393 221 393 188 393 c 0,79,80
 164 393 164 393 145.5 376.5 c 128,-1,81
 127 360 127 360 127 336 c 0,82,83
 127 324 127 324 145.5 310.5 c 128,-1,84
 164 297 164 297 202 270 c 0,85,86
 207 266 207 266 218 257 c 1,87,88
 235 265 235 265 247 282.5 c 128,-1,89
 259 300 259 300 259 318 c 0,76,77
103 150 m 0,90,91
 103 112 103 112 126.5 85 c 128,-1,92
 150 58 150 58 187 58 c 0,93,94
 214 58 214 58 235 72 c 128,-1,95
 256 86 256 86 256 110 c 0,96,97
 256 126 256 126 237 146 c 0,98,99
 221 163 221 163 204 174 c 0,100,101
 180 188 180 188 148 214 c 1,102,103
 103 191 103 191 103 150 c 0,90,91
EndSplineSet
Validated: 1
EndChar

StartChar: braceleft
Encoding: 123 123 69
Width: 450
GlyphClass: 2
Flags: W
LayerCount: 2
Fore
SplineSet
315 157 m 0,0,1
 315 105 315 105 282.5 71 c 128,-1,2
 250 37 250 37 199 37 c 0,3,4
 147 37 147 37 115.5 71 c 128,-1,5
 84 105 84 105 84 157 c 0,6,7
 84 177 84 177 104 200 c 0,8,9
 122 221 122 221 142 229 c 1,10,11
 94 258 94 258 94 315 c 0,12,13
 94 358 94 358 125.5 385 c 128,-1,14
 157 412 157 412 200 412 c 0,15,16
 242 412 242 412 271 390 c 0,17,18
 304 364 304 364 304 324 c 2,19,-1
 304 318 l 2,20,21
 303 316 303 316 303 315 c 0,22,23
 302 295 302 295 284.5 273 c 128,-1,24
 267 251 267 251 248 244 c 1,25,26
 269 236 269 236 294 205 c 0,27,28
 315 180 315 180 315 157 c 0,0,1
271 318 m 0,29,30
 271 351 271 351 252 372 c 128,-1,31
 233 393 233 393 200 393 c 0,32,33
 176 393 176 393 157.5 376.5 c 128,-1,34
 139 360 139 360 139 336 c 0,35,36
 139 324 139 324 157.5 310.5 c 128,-1,37
 176 297 176 297 214 270 c 0,38,39
 219 266 219 266 230 257 c 1,40,41
 247 265 247 265 259 282.5 c 128,-1,42
 271 300 271 300 271 318 c 0,29,30
115 150 m 0,43,44
 115 112 115 112 138.5 85 c 128,-1,45
 162 58 162 58 199 58 c 0,46,47
 226 58 226 58 247 72 c 128,-1,48
 268 86 268 86 268 110 c 0,49,50
 268 126 268 126 249 146 c 0,51,52
 233 163 233 163 216 174 c 0,53,54
 192 188 192 188 160 214 c 1,55,56
 115 191 115 191 115 150 c 0,43,44
65 716 m 1,57,-1
 20 634 l 1,58,-1
 12 640 l 1,59,-1
 65 779 l 1,60,-1
 135 779 l 1,61,-1
 135 464 l 2,62,63
 135 455 135 455 147 450 c 256,64,65
 159 445 159 445 170 445 c 1,66,-1
 170 431 l 1,67,-1
 31 431 l 1,68,-1
 31 445 l 1,69,70
 65 445 65 445 65 464 c 2,71,-1
 65 716 l 1,57,-1
231 738 m 0,72,73
 278 738 278 738 278 696 c 0,74,75
 278 677 278 677 264 663 c 256,76,77
 250 649 250 649 231 649 c 0,78,79
 211 649 211 649 197 662 c 0,80,81
 183 676 183 676 183 696 c 0,82,83
 183 735 183 735 217 763 c 0,84,85
 249 788 249 788 290 788 c 0,86,87
 340 788 340 788 378 765 c 0,88,89
 422 740 422 740 423 691 c 0,90,91
 423 658 423 658 398 636 c 0,92,93
 380 621 380 621 344 601 c 0,94,95
 303 579 303 579 288 568 c 0,96,97
 258 545 258 545 229 500 c 1,98,99
 263 520 263 520 294 520 c 0,100,101
 324 521 324 521 336 510 c 0,102,103
 342 505 342 505 372 483 c 0,104,105
 383 475 383 475 390 475 c 0,106,107
 429 475 429 475 429 517 c 2,108,-1
 429 521 l 1,109,-1
 438 521 l 1,110,111
 438 426 438 426 367 425 c 0,112,113
 337 425 337 425 318 436 c 0,114,115
 284 457 284 457 282 460 c 0,116,117
 264 472 264 472 242 472 c 0,118,119
 204 472 204 472 198 453 c 0,120,121
 197 451 197 451 191 431 c 1,122,-1
 176 431 l 1,123,124
 179 451 179 451 182 459 c 0,125,126
 184 467 184 467 192 484 c 0,127,128
 207 512 207 512 251 556 c 0,129,130
 275 580 275 580 323 628 c 0,131,132
 359 665 359 665 359 688 c 0,133,134
 359 762 359 762 263 762 c 0,135,136
 252 762 252 762 240 757 c 0,137,138
 225 751 225 751 225 742 c 0,139,140
 225 738 225 738 231 738 c 0,72,73
EndSplineSet
Validated: 33
EndChar

StartChar: bar
Encoding: 124 124 70
Width: 600
GlyphClass: 2
Flags: W
LayerCount: 2
Fore
SplineSet
99 349 m 0,0,1
 147 349 147 349 148 305 c 0,2,3
 148 285 148 285 133 271 c 0,4,5
 119 257 119 257 99 257 c 0,6,7
 78 257 78 257 64 271 c 0,8,9
 49 285 49 285 49 305 c 0,10,11
 49 347 49 347 83 374 c 256,12,13
 117 401 117 401 160 401 c 0,14,15
 214 401 214 401 252 378 c 0,16,17
 299 350 299 350 299 300 c 0,18,19
 299 268 299 268 273 244 c 0,20,21
 258 229 258 229 217 206 c 0,22,23
 174 183 174 183 159 172 c 0,24,25
 127 147 127 147 96 101 c 1,26,27
 134 122 134 122 164 122 c 0,28,29
 190 122 190 122 209 112 c 0,30,31
 229 99 229 99 247 83 c 0,32,33
 256 74 256 74 265 74 c 0,34,35
 305 74 305 74 305 119 c 2,36,-1
 305 123 l 1,37,-1
 315 123 l 1,38,39
 315 15 315 15 240 13 c 0,40,41
 222 13 222 13 190 35 c 0,42,43
 163 53 163 53 153 59 c 0,44,45
 130 71 130 71 110 71 c 0,46,47
 73 71 73 71 64 52 c 0,48,49
 59 41 59 41 58 29 c 1,50,-1
 42 29 l 1,51,52
 45 50 45 50 48 58 c 0,53,54
 50 67 50 67 58 84 c 0,55,56
 73 113 73 113 120 159 c 0,57,58
 145 184 145 184 195 235 c 0,59,60
 232 273 232 273 232 296 c 0,61,62
 232 373 232 373 133 375 c 0,63,64
 121 375 121 375 109 370 c 0,65,66
 92 363 92 363 92 353 c 0,67,68
 92 349 92 349 99 349 c 0,0,1
138 628 m 2,69,70
 141 627 141 627 143 627 c 0,71,72
 147 627 147 627 148 628 c 0,73,74
 168 635 168 635 204 655 c 1,75,76
 228 674 228 674 228 701 c 0,77,78
 228 732 228 732 206.5 758 c 128,-1,79
 185 784 185 784 155 784 c 0,80,81
 142 784 142 784 123 776 c 0,82,83
 100 767 100 767 100 756 c 0,84,85
 100 752 100 752 105 752 c 0,86,87
 146 752 146 752 146 715 c 0,88,89
 146 677 146 677 103 677 c 0,90,91
 64 677 64 677 64 721 c 0,92,93
 64 804 64 804 184 804 c 0,94,95
 227 804 227 804 259.5 773.5 c 128,-1,96
 292 743 292 743 292 700 c 0,97,98
 292 668 292 668 279 651.5 c 128,-1,99
 266 635 266 635 236 621 c 1,100,101
 292 596 292 596 292 542 c 0,102,103
 292 499 292 499 259 468.5 c 128,-1,104
 226 438 226 438 184 438 c 0,105,106
 64 438 64 438 64 521 c 0,107,108
 64 565 64 565 103 565 c 0,109,110
 146 565 146 565 146 527 c 0,111,112
 146 490 146 490 105 490 c 0,113,114
 100 490 100 490 100 486 c 0,115,116
 100 475 100 475 123 466 c 0,117,118
 142 458 142 458 155 458 c 0,119,120
 185 458 185 458 207 485 c 0,121,122
 228 510 228 510 228 541 c 0,123,124
 228 585 228 585 154 612 c 0,125,126
 147 615 147 615 144 615 c 256,127,128
 141 615 141 615 138 615 c 2,129,-1
 138 628 l 2,69,70
EndSplineSet
Validated: 1
EndChar

StartChar: braceright
Encoding: 125 125 71
Width: 502
GlyphClass: 2
Flags: W
LayerCount: 2
Fore
SplineSet
258 628 m 0,0,1
 352 628 352 628 417 587 c 0,2,3
 494 540 494 540 494 451 c 0,4,5
 494 421 494 421 463 391.5 c 128,-1,6
 432 362 432 362 402 362 c 0,7,8
 361 362 361 362 331 386 c 128,-1,9
 301 410 301 410 301 451 c 0,10,11
 301 484 301 484 333 506 c 0,12,13
 361 526 361 526 395 526 c 0,14,15
 418 526 418 526 418 537 c 0,16,17
 418 545 418 545 407 556 c 0,18,19
 365 600 365 600 299 600 c 0,20,21
 221 600 221 600 180 543 c 0,22,23
 137 481 137 481 137 330 c 0,24,25
 137 176 137 176 187 112 c 0,26,27
 219 70 219 70 273 70 c 0,28,29
 347 70 347 70 403.5 123 c 128,-1,30
 460 176 460 176 460 249 c 1,31,-1
 486 249 l 1,32,33
 486 225 486 225 472.5 186.5 c 128,-1,34
 459 148 459 148 444 129 c 0,35,36
 413 92 413 92 366 66 c 0,37,38
 315 38 315 38 270 38 c 0,39,40
 153 38 153 38 75 129 c 0,41,42
 2 216 2 216 2 335 c 0,43,44
 2 451 2 451 71 536 c 0,45,46
 145 628 145 628 258 628 c 0,0,1
EndSplineSet
Validated: 1
EndChar

StartChar: uni0080
Encoding: 128 128 72
Width: 372
GlyphClass: 2
Flags: W
LayerCount: 2
Fore
SplineSet
374 0 m 0,0,1
 374 -39 374 -39 365.5 -69.5 c 128,-1,2
 357 -100 357 -100 344.5 -123 c 128,-1,3
 332 -146 332 -146 316.5 -162 c 128,-1,4
 301 -178 301 -178 286 -188 c 1,5,-1
 283 -181 l 1,6,7
 305 -158 305 -158 317 -135.5 c 128,-1,8
 329 -113 329 -113 334.5 -90 c 128,-1,9
 340 -67 340 -67 341.5 -44.5 c 128,-1,10
 343 -22 343 -22 343 0 c 0,11,12
 343 23 343 23 341.5 46 c 128,-1,13
 340 69 340 69 334.5 92 c 128,-1,14
 329 115 329 115 316.5 137.5 c 128,-1,15
 304 160 304 160 283 181 c 1,16,-1
 286 188 l 1,17,18
 299 180 299 180 314.5 163 c 128,-1,19
 330 146 330 146 343 121.5 c 128,-1,20
 356 97 356 97 365 66 c 128,-1,21
 374 35 374 35 374 0 c 0,0,1
88 -188 m 1,22,23
 74 -178 74 -178 58 -162 c 128,-1,24
 42 -146 42 -146 29 -123 c 128,-1,25
 16 -100 16 -100 8 -69.5 c 128,-1,26
 0 -39 0 -39 0 0 c 0,27,28
 0 35 0 35 8 65 c 128,-1,29
 16 95 16 95 29 119.5 c 128,-1,30
 42 144 42 144 58 161.5 c 128,-1,31
 74 179 74 179 88 188 c 1,32,-1
 91 181 l 1,33,34
 69 159 69 159 57 137 c 128,-1,35
 45 115 45 115 39.5 92 c 128,-1,36
 34 69 34 69 32.5 46 c 128,-1,37
 31 23 31 23 31 0 c 0,38,39
 31 -22 31 -22 32.5 -44.5 c 128,-1,40
 34 -67 34 -67 39.5 -90 c 128,-1,41
 45 -113 45 -113 57.5 -136 c 128,-1,42
 70 -159 70 -159 91 -181 c 1,43,-1
 88 -188 l 1,22,23
156 135 m 1,44,-1
 156 82 l 1,45,46
 176 100 176 100 192 107.5 c 128,-1,47
 208 115 208 115 227 115 c 0,48,49
 254 115 254 115 267 95 c 128,-1,50
 280 75 280 75 281 52 c 0,51,52
 282 41 282 41 278.5 29 c 128,-1,53
 275 17 275 17 271 7 c 0,54,55
 266 -4 266 -4 258.5 -14.5 c 128,-1,56
 251 -25 251 -25 243 -34 c 0,57,58
 238 -39 238 -39 219.5 -52.5 c 128,-1,59
 201 -66 201 -66 180 -79.5 c 128,-1,60
 159 -93 159 -93 142 -104 c 2,61,-1
 126 -115 l 1,62,-1
 126 333 l 1,63,-1
 156 333 l 1,64,-1
 156 135 l 1,44,-1
213 66 m 0,65,66
 210 70 210 70 204 73 c 128,-1,67
 198 76 198 76 190.5 76 c 128,-1,68
 183 76 183 76 176 71.5 c 128,-1,69
 169 67 169 67 163 55 c 0,70,71
 156 41 156 41 156 23 c 128,-1,72
 156 5 156 5 156 -12 c 2,73,-1
 156 -77 l 1,74,75
 156 -77 156 -77 160 -74 c 0,76,77
 164 -70 164 -70 170 -64 c 128,-1,78
 176 -58 176 -58 183 -51.5 c 128,-1,79
 190 -45 190 -45 196 -40 c 0,80,81
 205 -31 205 -31 212 -19.5 c 128,-1,82
 219 -8 219 -8 223 9 c 0,83,84
 231 43 231 43 213 66 c 0,65,66
EndSplineSet
Validated: 33
EndChar

StartChar: uni0081
Encoding: 129 129 73
Width: 337
GlyphClass: 2
Flags: W
LayerCount: 2
Fore
SplineSet
287 259 m 0,0,1
 282 218 282 218 266.5 172 c 128,-1,2
 251 126 251 126 219 73 c 0,3,4
 186 18 186 18 152.5 -33 c 128,-1,5
 119 -84 119 -84 89 -127 c 0,6,7
 63 -163 63 -163 41 -208.5 c 128,-1,8
 19 -254 19 -254 19 -297 c 1,9,-1
 0 -297 l 1,10,-1
 0 -25 l 1,11,-1
 19 -25 l 2,12,13
 34 -23 34 -23 52 -17 c 0,14,15
 66 -13 66 -13 85 -5.5 c 128,-1,16
 104 2 104 2 124 15 c 0,17,18
 137 24 137 24 154 40.5 c 128,-1,19
 171 57 171 57 188.5 81 c 128,-1,20
 206 105 206 105 223 137 c 128,-1,21
 240 169 240 169 253 208 c 0,22,23
 267 251 267 251 270 283.5 c 128,-1,24
 273 316 273 316 272 358 c 0,25,26
 272 381 272 381 267.5 406 c 128,-1,27
 263 431 263 431 256 455 c 128,-1,28
 249 479 249 479 240.5 501 c 128,-1,29
 232 523 232 523 223 540 c 1,30,-1
 234 547 l 1,31,32
 248 525 248 525 260 495 c 128,-1,33
 272 465 272 465 280 428 c 128,-1,34
 288 391 288 391 290.5 348 c 128,-1,35
 293 305 293 305 287 259 c 0,0,1
EndSplineSet
Validated: 33
EndChar

StartChar: uni0082
Encoding: 130 130 74
Width: 337
GlyphClass: 2
Flags: W
LayerCount: 2
Fore
SplineSet
294 -163 m 0,0,1
 289 -183 289 -183 280.5 -198 c 128,-1,2
 272 -213 272 -213 263 -225 c 1,3,-1
 255 -220 l 1,4,5
 264 -203 264 -203 269 -188.5 c 128,-1,6
 274 -174 274 -174 278 -163 c 0,7,8
 283 -146 283 -146 283.5 -120.5 c 128,-1,9
 284 -95 284 -95 273 -61 c 0,10,11
 262 -22 262 -22 243 6 c 128,-1,12
 224 34 224 34 203.5 53.5 c 128,-1,13
 183 73 183 73 162.5 85.5 c 128,-1,14
 142 98 142 98 127 106 c 0,15,16
 107 117 107 117 84 122.5 c 128,-1,17
 61 128 61 128 43 130 c 0,18,19
 21 133 21 133 0 133 c 1,20,-1
 0 356 l 1,21,-1
 14 356 l 1,22,23
 14 343 14 343 15 336 c 128,-1,24
 16 329 16 329 22 315 c 0,25,26
 27 304 27 304 32 295.5 c 128,-1,27
 37 287 37 287 50 269 c 0,28,29
 61 254 61 254 67.5 247 c 128,-1,30
 74 240 74 240 89 226 c 0,31,32
 119 198 119 198 161 157.5 c 128,-1,33
 203 117 203 117 242 65 c 0,34,35
 266 32 266 32 280 4 c 128,-1,36
 294 -24 294 -24 299 -58 c 0,37,38
 301 -72 301 -72 302 -83.5 c 128,-1,39
 303 -95 303 -95 302.5 -107 c 128,-1,40
 302 -119 302 -119 300 -132.5 c 128,-1,41
 298 -146 298 -146 294 -163 c 0,0,1
EndSplineSet
Validated: 33
EndChar

StartChar: uni0083
Encoding: 131 131 75
Width: 285
GlyphClass: 2
Flags: W
LayerCount: 2
Fore
SplineSet
256 -1 m 256,0,1
 256 23 256 23 247 43 c 128,-1,2
 238 63 238 63 222.5 78.5 c 128,-1,3
 207 94 207 94 186 103.5 c 128,-1,4
 165 113 165 113 141 113 c 256,5,6
 117 113 117 113 97 103.5 c 128,-1,7
 77 94 77 94 61.5 78.5 c 128,-1,8
 46 63 46 63 37.5 43 c 128,-1,9
 29 23 29 23 29 -1 c 256,10,11
 29 -25 29 -25 37.5 -45.5 c 128,-1,12
 46 -66 46 -66 61.5 -81 c 128,-1,13
 77 -96 77 -96 97.5 -105.5 c 128,-1,14
 118 -115 118 -115 141 -115 c 0,15,16
 165 -115 165 -115 186 -105.5 c 128,-1,17
 207 -96 207 -96 222.5 -81 c 128,-1,18
 238 -66 238 -66 247 -45.5 c 128,-1,19
 256 -25 256 -25 256 -1 c 256,0,1
284 -1 m 0,20,21
 284 -31 284 -31 272.5 -56 c 128,-1,22
 261 -81 261 -81 241.5 -100.5 c 128,-1,23
 222 -120 222 -120 196 -130.5 c 128,-1,24
 170 -141 170 -141 141 -141 c 256,25,26
 112 -141 112 -141 86.5 -130.5 c 128,-1,27
 61 -120 61 -120 42.5 -100.5 c 128,-1,28
 24 -81 24 -81 13 -56 c 128,-1,29
 2 -31 2 -31 2 -1 c 0,30,31
 2 28 2 28 13 53.5 c 128,-1,32
 24 79 24 79 42.5 98 c 128,-1,33
 61 117 61 117 87 127.5 c 128,-1,34
 113 138 113 138 141 138 c 0,35,36
 170 138 170 138 196 127.5 c 128,-1,37
 222 117 222 117 241.5 98 c 128,-1,38
 261 79 261 79 272.5 53.5 c 128,-1,39
 284 28 284 28 284 -1 c 0,20,21
EndSplineSet
Validated: 1
EndChar

StartChar: uni0084
Encoding: 132 132 76
Width: 649
GlyphClass: 2
Flags: W
LayerCount: 2
Fore
SplineSet
310 -87 m 1,0,-1
 282 -87 l 1,1,-1
 282 70 l 1,2,-1
 243 32 l 2,3,4
 235 25 235 25 227.5 16.5 c 128,-1,5
 220 8 220 8 215 8 c 256,6,7
 210 8 210 8 205 16.5 c 128,-1,8
 200 25 200 25 194 31 c 2,9,-1
 111 121 l 2,10,11
 111 122 111 122 107 126.5 c 128,-1,12
 103 131 103 131 98.5 136 c 128,-1,13
 94 141 94 141 90 145.5 c 128,-1,14
 86 150 86 150 84 150 c 256,15,16
 82 150 82 150 77 146.5 c 128,-1,17
 72 143 72 143 66.5 139 c 128,-1,18
 61 135 61 135 57 131 c 128,-1,19
 53 127 53 127 52 126 c 2,20,-1
 0 77 l 1,21,-1
 0 114 l 1,22,-1
 135 243 l 2,23,24
 141 249 141 249 147 253 c 0,25,26
 152 257 152 257 157.5 260.5 c 128,-1,27
 163 264 163 264 165 264 c 256,28,29
 167 264 167 264 171 260 c 128,-1,30
 175 256 175 256 180 251 c 0,31,32
 185 245 185 245 191 238 c 2,33,-1
 268 158 l 1,34,-1
 282 144 l 1,35,-1
 282 346 l 1,36,-1
 310 346 l 1,37,-1
 310 156 l 1,38,-1
 318 165 l 1,39,-1
 398 238 l 2,40,41
 401 241 401 241 411 250.5 c 128,-1,42
 421 260 421 260 424 260 c 0,43,44
 429 260 429 260 435 252 c 128,-1,45
 441 244 441 244 447 237 c 2,46,-1
 518 155 l 2,47,48
 518 154 518 154 522 149.5 c 128,-1,49
 526 145 526 145 531.5 140 c 128,-1,50
 537 135 537 135 541.5 131 c 128,-1,51
 546 127 546 127 548 127 c 256,52,53
 550 127 550 127 554.5 130 c 128,-1,54
 559 133 559 133 563.5 137 c 128,-1,55
 568 141 568 141 571.5 144.5 c 128,-1,56
 575 148 575 148 577 150 c 2,57,-1
 622 198 l 1,58,-1
 622 160 l 1,59,-1
 490 29 l 1,60,61
 490 29 490 29 486 26 c 0,62,63
 482 22 482 22 477.5 17.5 c 128,-1,64
 473 13 473 13 468.5 10 c 128,-1,65
 464 7 464 7 462 7 c 256,66,67
 460 7 460 7 455.5 10.5 c 128,-1,68
 451 14 451 14 446.5 19 c 128,-1,69
 442 24 442 24 438 28 c 2,70,-1
 435 32 l 1,71,-1
 368 105 l 2,72,73
 368 106 368 106 364.5 110 c 128,-1,74
 361 114 361 114 357 118 c 128,-1,75
 353 122 353 122 349.5 125 c 128,-1,76
 346 128 346 128 345 128 c 0,77,78
 340 128 340 128 331.5 119.5 c 128,-1,79
 323 111 323 111 321 109 c 2,80,-1
 310 98 l 1,81,-1
 310 -87 l 1,0,-1
EndSplineSet
Validated: 1
EndChar

StartChar: uni0085
Encoding: 133 133 77
Width: 303
GlyphClass: 2
Flags: W
LayerCount: 2
Fore
SplineSet
302 -456 m 0,0,1
 303 -482 303 -482 300.5 -503 c 128,-1,2
 298 -524 298 -524 293 -542.5 c 128,-1,3
 288 -561 288 -561 281.5 -577.5 c 128,-1,4
 275 -594 275 -594 270 -610 c 1,5,-1
 256 -607 l 1,6,7
 270 -573 270 -573 279.5 -536 c 128,-1,8
 289 -499 289 -499 287 -469 c 0,9,10
 285 -433 285 -433 276 -400 c 128,-1,11
 267 -367 267 -367 256 -334 c 0,12,13
 240 -287 240 -287 211 -247 c 128,-1,14
 182 -207 182 -207 146 -182 c 0,15,16
 127 -169 127 -169 105.5 -157.5 c 128,-1,17
 84 -146 84 -146 65 -137 c 0,18,19
 42 -127 42 -127 20 -118 c 0,20,21
 15 -119 15 -119 11 -119 c 128,-1,22
 7 -119 7 -119 5 -119 c 2,23,-1
 0 -119 l 1,24,-1
 0 82 l 1,25,-1
 0 304 l 1,26,-1
 18 304 l 1,27,28
 18 286 18 286 20 279 c 128,-1,29
 22 272 22 272 27 257 c 0,30,31
 32 244 32 244 37 235.5 c 128,-1,32
 42 227 42 227 56 210 c 0,33,34
 57 208 57 208 64 201 c 128,-1,35
 71 194 71 194 78 186 c 128,-1,36
 85 178 85 178 91.5 171.5 c 128,-1,37
 98 165 98 165 100 163 c 0,38,39
 114 148 114 148 127 137 c 128,-1,40
 140 126 140 126 153 115 c 128,-1,41
 166 104 166 104 180.5 92.5 c 128,-1,42
 195 81 195 81 213 65 c 0,43,44
 233 47 233 47 248 22.5 c 128,-1,45
 263 -2 263 -2 273 -26.5 c 128,-1,46
 283 -51 283 -51 289 -74 c 128,-1,47
 295 -97 295 -97 297 -115 c 0,48,49
 299 -128 299 -128 299.5 -136.5 c 128,-1,50
 300 -145 300 -145 299.5 -153.5 c 128,-1,51
 299 -162 299 -162 297 -172.5 c 128,-1,52
 295 -183 295 -183 291 -201 c 0,53,54
 288 -215 288 -215 285.5 -223.5 c 128,-1,55
 283 -232 283 -232 279.5 -240 c 128,-1,56
 276 -248 276 -248 272 -257 c 128,-1,57
 268 -266 268 -266 262 -280 c 1,58,59
 268 -293 268 -293 272 -304 c 0,60,61
 276 -314 276 -314 280 -325 c 128,-1,62
 284 -336 284 -336 286 -344 c 0,63,64
 289 -358 289 -358 291.5 -369.5 c 128,-1,65
 294 -381 294 -381 296 -394 c 128,-1,66
 298 -407 298 -407 299.5 -422 c 128,-1,67
 301 -437 301 -437 302 -456 c 0,0,1
276 -183 m 0,68,69
 277 -171 277 -171 278.5 -165 c 128,-1,70
 280 -159 280 -159 280 -153 c 128,-1,71
 280 -147 280 -147 277.5 -139 c 128,-1,72
 275 -131 275 -131 270 -115 c 0,73,74
 259 -76 259 -76 240 -47.5 c 128,-1,75
 221 -19 221 -19 200.5 0 c 128,-1,76
 180 19 180 19 159.5 32 c 128,-1,77
 139 45 139 45 124 53 c 0,78,79
 96 68 96 68 67 74.5 c 128,-1,80
 38 81 38 81 18 82 c 1,81,82
 18 78 18 78 18.5 74.5 c 128,-1,83
 19 71 19 71 19 68 c 0,84,85
 20 50 20 50 25 38 c 128,-1,86
 30 26 30 26 37 15.5 c 128,-1,87
 44 5 44 5 54.5 -5.5 c 128,-1,88
 65 -16 65 -16 78 -31 c 0,89,90
 111 -67 111 -67 145.5 -104.5 c 128,-1,91
 180 -142 180 -142 218 -195 c 0,92,93
 226 -207 226 -207 237 -227 c 128,-1,94
 248 -247 248 -247 254 -258 c 1,95,96
 264 -240 264 -240 269 -219 c 128,-1,97
 274 -198 274 -198 276 -183 c 0,68,69
EndSplineSet
Validated: 33
EndChar

StartChar: uni0087
Encoding: 135 135 78
Width: 290
GlyphClass: 2
Flags: W
LayerCount: 2
Fore
SplineSet
268 72 m 1,0,-1
 59 -114 l 1,1,-1
 268 -114 l 1,2,-1
 268 72 l 1,0,-1
292 129 m 1,3,-1
 292 -136 l 1,4,-1
 -2 -136 l 1,5,-1
 292 129 l 1,3,-1
EndSplineSet
Validated: 1
EndChar

StartChar: uni0088
Encoding: 136 136 79
Width: 540
GlyphClass: 2
Flags: W
LayerCount: 2
Fore
SplineSet
243 32 m 1,0,1
 235 25 235 25 227.5 16.5 c 128,-1,2
 220 8 220 8 215 8 c 256,3,4
 210 8 210 8 205 16.5 c 128,-1,5
 200 25 200 25 194 31 c 2,6,-1
 111 121 l 2,7,8
 111 122 111 122 107 126.5 c 128,-1,9
 103 131 103 131 98.5 136 c 128,-1,10
 94 141 94 141 90 145.5 c 128,-1,11
 86 150 86 150 84 150 c 256,12,13
 82 150 82 150 77 146.5 c 128,-1,14
 72 143 72 143 66.5 139 c 128,-1,15
 61 135 61 135 57 131 c 128,-1,16
 53 127 53 127 52 126 c 2,17,-1
 0 77 l 1,18,-1
 0 114 l 1,19,-1
 135 243 l 2,20,21
 141 249 141 249 147 253 c 0,22,23
 152 257 152 257 157.5 260.5 c 128,-1,24
 163 264 163 264 165 264 c 256,25,26
 167 264 167 264 171 260 c 128,-1,27
 175 256 175 256 180 251 c 0,28,29
 185 245 185 245 191 238 c 2,30,-1
 268 158 l 2,31,32
 269 156 269 156 277 147 c 128,-1,33
 285 138 285 138 289 138 c 256,34,35
 293 138 293 138 300 146 c 128,-1,36
 307 154 307 154 314 160 c 2,37,-1
 398 238 l 2,38,39
 401 241 401 241 411 250.5 c 128,-1,40
 421 260 421 260 424 260 c 0,41,42
 429 260 429 260 435 252 c 128,-1,43
 441 244 441 244 447 237 c 2,44,-1
 518 155 l 2,45,46
 518 154 518 154 522 149.5 c 128,-1,47
 526 145 526 145 531.5 140 c 128,-1,48
 537 135 537 135 541.5 131 c 128,-1,49
 546 127 546 127 548 127 c 256,50,51
 550 127 550 127 554.5 130 c 128,-1,52
 559 133 559 133 563.5 137 c 128,-1,53
 568 141 568 141 571.5 144.5 c 128,-1,54
 575 148 575 148 577 150 c 2,55,-1
 622 198 l 1,56,-1
 622 160 l 1,57,-1
 490 29 l 1,58,59
 490 29 490 29 486 26 c 0,60,61
 482 22 482 22 477.5 17.5 c 128,-1,62
 473 13 473 13 468.5 10 c 128,-1,63
 464 7 464 7 462 7 c 256,64,65
 460 7 460 7 455.5 10.5 c 128,-1,66
 451 14 451 14 446.5 19 c 128,-1,67
 442 24 442 24 438 28 c 2,68,-1
 435 32 l 1,69,-1
 368 105 l 2,70,71
 368 106 368 106 364.5 110 c 128,-1,72
 361 114 361 114 357 118 c 128,-1,73
 353 122 353 122 349.5 125 c 128,-1,74
 346 128 346 128 345 128 c 0,75,76
 343 128 343 128 338.5 125 c 128,-1,77
 334 122 334 122 330 118 c 128,-1,78
 326 114 326 114 322 110 c 128,-1,79
 318 106 318 106 317 105 c 2,80,-1
 243 32 l 1,81,-1
 243 32 l 1,0,1
EndSplineSet
Validated: 5
EndChar

StartChar: uni0089
Encoding: 137 137 80
Width: 432
GlyphClass: 2
Flags: W
LayerCount: 2
Fore
SplineSet
209 216 m 1,0,1
 184 204 184 204 169 182 c 128,-1,2
 154 160 154 160 144.5 131.5 c 128,-1,3
 135 103 135 103 132 69.5 c 128,-1,4
 129 36 129 36 129 1 c 0,5,6
 129 -35 129 -35 132 -70 c 128,-1,7
 135 -105 135 -105 144.5 -134.5 c 128,-1,8
 154 -164 154 -164 169 -186 c 128,-1,9
 184 -208 184 -208 209 -217 c 1,10,-1
 209 216 l 1,0,1
238 384 m 1,11,-1
 238 253 l 1,12,13
 277 251 277 251 311.5 240.5 c 128,-1,14
 346 230 346 230 372 211.5 c 128,-1,15
 398 193 398 193 413 165 c 128,-1,16
 428 137 428 137 428 101 c 0,17,18
 428 86 428 86 420 72 c 128,-1,19
 412 58 412 58 399.5 47.5 c 128,-1,20
 387 37 387 37 373 31 c 128,-1,21
 359 25 359 25 349 25 c 256,22,23
 339 25 339 25 324 28.5 c 128,-1,24
 309 32 309 32 295.5 40 c 128,-1,25
 282 48 282 48 272 63 c 128,-1,26
 262 78 262 78 262 101 c 0,27,28
 262 131 262 131 281 151 c 128,-1,29
 300 171 300 171 327 171 c 0,30,31
 344 171 344 171 345 179.5 c 128,-1,32
 346 188 346 188 340 196 c 0,33,34
 325 212 325 212 298 222 c 128,-1,35
 271 232 271 232 238 225 c 1,36,-1
 238 -223 l 1,37,-1
 247 -223 l 2,38,39
 273 -223 273 -223 299 -212 c 128,-1,40
 325 -201 325 -201 346 -181 c 128,-1,41
 367 -161 367 -161 380 -133 c 128,-1,42
 393 -105 393 -105 392 -73 c 1,43,-1
 421 -73 l 1,44,45
 421 -83 421 -83 417.5 -97.5 c 128,-1,46
 414 -112 414 -112 409 -126.5 c 128,-1,47
 404 -141 404 -141 397.5 -154.5 c 128,-1,48
 391 -168 391 -168 385 -176 c 0,49,50
 372 -191 372 -191 354.5 -205.5 c 128,-1,51
 337 -220 337 -220 317 -231 c 128,-1,52
 297 -242 297 -242 276.5 -248.5 c 128,-1,53
 256 -255 256 -255 238 -255 c 1,54,-1
 238 -422 l 1,55,-1
 209 -422 l 1,56,-1
 209 -253 l 1,57,58
 164 -248 164 -248 126 -225 c 128,-1,59
 88 -202 88 -202 61 -167.5 c 128,-1,60
 34 -133 34 -133 19 -89.5 c 128,-1,61
 4 -46 4 -46 4 1 c 256,62,63
 4 48 4 48 19 92 c 128,-1,64
 34 136 34 136 60.5 170.5 c 128,-1,65
 87 205 87 205 125 227 c 128,-1,66
 163 249 163 249 209 252 c 1,67,-1
 209 384 l 1,68,-1
 238 384 l 1,11,-1
EndSplineSet
Validated: 33
EndChar

StartChar: uni008A
Encoding: 138 138 81
Width: 194
GlyphClass: 2
Flags: W
LayerCount: 2
Fore
SplineSet
98 -97 m 0,0,1
 57 -97 57 -97 29 -69 c 128,-1,2
 1 -41 1 -41 1 0 c 0,3,4
 1 19 1 19 8.5 37 c 128,-1,5
 16 55 16 55 29 68.5 c 128,-1,6
 42 82 42 82 60 89.5 c 128,-1,7
 78 97 78 97 98 97 c 0,8,9
 117 97 117 97 135 89.5 c 128,-1,10
 153 82 153 82 166 68.5 c 128,-1,11
 179 55 179 55 187 37 c 128,-1,12
 195 19 195 19 195 0 c 0,13,14
 195 -20 195 -20 187 -38 c 128,-1,15
 179 -56 179 -56 166 -69 c 128,-1,16
 153 -82 153 -82 135 -89.5 c 128,-1,17
 117 -97 117 -97 98 -97 c 0,0,1
98 76 m 0,18,19
 65 76 65 76 42 53.5 c 128,-1,20
 19 31 19 31 19 0 c 0,21,22
 19 -32 19 -32 42.5 -54.5 c 128,-1,23
 66 -77 66 -77 98 -77 c 0,24,25
 113 -77 113 -77 126.5 -71 c 128,-1,26
 140 -65 140 -65 151 -54.5 c 128,-1,27
 162 -44 162 -44 168 -29.5 c 128,-1,28
 174 -15 174 -15 174 0 c 256,29,30
 174 15 174 15 168 29 c 128,-1,31
 162 43 162 43 151 53 c 128,-1,32
 140 63 140 63 126.5 69.5 c 128,-1,33
 113 76 113 76 98 76 c 0,18,19
EndSplineSet
Validated: 1
EndChar

StartChar: uni008B
Encoding: 139 139 82
Width: 307
GlyphClass: 2
Flags: W
LayerCount: 2
Fore
SplineSet
159 129 m 1,0,1
 189 93 189 93 226 62 c 128,-1,2
 263 31 263 31 307 -2 c 1,3,-1
 150 -131 l 1,4,5
 120 -96 120 -96 85 -67 c 128,-1,6
 50 -38 50 -38 0 2 c 1,7,-1
 159 129 l 1,0,1
55 16 m 1,8,-1
 171 -84 l 1,9,-1
 251 -17 l 1,10,-1
 137 81 l 1,11,-1
 55 16 l 1,8,-1
EndSplineSet
Validated: 1
EndChar

StartChar: uni008C
Encoding: 140 140 83
Width: 524
GlyphClass: 2
Flags: W
LayerCount: 2
Fore
SplineSet
525 0 m 0,0,1
 525 -39 525 -39 517 -69.5 c 128,-1,2
 509 -100 509 -100 496 -123 c 128,-1,3
 483 -146 483 -146 468 -162 c 128,-1,4
 453 -178 453 -178 437 -188 c 1,5,-1
 434 -181 l 1,6,7
 456 -158 456 -158 468 -135.5 c 128,-1,8
 480 -113 480 -113 486 -90 c 128,-1,9
 492 -67 492 -67 493.5 -44.5 c 128,-1,10
 495 -22 495 -22 495 0 c 0,11,12
 495 23 495 23 493.5 46 c 128,-1,13
 492 69 492 69 486 92 c 128,-1,14
 480 115 480 115 468 137.5 c 128,-1,15
 456 160 456 160 434 181 c 1,16,-1
 437 188 l 1,17,18
 450 180 450 180 465.5 163 c 128,-1,19
 481 146 481 146 494.5 121.5 c 128,-1,20
 508 97 508 97 516.5 66 c 128,-1,21
 525 35 525 35 525 0 c 0,0,1
87 -188 m 1,22,23
 73 -178 73 -178 57 -162 c 128,-1,24
 41 -146 41 -146 28 -123 c 128,-1,25
 15 -100 15 -100 7 -69.5 c 128,-1,26
 -1 -39 -1 -39 -1 0 c 0,27,28
 -1 35 -1 35 7 65 c 128,-1,29
 15 95 15 95 28 119.5 c 128,-1,30
 41 144 41 144 57 161.5 c 128,-1,31
 73 179 73 179 87 188 c 1,32,-1
 90 181 l 1,33,34
 68 159 68 159 56 137 c 128,-1,35
 44 115 44 115 38.5 92 c 128,-1,36
 33 69 33 69 31.5 46 c 128,-1,37
 30 23 30 23 30 0 c 0,38,39
 30 -22 30 -22 31.5 -44.5 c 128,-1,40
 33 -67 33 -67 38.5 -90 c 128,-1,41
 44 -113 44 -113 56.5 -136 c 128,-1,42
 69 -159 69 -159 90 -181 c 1,43,-1
 87 -188 l 1,22,23
156 254 m 1,44,-1
 156 119 l 1,45,-1
 156 66 l 1,46,47
 176 84 176 84 192 91 c 128,-1,48
 208 98 208 98 227 98 c 0,49,50
 254 98 254 98 266.5 78.5 c 128,-1,51
 279 59 279 59 280 37 c 0,52,53
 281 25 281 25 278 13 c 128,-1,54
 275 1 275 1 270 -9 c 0,55,56
 265 -20 265 -20 258 -30.5 c 128,-1,57
 251 -41 251 -41 243 -49 c 0,58,59
 238 -54 238 -54 219.5 -67.5 c 128,-1,60
 201 -81 201 -81 180.5 -95 c 128,-1,61
 160 -109 160 -109 144 -120 c 2,62,-1
 128 -131 l 1,63,-1
 128 316 l 1,64,-1
 156 316 l 1,65,-1
 156 254 l 1,44,-1
374 49 m 0,66,67
 370 53 370 53 363.5 56 c 128,-1,68
 357 59 357 59 350.5 59 c 128,-1,69
 344 59 344 59 337 54.5 c 128,-1,70
 330 50 330 50 324 39 c 0,71,72
 317 26 317 26 315.5 7.5 c 128,-1,73
 314 -11 314 -11 314 -29 c 2,74,-1
 314 -92 l 1,75,76
 314 -92 314 -92 319 -88 c 0,77,78
 324 -85 324 -85 330.5 -80 c 128,-1,79
 337 -75 337 -75 344 -68 c 128,-1,80
 351 -61 351 -61 356 -56 c 0,81,82
 365 -47 365 -47 372 -36 c 128,-1,83
 379 -25 379 -25 384 -7 c 0,84,85
 392 27 392 27 374 49 c 0,66,67
314 255 m 1,86,-1
 314 120 l 1,87,-1
 314 67 l 1,88,89
 334 85 334 85 350.5 91.5 c 128,-1,90
 367 98 367 98 386 98 c 0,91,92
 413 98 413 98 425.5 78.5 c 128,-1,93
 438 59 438 59 439 37 c 0,94,95
 440 26 440 26 437 14 c 128,-1,96
 434 2 434 2 430 -8 c 0,97,98
 425 -20 425 -20 417.5 -30 c 128,-1,99
 410 -40 410 -40 401 -49 c 0,100,101
 396 -54 396 -54 377.5 -67.5 c 128,-1,102
 359 -81 359 -81 338.5 -95 c 128,-1,103
 318 -109 318 -109 302 -120 c 2,104,-1
 287 -130 l 1,105,-1
 287 316 l 1,106,-1
 314 316 l 1,107,-1
 314 255 l 1,86,-1
213 49 m 0,108,109
 210 53 210 53 204 56 c 128,-1,110
 198 59 198 59 190.5 59 c 128,-1,111
 183 59 183 59 176.5 54.5 c 128,-1,112
 170 50 170 50 164 39 c 0,113,114
 158 26 158 26 157 7.5 c 128,-1,115
 156 -11 156 -11 156 -29 c 2,116,-1
 156 -92 l 1,117,-1
 160 -88 l 2,118,119
 164 -85 164 -85 170 -80 c 128,-1,120
 176 -75 176 -75 183 -68 c 128,-1,121
 190 -61 190 -61 196 -56 c 0,122,123
 205 -47 205 -47 212 -36 c 128,-1,124
 219 -25 219 -25 223 -7 c 0,125,126
 231 27 231 27 213 49 c 0,108,109
EndSplineSet
Validated: 33
EndChar

StartChar: uni008D
Encoding: 141 141 84
Width: 335
GlyphClass: 2
Flags: W
LayerCount: 2
Fore
SplineSet
329 424 m 0,0,1
 328 404 328 404 326.5 389.5 c 128,-1,2
 325 375 325 375 322 362 c 128,-1,3
 319 349 319 349 316.5 337.5 c 128,-1,4
 314 326 314 326 311 312 c 0,5,6
 307 296 307 296 301.5 280.5 c 128,-1,7
 296 265 296 265 290 248 c 1,8,9
 294 241 294 241 298 234 c 128,-1,10
 302 227 302 227 305.5 218.5 c 128,-1,11
 309 210 309 210 312.5 198 c 128,-1,12
 316 186 316 186 321 168 c 0,13,14
 328 133 328 133 327.5 111.5 c 128,-1,15
 327 90 327 90 321 63 c 0,16,17
 316 43 316 43 311 29.5 c 128,-1,18
 306 16 306 16 298.5 4 c 128,-1,19
 291 -8 291 -8 280 -23 c 128,-1,20
 269 -38 269 -38 252 -59 c 0,21,22
 232 -85 232 -85 207.5 -105 c 128,-1,23
 183 -125 183 -125 159.5 -142 c 128,-1,24
 136 -159 136 -159 114.5 -174 c 128,-1,25
 93 -189 93 -189 79 -205 c 0,26,27
 68 -217 68 -217 57 -225.5 c 128,-1,28
 46 -234 46 -234 37 -245 c 128,-1,29
 28 -256 28 -256 22.5 -272.5 c 128,-1,30
 17 -289 17 -289 17 -315 c 1,31,-1
 0 -315 l 1,32,33
 0 -315 0 -315 0 -298 c 256,34,35
 0 -281 0 -281 0 -252.5 c 128,-1,36
 0 -224 0 -224 0 -188 c 128,-1,37
 0 -152 0 -152 0 -114 c 2,38,-1
 0 88 l 1,39,-1
 19 88 l 1,40,41
 49 96 49 96 78 106 c 0,42,43
 103 114 103 114 129 125.5 c 128,-1,44
 155 137 155 137 174 151 c 0,45,46
 210 176 210 176 237 215 c 128,-1,47
 264 254 264 254 283 300 c 0,48,49
 293 326 293 326 301.5 365 c 128,-1,50
 310 404 310 404 311 438 c 0,51,52
 312 476 312 476 302 528.5 c 128,-1,53
 292 581 292 581 260 633 c 1,54,-1
 271 641 l 1,55,56
 286 618 286 618 297.5 590 c 128,-1,57
 309 562 309 562 317 533 c 128,-1,58
 325 504 325 504 327.5 475.5 c 128,-1,59
 330 447 330 447 329 424 c 0,0,1
305 162 m 0,60,61
 302 179 302 179 296 193.5 c 128,-1,62
 290 208 290 208 282 228 c 1,63,64
 275 214 275 214 266 197 c 128,-1,65
 257 180 257 180 245 163 c 0,66,67
 227 136 227 136 205.5 117 c 128,-1,68
 184 98 184 98 163.5 82 c 128,-1,69
 143 66 143 66 124 51 c 128,-1,70
 105 36 105 36 89 17 c 0,71,72
 75 2 75 2 62 -12.5 c 128,-1,73
 49 -27 49 -27 39.5 -41.5 c 128,-1,74
 30 -56 30 -56 24 -72.5 c 128,-1,75
 18 -89 18 -89 18 -111 c 1,76,77
 42 -114 42 -114 67 -112 c 0,78,79
 87 -110 87 -110 110 -104.5 c 128,-1,80
 133 -99 133 -99 154 -87 c 0,81,82
 166 -80 166 -80 183.5 -66 c 128,-1,83
 201 -52 201 -52 220.5 -32.5 c 128,-1,84
 240 -13 240 -13 258 12.5 c 128,-1,85
 276 38 276 38 291 69 c 0,86,87
 294 76 294 76 297.5 87.5 c 128,-1,88
 301 99 301 99 303 112.5 c 128,-1,89
 305 126 305 126 306 139 c 128,-1,90
 307 152 307 152 305 162 c 0,60,61
EndSplineSet
Validated: 33
EndChar

StartChar: uni008E
Encoding: 142 142 85
Width: 432
GlyphClass: 2
Flags: W
LayerCount: 2
Fore
SplineSet
225 253 m 0,0,1
 266 253 266 253 303 243 c 128,-1,2
 340 233 340 233 367.5 214.5 c 128,-1,3
 395 196 395 196 411.5 167 c 128,-1,4
 428 138 428 138 428 101 c 0,5,6
 428 86 428 86 420 72 c 128,-1,7
 412 58 412 58 399.5 47.5 c 128,-1,8
 387 37 387 37 373 31 c 128,-1,9
 359 25 359 25 349 25 c 256,10,11
 339 25 339 25 324 28.5 c 128,-1,12
 309 32 309 32 295.5 40 c 128,-1,13
 282 48 282 48 272 63 c 128,-1,14
 262 78 262 78 262 101 c 0,15,16
 262 131 262 131 281 151 c 128,-1,17
 300 171 300 171 327 171 c 0,18,19
 345 171 345 171 346 179.5 c 128,-1,20
 347 188 347 188 341 196 c 0,21,22
 324 213 324 213 294.5 222.5 c 128,-1,23
 265 232 265 232 227 222 c 0,24,25
 196 214 196 214 177.5 192.5 c 128,-1,26
 159 171 159 171 148 141.5 c 128,-1,27
 137 112 137 112 133 75.5 c 128,-1,28
 129 39 129 39 129 1 c 0,29,30
 129 -41 129 -41 133.5 -81.5 c 128,-1,31
 138 -122 138 -122 151 -153.5 c 128,-1,32
 164 -185 164 -185 187 -204 c 128,-1,33
 210 -223 210 -223 247 -223 c 0,34,35
 273 -223 273 -223 299.5 -212 c 128,-1,36
 326 -201 326 -201 347 -181 c 128,-1,37
 368 -161 368 -161 380.5 -133 c 128,-1,38
 393 -105 393 -105 392 -73 c 1,39,-1
 421 -73 l 1,40,41
 421 -83 421 -83 417.5 -97.5 c 128,-1,42
 414 -112 414 -112 409 -126.5 c 128,-1,43
 404 -141 404 -141 397.5 -154.5 c 128,-1,44
 391 -168 391 -168 385 -176 c 0,45,46
 372 -192 372 -192 354 -206.5 c 128,-1,47
 336 -221 336 -221 316 -232 c 128,-1,48
 296 -243 296 -243 275 -249 c 128,-1,49
 254 -255 254 -255 236 -255 c 0,50,51
 185 -255 185 -255 142 -234 c 128,-1,52
 99 -213 99 -213 68.5 -177.5 c 128,-1,53
 38 -142 38 -142 21 -95.5 c 128,-1,54
 4 -49 4 -49 4 1 c 0,55,56
 4 50 4 50 20 95.5 c 128,-1,57
 36 141 36 141 65 176 c 128,-1,58
 94 211 94 211 135 232 c 128,-1,59
 176 253 176 253 225 253 c 0,0,1
EndSplineSet
Validated: 33
EndChar

StartChar: uni008F
Encoding: 143 143 86
Width: 879
GlyphClass: 2
Flags: W
LayerCount: 2
Fore
SplineSet
887 186 m 0,0,1
 887 184 887 184 884.5 174 c 128,-1,2
 882 164 882 164 877 149.5 c 128,-1,3
 872 135 872 135 865.5 118.5 c 128,-1,4
 859 102 859 102 852 89 c 0,5,6
 840 66 840 66 823.5 45.5 c 128,-1,7
 807 25 807 25 787.5 9 c 128,-1,8
 768 -7 768 -7 745.5 -17 c 128,-1,9
 723 -27 723 -27 699 -26 c 0,10,11
 681 -25 681 -25 671.5 -20 c 128,-1,12
 662 -15 662 -15 650 -9 c 0,13,14
 639 -3 639 -3 634.5 2.5 c 128,-1,15
 630 8 630 8 621 17 c 1,16,-1
 553 -147 l 1,17,-1
 625 -154 l 1,18,-1
 625 -173 l 1,19,-1
 357 -173 l 1,20,-1
 357 -154 l 1,21,-1
 445 -147 l 1,22,23
 484 -55 484 -55 517 20 c 0,24,25
 530 52 530 52 544 84 c 128,-1,26
 558 116 558 116 569 142 c 128,-1,27
 580 168 580 168 587.5 186.5 c 128,-1,28
 595 205 595 205 597 210 c 0,29,30
 601 220 601 220 596 224 c 128,-1,31
 591 228 591 228 584 226 c 0,32,33
 583 226 583 226 573 224 c 128,-1,34
 563 222 563 222 549 212 c 128,-1,35
 535 202 535 202 516 179.5 c 128,-1,36
 497 157 497 157 477 117 c 0,37,38
 466 94 466 94 453.5 70.5 c 128,-1,39
 441 47 441 47 426 27.5 c 128,-1,40
 411 8 411 8 392 -3 c 128,-1,41
 373 -14 373 -14 348 -12 c 0,42,43
 340 -11 340 -11 333 -6 c 128,-1,44
 326 -1 326 -1 321 7 c 128,-1,45
 316 15 316 15 315 26 c 128,-1,46
 314 37 314 37 318 49 c 2,47,-1
 359 173 l 1,48,49
 359 173 359 173 362 182 c 0,50,51
 364 190 364 190 365 200 c 128,-1,52
 366 210 366 210 363.5 218.5 c 128,-1,53
 361 227 361 227 352 228 c 256,54,55
 343 229 343 229 333 221 c 128,-1,56
 323 213 323 213 314.5 202 c 128,-1,57
 306 191 306 191 302 182 c 2,58,-1
 297 173 l 1,59,-1
 236 0 l 1,60,-1
 170 0 l 1,61,-1
 226 173 l 1,62,-1
 228 182 l 2,63,64
 230 190 230 190 231 200.5 c 128,-1,65
 232 211 232 211 230.5 219.5 c 128,-1,66
 229 228 229 228 222 228 c 0,67,68
 210 229 210 229 199 221 c 128,-1,69
 188 213 188 213 180.5 202 c 128,-1,70
 173 191 173 191 168 182 c 2,71,-1
 164 173 l 1,72,-1
 102 0 l 1,73,-1
 37 0 l 1,74,-1
 98 173 l 1,75,-1
 100 180 l 2,76,77
 101 186 101 186 102.5 194.5 c 128,-1,78
 104 203 104 203 103 211.5 c 128,-1,79
 102 220 102 220 98 224 c 0,80,81
 84 236 84 236 68 223.5 c 128,-1,82
 52 211 52 211 39 190 c 0,83,84
 24 165 24 165 8 131 c 1,85,-1
 -3 133 l 1,86,-1
 1 146 l 2,87,88
 5 158 5 158 13.5 175.5 c 128,-1,89
 22 193 22 193 33.5 213 c 128,-1,90
 45 233 45 233 60 249.5 c 128,-1,91
 75 266 75 266 92.5 276 c 128,-1,92
 110 286 110 286 129 283 c 0,93,94
 137 282 137 282 146 275.5 c 128,-1,95
 155 269 155 269 162.5 261.5 c 128,-1,96
 170 254 170 254 175.5 248 c 128,-1,97
 181 242 181 242 181 241 c 1,98,99
 194 252 194 252 209 261 c 0,100,101
 221 269 221 269 237 275.5 c 128,-1,102
 253 282 253 282 270 282 c 0,103,104
 276 282 276 282 284.5 275.5 c 128,-1,105
 293 269 293 269 300 262 c 0,106,107
 308 253 308 253 317 243 c 1,108,109
 331 254 331 254 346 262 c 0,110,111
 358 269 358 269 373.5 275 c 128,-1,112
 389 281 389 281 403 280 c 0,113,114
 421 278 421 278 429.5 265.5 c 128,-1,115
 438 253 438 253 440 238.5 c 128,-1,116
 442 224 442 224 440.5 212.5 c 128,-1,117
 439 201 439 201 439 200 c 2,118,-1
 399 103 l 2,119,120
 397 99 397 99 395.5 91 c 128,-1,121
 394 83 394 83 393 75 c 128,-1,122
 392 67 392 67 393 60.5 c 128,-1,123
 394 54 394 54 399 54 c 256,124,125
 404 54 404 54 412 63 c 128,-1,126
 420 72 420 72 427.5 84.5 c 128,-1,127
 435 97 435 97 442.5 111 c 128,-1,128
 450 125 450 125 455 134 c 0,129,130
 497 212 497 212 535 245 c 128,-1,131
 573 278 573 278 607 279 c 0,132,133
 632 279 632 279 642 271 c 0,134,135
 651 265 651 265 658 260 c 128,-1,136
 665 255 665 255 669.5 250 c 128,-1,137
 674 245 674 245 678 237 c 128,-1,138
 682 229 682 229 686 218 c 1,139,140
 696 231 696 231 702.5 237 c 128,-1,141
 709 243 709 243 720 251 c 0,142,143
 734 262 734 262 755.5 270 c 128,-1,144
 777 278 777 278 800 278 c 0,145,146
 873 277 873 277 887 186 c 0,0,1
792 211 m 0,147,148
 792 228 792 228 786 233.5 c 128,-1,149
 780 239 780 239 769 239 c 0,150,151
 755 239 755 239 741 231 c 128,-1,152
 727 223 727 223 714.5 211.5 c 128,-1,153
 702 200 702 200 692 185.5 c 128,-1,154
 682 171 682 171 677 158 c 0,155,156
 673 149 673 149 668.5 136.5 c 128,-1,157
 664 124 664 124 658 110 c 0,158,159
 653 97 653 97 650 84 c 128,-1,160
 647 71 647 71 647 60 c 0,161,162
 647 57 647 57 649 49 c 128,-1,163
 651 41 651 41 655.5 33 c 128,-1,164
 660 25 660 25 667 18 c 128,-1,165
 674 11 674 11 683 11 c 0,166,167
 700 11 700 11 719 39 c 128,-1,168
 738 67 738 67 754 102 c 128,-1,169
 770 137 770 137 781 169.5 c 128,-1,170
 792 202 792 202 792 211 c 0,147,148
EndSplineSet
Validated: 33
EndChar

StartChar: uni0090
Encoding: 144 144 87
Width: 504
GlyphClass: 2
Flags: W
LayerCount: 2
Fore
SplineSet
221 222 m 0,0,1
 221 202 221 202 209 195.5 c 128,-1,2
 197 189 197 189 188 189 c 0,3,4
 168 189 168 189 163.5 198.5 c 128,-1,5
 159 208 159 208 159 219.5 c 128,-1,6
 159 231 159 231 158.5 242 c 128,-1,7
 158 253 158 253 145 258 c 0,8,9
 136 261 136 261 126 259.5 c 128,-1,10
 116 258 116 258 107 252.5 c 128,-1,11
 98 247 98 247 92 236.5 c 128,-1,12
 86 226 86 226 86 212 c 0,13,14
 86 194 86 194 95 184 c 128,-1,15
 104 174 104 174 118 168.5 c 128,-1,16
 132 163 132 163 148.5 158 c 128,-1,17
 165 153 165 153 179 143.5 c 128,-1,18
 193 134 193 134 202 118 c 128,-1,19
 211 102 211 102 211 74 c 0,20,21
 211 51 211 51 199.5 32.5 c 128,-1,22
 188 14 188 14 171 1.5 c 128,-1,23
 154 -11 154 -11 134 -18.5 c 128,-1,24
 114 -26 114 -26 97 -26 c 0,25,26
 86 -26 86 -26 69.5 -21.5 c 128,-1,27
 53 -17 53 -17 38.5 -9 c 128,-1,28
 24 -1 24 -1 13 13 c 128,-1,29
 2 27 2 27 2 46 c 0,30,31
 2 53 2 53 3 62.5 c 128,-1,32
 4 72 4 72 8 79 c 128,-1,33
 12 86 12 86 20 91 c 128,-1,34
 28 96 28 96 40 96 c 0,35,36
 57 96 57 96 64 82.5 c 128,-1,37
 71 69 71 69 71 60 c 0,38,39
 71 55 71 55 67 45.5 c 128,-1,40
 63 36 63 36 58 27 c 1,41,42
 67 18 67 18 73 12 c 128,-1,43
 79 6 79 6 92 6 c 0,44,45
 102 6 102 6 114.5 10 c 128,-1,46
 127 14 127 14 136.5 21.5 c 128,-1,47
 146 29 146 29 153 39.5 c 128,-1,48
 160 50 160 50 160 62 c 0,49,50
 160 75 160 75 150.5 84.5 c 128,-1,51
 141 94 141 94 127.5 102 c 128,-1,52
 114 110 114 110 97.5 117 c 128,-1,53
 81 124 81 124 67 134 c 128,-1,54
 53 144 53 144 44 158.5 c 128,-1,55
 35 173 35 173 35 195 c 256,56,57
 35 217 35 217 46 234 c 128,-1,58
 57 251 57 251 73.5 263 c 128,-1,59
 90 275 90 275 109.5 282 c 128,-1,60
 129 289 129 289 146 289 c 0,61,62
 177 289 177 289 199 268.5 c 128,-1,63
 221 248 221 248 221 222 c 0,0,1
636 394 m 0,64,65
 636 383 636 383 632 370.5 c 128,-1,66
 628 358 628 358 620 348 c 128,-1,67
 612 338 612 338 600.5 331.5 c 128,-1,68
 589 325 589 325 574 325 c 0,69,70
 556 325 556 325 548 338 c 128,-1,71
 540 351 540 351 540 364 c 0,72,73
 540 374 540 374 545.5 381 c 128,-1,74
 551 388 551 388 559 394 c 128,-1,75
 567 400 567 400 576.5 407.5 c 128,-1,76
 586 415 586 415 593 424 c 1,77,78
 593 434 593 434 586 436 c 128,-1,79
 579 438 579 438 572 438 c 0,80,81
 553 438 553 438 538.5 431 c 128,-1,82
 524 424 524 424 514 412 c 128,-1,83
 504 400 504 400 496.5 385 c 128,-1,84
 489 370 489 370 483 353 c 0,85,86
 479 341 479 341 470.5 315.5 c 128,-1,87
 462 290 462 290 457 264 c 1,88,-1
 554 264 l 1,89,-1
 554 243 l 1,90,-1
 503 243 l 1,91,-1
 451 243 l 1,92,93
 447 231 447 231 442 215.5 c 128,-1,94
 437 200 437 200 433 185 c 128,-1,95
 429 170 429 170 425.5 157.5 c 128,-1,96
 422 145 422 145 420 139 c 0,97,98
 413 119 413 119 407.5 103 c 128,-1,99
 402 87 402 87 396.5 71 c 128,-1,100
 391 55 391 55 385.5 39 c 128,-1,101
 380 23 380 23 372 3 c 0,102,103
 358 -30 358 -30 332.5 -71 c 128,-1,104
 307 -112 307 -112 268 -150 c 0,105,106
 241 -177 241 -177 210.5 -187.5 c 128,-1,107
 180 -198 180 -198 153 -198 c 0,108,109
 143 -198 143 -198 131.5 -191.5 c 128,-1,110
 120 -185 120 -185 110 -175 c 128,-1,111
 100 -165 100 -165 94 -151.5 c 128,-1,112
 88 -138 88 -138 88 -125 c 0,113,114
 88 -114 88 -114 91 -101.5 c 128,-1,115
 94 -89 94 -89 101.5 -79.5 c 128,-1,116
 109 -70 109 -70 119 -63 c 128,-1,117
 129 -56 129 -56 143 -56 c 0,118,119
 166 -56 166 -56 176 -70.5 c 128,-1,120
 186 -85 186 -85 186 -104 c 0,121,122
 183 -120 183 -120 176 -129.5 c 128,-1,123
 169 -139 169 -139 162 -145 c 128,-1,124
 155 -151 155 -151 149 -153.5 c 128,-1,125
 143 -156 143 -156 143 -160 c 0,126,127
 148 -166 148 -166 150.5 -167.5 c 128,-1,128
 153 -169 153 -169 157 -169 c 0,129,130
 173 -169 173 -169 187.5 -156 c 128,-1,131
 202 -143 202 -143 213.5 -123 c 128,-1,132
 225 -103 225 -103 235.5 -79.5 c 128,-1,133
 246 -56 246 -56 253 -34 c 128,-1,134
 260 -12 260 -12 264.5 5.5 c 128,-1,135
 269 23 269 23 271 29 c 0,136,137
 284 79 284 79 298.5 127.5 c 128,-1,138
 313 176 313 176 331 243 c 1,139,-1
 244 243 l 1,140,-1
 244 264 l 1,141,-1
 340 264 l 1,142,143
 352 294 352 294 365.5 317 c 128,-1,144
 379 340 379 340 393 360 c 0,145,146
 429 413 429 413 474.5 437.5 c 128,-1,147
 520 462 520 462 574 461 c 0,148,149
 598 461 598 461 617 442 c 128,-1,150
 636 423 636 423 636 394 c 0,64,65
EndSplineSet
Validated: 33
EndChar

StartChar: uni0091
Encoding: 145 145 88
Width: 519
GlyphClass: 2
Flags: W
LayerCount: 2
Fore
SplineSet
0 260 m 1,0,-1
 260 519 l 1,1,-1
 519 260 l 1,2,-1
 260 0 l 1,3,-1
 0 260 l 1,0,-1
234 462 m 1,4,-1
 57 285 l 1,5,-1
 285 57 l 1,6,-1
 462 234 l 1,7,-1
 234 462 l 1,4,-1
EndSplineSet
Validated: 1
EndChar

StartChar: uni0092
Encoding: 146 146 89
Width: 603
GlyphClass: 2
Flags: W
LayerCount: 2
Fore
SplineSet
603 0 m 0,0,1
 603 -39 603 -39 594.5 -75 c 128,-1,2
 586 -111 586 -111 572.5 -139.5 c 128,-1,3
 559 -168 559 -168 542.5 -188.5 c 128,-1,4
 526 -209 526 -209 510 -218 c 1,5,-1
 507 -210 l 1,6,7
 530 -184 530 -184 543 -156.5 c 128,-1,8
 556 -129 556 -129 562.5 -101.5 c 128,-1,9
 569 -74 569 -74 570.5 -48 c 128,-1,10
 572 -22 572 -22 572 0 c 0,11,12
 572 23 572 23 570.5 49 c 128,-1,13
 569 75 569 75 562.5 102 c 128,-1,14
 556 129 556 129 542.5 156 c 128,-1,15
 529 183 529 183 507 209 c 1,16,-1
 510 217 l 1,17,18
 526 208 526 208 543 186 c 128,-1,19
 560 164 560 164 573.5 134 c 128,-1,20
 587 104 587 104 595 69.5 c 128,-1,21
 603 35 603 35 603 0 c 0,0,1
93 -218 m 1,22,23
 77 -209 77 -209 60.5 -188.5 c 128,-1,24
 44 -168 44 -168 30.5 -139.5 c 128,-1,25
 17 -111 17 -111 8.5 -75 c 128,-1,26
 0 -39 0 -39 0 0 c 0,27,28
 0 35 0 35 8 69.5 c 128,-1,29
 16 104 16 104 29.5 134 c 128,-1,30
 43 164 43 164 60 186 c 128,-1,31
 77 208 77 208 93 217 c 1,32,-1
 96 209 l 1,33,34
 72 183 72 183 59.5 156 c 128,-1,35
 47 129 47 129 40.5 102 c 128,-1,36
 34 75 34 75 32.5 49 c 128,-1,37
 31 23 31 23 31 0 c 0,38,39
 31 -22 31 -22 32.5 -48 c 128,-1,40
 34 -74 34 -74 40.5 -101.5 c 128,-1,41
 47 -129 47 -129 60 -156.5 c 128,-1,42
 73 -184 73 -184 96 -210 c 1,43,-1
 93 -218 l 1,22,23
EndSplineSet
Validated: 1
EndChar

StartChar: uni0093
Encoding: 147 147 90
Width: 292
GlyphClass: 2
Flags: W
LayerCount: 2
Fore
SplineSet
40 83 m 0,0,1
 29 83 29 83 20.5 81 c 128,-1,2
 12 79 12 79 1 75 c 0,3,4
 -10 70 -10 70 -20 66 c 128,-1,5
 -30 62 -30 62 -38 58 c 2,6,-1
 -54 50 l 1,7,-1
 -63 55 l 1,8,9
 -50 70 -50 70 -39 83 c 0,10,11
 -29 94 -29 94 -18 105 c 128,-1,12
 -7 116 -7 116 0 122 c 0,13,14
 22 140 22 140 48 155.5 c 128,-1,15
 74 171 74 171 92 171 c 0,16,17
 121 171 121 171 138.5 161.5 c 128,-1,18
 156 152 156 152 170 140 c 128,-1,19
 184 128 184 128 199 118.5 c 128,-1,20
 214 109 214 109 239 109 c 0,21,22
 250 109 250 109 258 111 c 128,-1,23
 266 113 266 113 278 117 c 0,24,25
 289 121 289 121 298.5 124.5 c 128,-1,26
 308 128 308 128 316 132 c 0,27,28
 325 136 325 136 333 140 c 1,29,-1
 342 134 l 1,30,31
 329 120 329 120 317 108 c 0,32,33
 307 97 307 97 296 86 c 128,-1,34
 285 75 285 75 278 69 c 0,35,36
 258 52 258 52 231.5 36 c 128,-1,37
 205 20 205 20 185 20 c 0,38,39
 156 20 156 20 139 30 c 128,-1,40
 122 40 122 40 107.5 51.5 c 128,-1,41
 93 63 93 63 78.5 73 c 128,-1,42
 64 83 64 83 40 83 c 0,0,1
EndSplineSet
Validated: 1
EndChar

StartChar: uni0094
Encoding: 148 148 91
Width: 389
GlyphClass: 2
Flags: W
LayerCount: 2
Fore
SplineSet
305 212 m 0,0,1
 305 229 305 229 299.5 234.5 c 128,-1,2
 294 240 294 240 283 240 c 0,3,4
 269 240 269 240 255 232 c 128,-1,5
 241 224 241 224 228.5 212.5 c 128,-1,6
 216 201 216 201 206 186.5 c 128,-1,7
 196 172 196 172 190 159 c 0,8,9
 186 150 186 150 181.5 137.5 c 128,-1,10
 177 125 177 125 172 111 c 0,11,12
 167 98 167 98 164 85 c 128,-1,13
 161 72 161 72 161 60 c 0,14,15
 161 57 161 57 163 49.5 c 128,-1,16
 165 42 165 42 169.5 34 c 128,-1,17
 174 26 174 26 180.5 19 c 128,-1,18
 187 12 187 12 197 12 c 0,19,20
 214 12 214 12 233 40 c 128,-1,21
 252 68 252 68 268 103 c 128,-1,22
 284 138 284 138 294.5 170.5 c 128,-1,23
 305 203 305 203 305 212 c 0,0,1
-24 133 m 0,24,25
 14 213 14 213 48 247 c 128,-1,26
 82 281 82 281 121 280 c 0,27,28
 146 280 146 280 156 272 c 0,29,30
 165 266 165 266 171.5 261 c 128,-1,31
 178 256 178 256 182.5 251 c 128,-1,32
 187 246 187 246 191.5 238 c 128,-1,33
 196 230 196 230 200 219 c 1,34,35
 210 232 210 232 216 238 c 128,-1,36
 222 244 222 244 233 252 c 0,37,38
 247 263 247 263 269 271 c 128,-1,39
 291 279 291 279 313 279 c 0,40,41
 349 279 349 279 365.5 256 c 128,-1,42
 382 233 382 233 389 187 c 0,43,44
 389 185 389 185 388 175 c 128,-1,45
 387 165 387 165 385 150.5 c 128,-1,46
 383 136 383 136 378 119.5 c 128,-1,47
 373 103 373 103 366 90 c 0,48,49
 354 67 354 67 337.5 46.5 c 128,-1,50
 321 26 321 26 301.5 10 c 128,-1,51
 282 -6 282 -6 259.5 -16 c 128,-1,52
 237 -26 237 -26 213 -25 c 0,53,54
 195 -24 195 -24 185 -19 c 128,-1,55
 175 -14 175 -14 164 -8 c 256,56,57
 153 -2 153 -2 148 3.5 c 128,-1,58
 143 9 143 9 134 18 c 1,59,-1
 67 -146 l 1,60,-1
 138 -153 l 1,61,-1
 138 -172 l 1,62,-1
 -129 -172 l 1,63,-1
 -129 -153 l 1,64,-1
 -41 -146 l 1,65,66
 -2 -54 -2 -54 31 22 c 0,67,68
 44 54 44 54 58 85.5 c 128,-1,69
 72 117 72 117 82.5 143 c 128,-1,70
 93 169 93 169 101 187.5 c 128,-1,71
 109 206 109 206 111 211 c 0,72,73
 115 221 115 221 109 233 c 128,-1,74
 103 245 103 245 91 245 c 0,75,76
 77 245 77 245 59.5 228.5 c 128,-1,77
 42 212 42 212 28 195 c 0,78,79
 14 176 14 176 5.5 159 c 128,-1,80
 -3 142 -3 142 -11 131 c 0,81,82
 -13 129 -13 129 -17.5 130.5 c 128,-1,83
 -22 132 -22 132 -24 133 c 0,24,25
EndSplineSet
Validated: 33
EndChar

StartChar: uni0095
Encoding: 149 149 92
Width: 251
GlyphClass: 2
Flags: W
LayerCount: 2
Fore
SplineSet
225 222 m 0,0,1
 225 202 225 202 213 195.5 c 128,-1,2
 201 189 201 189 193 189 c 0,3,4
 173 189 173 189 168 198.5 c 128,-1,5
 163 208 163 208 163 219.5 c 128,-1,6
 163 231 163 231 162.5 242 c 128,-1,7
 162 253 162 253 150 258 c 0,8,9
 141 261 141 261 130.5 259.5 c 128,-1,10
 120 258 120 258 111 252.5 c 128,-1,11
 102 247 102 247 96 236.5 c 128,-1,12
 90 226 90 226 90 212 c 0,13,14
 90 194 90 194 99.5 184 c 128,-1,15
 109 174 109 174 122.5 168.5 c 128,-1,16
 136 163 136 163 152.5 158 c 128,-1,17
 169 153 169 153 183 143.5 c 128,-1,18
 197 134 197 134 206 118 c 128,-1,19
 215 102 215 102 215 74 c 0,20,21
 215 51 215 51 204 32.5 c 128,-1,22
 193 14 193 14 175.5 1.5 c 128,-1,23
 158 -11 158 -11 138 -18.5 c 128,-1,24
 118 -26 118 -26 101 -26 c 0,25,26
 90 -26 90 -26 73.5 -21.5 c 128,-1,27
 57 -17 57 -17 42.5 -9 c 128,-1,28
 28 -1 28 -1 17 13 c 128,-1,29
 6 27 6 27 6 46 c 0,30,31
 6 53 6 53 7 62.5 c 128,-1,32
 8 72 8 72 12 79 c 128,-1,33
 16 86 16 86 24 91 c 128,-1,34
 32 96 32 96 44 96 c 0,35,36
 61 96 61 96 68 82.5 c 128,-1,37
 75 69 75 69 75 60 c 0,38,39
 75 55 75 55 71.5 45.5 c 128,-1,40
 68 36 68 36 62 27 c 1,41,42
 71 18 71 18 77 12 c 128,-1,43
 83 6 83 6 96 6 c 0,44,45
 106 6 106 6 118.5 10 c 128,-1,46
 131 14 131 14 141 21.5 c 128,-1,47
 151 29 151 29 157.5 39.5 c 128,-1,48
 164 50 164 50 164 62 c 0,49,50
 164 75 164 75 154.5 84.5 c 128,-1,51
 145 94 145 94 131.5 102 c 128,-1,52
 118 110 118 110 101.5 117 c 128,-1,53
 85 124 85 124 71 134 c 128,-1,54
 57 144 57 144 48 158.5 c 128,-1,55
 39 173 39 173 39 195 c 256,56,57
 39 217 39 217 50 234 c 128,-1,58
 61 251 61 251 77.5 263 c 128,-1,59
 94 275 94 275 113.5 282 c 128,-1,60
 133 289 133 289 151 289 c 0,61,62
 182 289 182 289 203.5 268.5 c 128,-1,63
 225 248 225 248 225 222 c 0,0,1
EndSplineSet
Validated: 1
EndChar

StartChar: uni0096
Encoding: 150 150 93
Width: 679
GlyphClass: 2
Flags: W
LayerCount: 2
Fore
SplineSet
1 2 m 1,0,1
 1 1 1 1 9 1 c 128,-1,2
 17 1 17 1 17 2 c 1,3,4
 41 -84 41 -84 82 -134.5 c 128,-1,5
 123 -185 123 -185 169 -211.5 c 128,-1,6
 215 -238 215 -238 260.5 -245.5 c 128,-1,7
 306 -253 306 -253 340 -253 c 256,8,9
 374 -253 374 -253 419.5 -245.5 c 128,-1,10
 465 -238 465 -238 511.5 -211.5 c 128,-1,11
 558 -185 558 -185 599 -134.5 c 128,-1,12
 640 -84 640 -84 664 2 c 1,13,-1
 679 2 l 1,14,15
 679 -64 679 -64 652.5 -132.5 c 128,-1,16
 626 -201 626 -201 580 -257 c 128,-1,17
 534 -313 534 -313 472 -349.5 c 128,-1,18
 410 -386 410 -386 340 -386 c 256,19,20
 270 -386 270 -386 208 -349.5 c 128,-1,21
 146 -313 146 -313 100 -257 c 128,-1,22
 54 -201 54 -201 27.5 -132.5 c 128,-1,23
 1 -64 1 -64 1 2 c 1,0,1
264 -52 m 0,24,25
 264 -20 264 -20 286 2 c 128,-1,26
 308 24 308 24 339 24 c 0,27,28
 371 24 371 24 393 2 c 128,-1,29
 415 -20 415 -20 415 -52 c 0,30,31
 415 -83 415 -83 393 -105 c 128,-1,32
 371 -127 371 -127 339 -127 c 0,33,34
 308 -127 308 -127 286 -105 c 128,-1,35
 264 -83 264 -83 264 -52 c 0,24,25
EndSplineSet
Validated: 1
EndChar

StartChar: uni0097
Encoding: 151 151 94
Width: 231
GlyphClass: 2
Flags: W
LayerCount: 2
Fore
SplineSet
-1 244 m 1,0,-1
 90 244 l 1,1,-1
 146 118 l 1,2,-1
 204 242 l 1,3,-1
 230 242 l 1,4,-1
 121 -11 l 1,5,-1
 -1 244 l 1,0,-1
EndSplineSet
Validated: 1
EndChar

StartChar: uni0098
Encoding: 152 152 95
Width: 306
GlyphClass: 2
Flags: W
LayerCount: 2
Fore
SplineSet
-6 -133 m 1,0,-1
 150 136 l 1,1,-1
 306 -133 l 1,2,-1
 -6 -133 l 1,0,-1
38 -109 m 1,3,-1
 262 -109 l 1,4,-1
 150 85 l 1,5,-1
 38 -109 l 1,3,-1
EndSplineSet
Validated: 1
EndChar

StartChar: uni0099
Encoding: 153 153 96
Width: 301
GlyphClass: 2
Flags: W
LayerCount: 2
Fore
SplineSet
237 105 m 0,0,1
 248 92 248 92 251.5 82 c 128,-1,2
 255 72 255 72 255 57 c 0,3,4
 255 40 255 40 246.5 25 c 128,-1,5
 238 10 238 10 224.5 -1 c 128,-1,6
 211 -12 211 -12 194 -19.5 c 128,-1,7
 177 -27 177 -27 161 -28 c 0,8,9
 146 -29 146 -29 133 -24 c 128,-1,10
 120 -19 120 -19 109.5 -13.5 c 128,-1,11
 99 -8 99 -8 89.5 -3 c 128,-1,12
 80 2 80 2 71 2 c 0,13,14
 57 2 57 2 46.5 -0.5 c 128,-1,15
 36 -3 36 -3 28 -6 c 0,16,17
 19 -10 19 -10 12 -13 c 1,18,-1
 -1 -1 l 1,19,20
 51 50 51 50 95 91 c 0,21,22
 113 108 113 108 132.5 125.5 c 128,-1,23
 152 143 152 143 167.5 158 c 128,-1,24
 183 173 183 173 195.5 184 c 128,-1,25
 208 195 208 195 214 199 c 1,26,27
 203 198 203 198 188 198 c 128,-1,28
 173 198 173 198 158 198.5 c 128,-1,29
 143 199 143 199 132 199.5 c 128,-1,30
 121 200 121 200 117 199 c 0,31,32
 100 195 100 195 89 182 c 0,33,34
 84 176 84 176 80 169 c 1,35,-1
 72 177 l 1,36,-1
 119 263 l 1,37,-1
 309 263 l 1,38,-1
 302 245 l 1,39,-1
 85 51 l 1,40,41
 108 54 108 54 124 51.5 c 128,-1,42
 140 49 140 49 152 44 c 128,-1,43
 164 39 164 39 171 34 c 128,-1,44
 178 29 178 29 183 28 c 0,45,46
 195 25 195 25 208 28.5 c 128,-1,47
 221 32 221 32 217 49 c 1,48,49
 206 48 206 48 198.5 54.5 c 128,-1,50
 191 61 191 61 187.5 70.5 c 128,-1,51
 184 80 184 80 184 89.5 c 128,-1,52
 184 99 184 99 188 104 c 0,53,54
 196 114 196 114 211 116.5 c 128,-1,55
 226 119 226 119 237 105 c 0,0,1
EndSplineSet
Validated: 33
EndChar

StartChar: uni009A
Encoding: 154 154 97
Width: 231
GlyphClass: 2
Flags: W
LayerCount: 2
Fore
SplineSet
231 -1 m 1,0,-1
 141 -1 l 1,1,-1
 84 125 l 1,2,-1
 27 0 l 1,3,-1
 0 0 l 1,4,-1
 110 254 l 1,5,-1
 231 -1 l 1,0,-1
EndSplineSet
Validated: 1
EndChar

StartChar: uni009B
Encoding: 155 155 98
Width: 432
GlyphClass: 2
Flags: W
LayerCount: 2
Fore
SplineSet
433 0 m 1,0,-1
 0 0 l 1,1,-1
 0 19 l 1,2,-1
 433 19 l 1,3,-1
 433 0 l 1,0,-1
EndSplineSet
Validated: 1
EndChar

StartChar: uni009C
Encoding: 156 156 99
Width: 1079
GlyphClass: 2
Flags: W
LayerCount: 2
Fore
SplineSet
570 228 m 1,0,-1
 375 228 l 1,1,-1
 348 178 l 1,2,-1
 391 164 l 2,3,4
 408 158 408 158 428.5 149.5 c 128,-1,5
 449 141 449 141 463 133 c 0,6,7
 510 106 510 106 527.5 71.5 c 128,-1,8
 545 37 545 37 538 1 c 0,9,10
 534 -21 534 -21 523 -41.5 c 128,-1,11
 512 -62 512 -62 498.5 -79.5 c 128,-1,12
 485 -97 485 -97 471.5 -111 c 128,-1,13
 458 -125 458 -125 446 -131 c 0,14,15
 429 -142 429 -142 414.5 -149 c 128,-1,16
 400 -156 400 -156 386.5 -160 c 128,-1,17
 373 -164 373 -164 356.5 -165.5 c 128,-1,18
 340 -167 340 -167 317 -167 c 0,19,20
 302 -167 302 -167 284 -163 c 128,-1,21
 266 -159 266 -159 252 -151 c 128,-1,22
 238 -143 238 -143 230 -132 c 128,-1,23
 222 -121 222 -121 225 -106 c 0,24,25
 228 -92 228 -92 245 -85.5 c 128,-1,26
 262 -79 262 -79 275 -84 c 0,27,28
 285 -88 285 -88 291.5 -98.5 c 128,-1,29
 298 -109 298 -109 304 -119 c 128,-1,30
 310 -129 310 -129 318.5 -136.5 c 128,-1,31
 327 -144 327 -144 342 -143 c 0,32,33
 373 -141 373 -141 395.5 -128.5 c 128,-1,34
 418 -116 418 -116 434.5 -98.5 c 128,-1,35
 451 -81 451 -81 460 -61.5 c 128,-1,36
 469 -42 469 -42 473 -25 c 0,37,38
 477 -9 477 -9 472.5 5 c 128,-1,39
 468 19 468 19 459 31 c 128,-1,40
 450 43 450 43 438.5 51.5 c 128,-1,41
 427 60 427 60 418 66 c 0,42,43
 403 75 403 75 380.5 83.5 c 128,-1,44
 358 92 358 92 337 99 c 128,-1,45
 316 106 316 106 301 111 c 2,46,-1
 286 116 l 1,47,-1
 390 297 l 1,48,-1
 557 297 l 2,49,50
 568 297 568 297 577 298 c 128,-1,51
 586 299 586 299 594 304 c 0,52,53
 606 310 606 310 608 311 c 128,-1,54
 610 312 610 312 614 314 c 1,55,-1
 616 311 l 1,56,-1
 570 228 l 1,0,-1
1 -158 m 1,57,-1
 7 -144 l 1,58,-1
 49 -127 l 2,59,60
 57 -123 57 -123 63.5 -120 c 128,-1,61
 70 -117 70 -117 76 -109 c 0,62,63
 83 -101 83 -101 84.5 -94 c 128,-1,64
 86 -87 86 -87 88 -77 c 2,65,-1
 150 203 l 2,66,67
 152 211 152 211 153 220.5 c 128,-1,68
 154 230 154 230 152 232 c 0,69,70
 148 237 148 237 138.5 234.5 c 128,-1,71
 129 232 129 232 120 230 c 2,72,-1
 83 221 l 1,73,-1
 81 232 l 1,74,-1
 246 302 l 1,75,-1
 158 -82 l 2,76,77
 156 -92 156 -92 155 -98.5 c 128,-1,78
 154 -105 154 -105 157 -114 c 0,79,80
 163 -128 163 -128 175 -132 c 2,81,-1
 214 -145 l 1,82,-1
 211 -158 l 1,83,-1
 1 -158 l 1,57,-1
836 84 m 0,84,85
 821 83 821 83 809.5 90 c 128,-1,86
 798 97 798 97 804 115 c 2,87,-1
 851 239 l 2,88,89
 851 240 851 240 852 243.5 c 128,-1,90
 853 247 853 247 853 251 c 128,-1,91
 853 255 853 255 851 258.5 c 128,-1,92
 849 262 849 262 844 262 c 0,93,94
 835 262 835 262 828 258.5 c 128,-1,95
 821 255 821 255 816 250 c 256,96,97
 811 245 811 245 807 238 c 2,98,-1
 749 90 l 1,99,-1
 714 90 l 1,100,-1
 774 239 l 2,101,102
 774 240 774 240 774.5 244 c 128,-1,103
 775 248 775 248 774.5 252.5 c 128,-1,104
 774 257 774 257 771.5 261 c 128,-1,105
 769 265 769 265 763 266 c 256,106,107
 757 267 757 267 750.5 263 c 128,-1,108
 744 259 744 259 739 254 c 128,-1,109
 734 249 734 249 730.5 244 c 128,-1,110
 727 239 727 239 726 238 c 2,111,-1
 667 90 l 1,112,-1
 631 90 l 1,113,-1
 692 241 l 2,114,115
 692 245 692 245 691.5 253.5 c 128,-1,116
 691 262 691 262 683 263 c 0,117,118
 671 265 671 265 659 255 c 128,-1,119
 647 245 647 245 637.5 231.5 c 128,-1,120
 628 218 628 218 621.5 206.5 c 128,-1,121
 615 195 615 195 615 194 c 2,122,-1
 593 193 l 1,123,124
 607 219 607 219 625 239 c 0,125,126
 632 247 632 247 640 255 c 128,-1,127
 648 263 648 263 657 269.5 c 128,-1,128
 666 276 666 276 674.5 280 c 128,-1,129
 683 284 683 284 692 283 c 0,130,131
 703 282 703 282 709 274.5 c 128,-1,132
 715 267 715 267 719 261 c 1,133,134
 724 268 724 268 736 277 c 128,-1,135
 748 286 748 286 770 286 c 0,136,137
 781 286 781 286 788 276.5 c 128,-1,138
 795 267 795 267 797 259 c 1,139,140
 804 267 804 267 819.5 276.5 c 128,-1,141
 835 286 835 286 856 282 c 0,142,143
 867 280 867 280 873 273 c 128,-1,144
 879 266 879 266 882 258 c 0,145,146
 886 249 886 249 886 239 c 2,147,-1
 839 118 l 2,148,149
 836 110 836 110 845 108 c 0,150,151
 849 108 849 108 854 111.5 c 128,-1,152
 859 115 859 115 863.5 120.5 c 128,-1,153
 868 126 868 126 871 131 c 128,-1,154
 874 136 874 136 876 138 c 2,155,-1
 884 128 l 2,156,157
 885 126 885 126 880.5 119 c 128,-1,158
 876 112 876 112 868.5 104 c 128,-1,159
 861 96 861 96 852.5 90 c 128,-1,160
 844 84 844 84 836 84 c 0,84,85
1071 179 m 0,161,162
 1065 162 1065 162 1053 144.5 c 128,-1,163
 1041 127 1041 127 1026 113.5 c 128,-1,164
 1011 100 1011 100 991.5 91.5 c 128,-1,165
 972 83 972 83 949 83 c 0,166,167
 941 83 941 83 931 85 c 128,-1,168
 921 87 921 87 912 91.5 c 128,-1,169
 903 96 903 96 898 103 c 128,-1,170
 893 110 893 110 895 119 c 2,171,-1
 957 360 l 1,172,-1
 933 366 l 2,173,174
 928 367 928 367 931.5 372.5 c 128,-1,175
 935 378 935 378 939 378 c 0,176,177
 950 377 950 377 968 382 c 0,178,179
 974 384 974 384 983 386.5 c 128,-1,180
 992 389 992 389 1006 401 c 1,181,-1
 957 234 l 1,182,183
 968 248 968 248 987.5 263 c 128,-1,184
 1007 278 1007 278 1032 278 c 0,185,186
 1050 278 1050 278 1061 268.5 c 128,-1,187
 1072 259 1072 259 1076.5 245 c 128,-1,188
 1081 231 1081 231 1079 213 c 128,-1,189
 1077 195 1077 195 1071 179 c 0,161,162
927 113 m 1,190,191
 931 109 931 109 933 106 c 128,-1,192
 935 103 935 103 937 101.5 c 128,-1,193
 939 100 939 100 942 100 c 128,-1,194
 945 100 945 100 952 101 c 0,195,196
 980 104 980 104 1001 127 c 128,-1,197
 1022 150 1022 150 1035 177 c 128,-1,198
 1048 204 1048 204 1051 227.5 c 128,-1,199
 1054 251 1054 251 1046 256 c 0,200,201
 1034 262 1034 262 1017 255 c 128,-1,202
 1000 248 1000 248 986 235.5 c 128,-1,203
 972 223 972 223 960.5 210 c 128,-1,204
 949 197 949 197 946 190 c 2,205,-1
 927 113 l 1,190,191
EndSplineSet
Validated: 33
EndChar

StartChar: uni009D
Encoding: 157 157 100
Width: 369
GlyphClass: 2
Flags: W
LayerCount: 2
Fore
SplineSet
195 28 m 2,0,1
 200 30 200 30 207 34.5 c 128,-1,2
 214 39 214 39 217 45 c 256,3,4
 220 51 220 51 221 60 c 128,-1,5
 222 69 222 69 223 76.5 c 128,-1,6
 224 84 224 84 223.5 89.5 c 128,-1,7
 223 95 223 95 223 96 c 2,8,-1
 286 100 l 1,9,-1
 283 34 l 2,10,11
 282 35 282 35 266 35 c 128,-1,12
 250 35 250 35 232 27 c 0,13,14
 223 22 223 22 221 17.5 c 128,-1,15
 219 13 219 13 214 6 c 1,16,-1
 214 -4 l 2,17,18
 217 -9 217 -9 221.5 -14.5 c 128,-1,19
 226 -20 226 -20 232 -24 c 0,20,21
 238 -27 238 -27 246.5 -28 c 128,-1,22
 255 -29 255 -29 262.5 -30 c 128,-1,23
 270 -31 270 -31 276 -31 c 128,-1,24
 282 -31 282 -31 283 -31 c 2,25,-1
 286 -95 l 1,26,-1
 221 -90 l 1,27,28
 220 -81 220 -81 220 -75.5 c 128,-1,29
 220 -70 220 -70 220 -65 c 128,-1,30
 220 -60 220 -60 218.5 -55 c 128,-1,31
 217 -50 217 -50 213 -41 c 0,32,33
 209 -33 209 -33 205 -30 c 128,-1,34
 201 -27 201 -27 195 -22 c 1,35,-1
 183 -22 l 2,36,37
 178 -24 178 -24 172.5 -29.5 c 128,-1,38
 167 -35 167 -35 164 -41 c 0,39,40
 159 -54 159 -54 158 -71 c 128,-1,41
 157 -88 157 -88 157 -90 c 2,42,-1
 92 -95 l 1,43,-1
 97 -28 l 2,44,45
 98 -29 98 -29 113 -29 c 128,-1,46
 128 -29 128 -29 145 -20 c 0,47,48
 154 -15 154 -15 157.5 -13 c 128,-1,49
 161 -11 161 -11 166 -4 c 1,50,-1
 167 6 l 2,51,52
 164 11 164 11 158.5 19 c 128,-1,53
 153 27 153 27 145 30 c 0,54,55
 132 35 132 35 115.5 36 c 128,-1,56
 99 37 99 37 97 36 c 2,57,-1
 92 100 l 1,58,-1
 160 96 l 2,59,60
 159 95 159 95 159 80 c 128,-1,61
 159 65 159 65 167 47 c 0,62,63
 172 39 172 39 174 36 c 128,-1,64
 176 33 176 33 183 28 c 1,65,-1
 195 28 l 2,0,1
371 0 m 0,66,67
 371 -39 371 -39 362.5 -69.5 c 128,-1,68
 354 -100 354 -100 341.5 -123 c 128,-1,69
 329 -146 329 -146 313.5 -162 c 128,-1,70
 298 -178 298 -178 283 -188 c 1,71,-1
 280 -181 l 1,72,73
 302 -158 302 -158 314 -135.5 c 128,-1,74
 326 -113 326 -113 331.5 -90 c 128,-1,75
 337 -67 337 -67 338.5 -44.5 c 128,-1,76
 340 -22 340 -22 340 0 c 0,77,78
 340 23 340 23 338.5 46 c 128,-1,79
 337 69 337 69 331.5 92 c 128,-1,80
 326 115 326 115 313.5 137.5 c 128,-1,81
 301 160 301 160 280 181 c 1,82,-1
 283 188 l 1,83,84
 296 180 296 180 311.5 163 c 128,-1,85
 327 146 327 146 340 121.5 c 128,-1,86
 353 97 353 97 362 66 c 128,-1,87
 371 35 371 35 371 0 c 0,66,67
88 -188 m 1,88,89
 74 -178 74 -178 58 -162 c 128,-1,90
 42 -146 42 -146 29 -123 c 128,-1,91
 16 -100 16 -100 8 -69.5 c 128,-1,92
 0 -39 0 -39 0 0 c 0,93,94
 0 35 0 35 8 65 c 128,-1,95
 16 95 16 95 29 119.5 c 128,-1,96
 42 144 42 144 58 161.5 c 128,-1,97
 74 179 74 179 88 188 c 1,98,-1
 91 181 l 1,99,100
 69 159 69 159 57 137 c 128,-1,101
 45 115 45 115 39.5 92 c 128,-1,102
 34 69 34 69 32.5 46 c 128,-1,103
 31 23 31 23 31 0 c 0,104,105
 31 -22 31 -22 32.5 -44.5 c 128,-1,106
 34 -67 34 -67 39.5 -90 c 128,-1,107
 45 -113 45 -113 57.5 -136 c 128,-1,108
 70 -159 70 -159 91 -181 c 1,109,-1
 88 -188 l 1,88,89
EndSplineSet
Validated: 1
EndChar

StartChar: exclamdown
Encoding: 161 161 102
Width: 166
GlyphClass: 2
Flags: W
LayerCount: 2
Fore
SplineSet
-22 0 m 1,0,-1
 -15 15 l 1,1,2
 -5 18 -5 18 4 23 c 0,3,4
 12 27 12 27 19 33 c 128,-1,5
 26 39 26 39 30 49 c 2,6,-1
 97 240 l 1,7,-1
 25 176 l 1,8,-1
 14 179 l 1,9,-1
 135 322 l 1,10,-1
 178 298 l 1,11,12
 160 245 160 245 143 197 c 0,13,14
 129 156 129 156 114.5 113.5 c 128,-1,15
 100 71 100 71 91 46 c 0,16,17
 87 36 87 36 91 30.5 c 128,-1,18
 95 25 95 25 101 22 c 0,19,20
 108 18 108 18 119 16 c 1,21,-1
 113 0 l 1,22,-1
 -22 0 l 1,0,-1
EndSplineSet
Validated: 1
EndChar

StartChar: cent
Encoding: 162 162 103
Width: 261
GlyphClass: 2
Flags: W
LayerCount: 2
Fore
SplineSet
198 85 m 1,0,-1
 188 57 l 2,1,2
 185 47 185 47 187.5 40 c 128,-1,3
 190 33 190 33 196 28 c 0,4,5
 201 22 201 22 210 16 c 1,6,-1
 205 0 l 1,7,-1
 74 0 l 1,8,-1
 79 16 l 1,9,10
 89 21 89 21 98 28 c 0,11,12
 106 33 106 33 114 40 c 128,-1,13
 122 47 122 47 125 57 c 2,14,-1
 134 85 l 1,15,-1
 6 85 l 1,16,17
 4 93 4 93 3 99 c 0,18,19
 2 104 2 104 1 109.5 c 128,-1,20
 0 115 0 115 1 115 c 0,21,22
 47 161 47 161 71.5 187.5 c 128,-1,23
 96 214 96 214 110.5 233 c 128,-1,24
 125 252 125 252 134.5 271 c 128,-1,25
 144 290 144 290 161 321 c 1,26,-1
 171 321 l 2,27,28
 176 321 176 321 183 320 c 128,-1,29
 190 319 190 319 200 321 c 0,30,31
 210 322 210 322 218.5 325 c 128,-1,32
 227 328 227 328 234.5 330 c 128,-1,33
 242 332 242 332 248.5 332 c 128,-1,34
 255 332 255 332 260 327 c 1,35,36
 251 292 251 292 224.5 266 c 128,-1,37
 198 240 198 240 163.5 215 c 128,-1,38
 129 190 129 190 92 164.5 c 128,-1,39
 55 139 55 139 26 106 c 1,40,-1
 139 106 l 1,41,42
 143 115 143 115 147 127 c 0,43,44
 151 135 151 135 155 145.5 c 128,-1,45
 159 156 159 156 163 164 c 0,46,47
 169 177 169 177 179.5 191.5 c 128,-1,48
 190 206 190 206 203.5 217.5 c 128,-1,49
 217 229 217 229 229.5 237.5 c 128,-1,50
 242 246 242 246 251 247 c 1,51,-1
 205 106 l 1,52,-1
 253 106 l 1,53,-1
 246 85 l 1,54,-1
 198 85 l 1,0,-1
EndSplineSet
Validated: 1
EndChar

StartChar: sterling
Encoding: 163 163 104
Width: 245
GlyphClass: 2
Flags: W
LayerCount: 2
Fore
SplineSet
257 232 m 0,0,1
 252 209 252 209 240.5 195.5 c 128,-1,2
 229 182 229 182 216 174.5 c 128,-1,3
 203 167 203 167 190.5 163.5 c 128,-1,4
 178 160 178 160 171 159 c 1,5,6
 179 153 179 153 189.5 143.5 c 128,-1,7
 200 134 200 134 207 122 c 128,-1,8
 214 110 214 110 216 95 c 128,-1,9
 218 80 218 80 211 63 c 0,10,11
 191 17 191 17 158.5 4.5 c 128,-1,12
 126 -8 126 -8 84 -7 c 0,13,14
 70 -7 70 -7 55.5 -1 c 128,-1,15
 41 5 41 5 28.5 14.5 c 128,-1,16
 16 24 16 24 8 36 c 128,-1,17
 0 48 0 48 -1 60 c 0,18,19
 -3 79 -3 79 7.5 91.5 c 128,-1,20
 18 104 18 104 36 104 c 0,21,22
 45 104 45 104 51 99.5 c 128,-1,23
 57 95 57 95 61 89 c 128,-1,24
 65 83 65 83 67 78 c 128,-1,25
 69 73 69 73 69 72 c 0,26,27
 70 65 70 65 64 53.5 c 128,-1,28
 58 42 58 42 53 33 c 1,29,30
 61 23 61 23 69 17.5 c 128,-1,31
 77 12 77 12 82 12 c 0,32,33
 96 12 96 12 113.5 22.5 c 128,-1,34
 131 33 131 33 142 55 c 0,35,36
 153 74 153 74 154 89 c 128,-1,37
 155 104 155 104 154 113 c 0,38,39
 152 129 152 129 143 138 c 128,-1,40
 134 147 134 147 122.5 152.5 c 128,-1,41
 111 158 111 158 99 159.5 c 128,-1,42
 87 161 87 161 78 161 c 1,43,-1
 82 184 l 1,44,45
 91 184 91 184 107.5 182.5 c 128,-1,46
 124 181 124 181 141 183 c 128,-1,47
 158 185 158 185 172.5 194.5 c 128,-1,48
 187 204 187 204 195 225 c 0,49,50
 199 237 199 237 199 251 c 128,-1,51
 199 265 199 265 195 276.5 c 128,-1,52
 191 288 191 288 183 295.5 c 128,-1,53
 175 303 175 303 162 303 c 0,54,55
 148 304 148 304 140 301.5 c 128,-1,56
 132 299 132 299 123 285 c 1,57,58
 132 277 132 277 133.5 265.5 c 128,-1,59
 135 254 135 254 132 243 c 128,-1,60
 129 232 129 232 121 224.5 c 128,-1,61
 113 217 113 217 102 217 c 0,62,63
 93 217 93 217 83.5 230.5 c 128,-1,64
 74 244 74 244 73 256 c 0,65,66
 71 288 71 288 93.5 306 c 128,-1,67
 116 324 116 324 151 324 c 0,68,69
 176 324 176 324 197 316 c 128,-1,70
 218 308 218 308 233 296 c 128,-1,71
 248 284 248 284 254.5 267 c 128,-1,72
 261 250 261 250 257 232 c 0,0,1
EndSplineSet
Validated: 33
EndChar

